<?xml version="1.0" encoding="utf-8"?>
<svg viewBox="152.123 2.276 213.34 210.192" xmlns="http://www.w3.org/2000/svg">
  <path fill="#ffffff" d="M 264.213 13.846 C 244.246 8.667 225.218 10.361 207.273 18.916 C 205.262 19.875 203.029 21.141 200.593 22.706 C 198.442 24.097 196.297 25.511 194.173 26.936 C 190.569 29.352 187.542 31.735 185.113 34.066 C 174.108 44.631 165.904 57.363 160.563 72.166 L 158.403 74.226 C 157.658 74.943 157.346 74.786 157.473 73.756 C 157.586 72.83 157.797 71.827 158.103 70.756 L 158.873 68.196 L 159.703 65.676 L 160.603 63.186 L 161.573 60.736 L 162.603 58.316 L 163.703 55.946 L 164.863 53.606 L 166.083 51.316 L 167.373 49.066 L 168.733 46.866 L 170.143 44.706 L 171.613 42.586 L 173.153 40.526 L 174.743 38.506 L 176.393 36.546 L 178.103 34.626 L 179.333 33.316 L 180.593 32.026 L 181.883 30.776 L 183.193 29.536 L 184.533 28.336 L 185.893 27.156 L 187.293 26.006 L 188.713 24.876 L 190.143 23.786 L 191.613 22.716 L 193.103 21.686 L 194.623 20.666 L 196.163 19.686 L 197.723 18.736 L 199.303 17.816 L 200.913 16.926 C 218.72 7.272 237.948 4.425 258.453 8.406 C 261.249 8.952 263.912 9.82 266.423 11.006 C 267.022 11.291 267.058 11.639 266.533 12.046 L 264.213 13.846 Z"/>
  <path fill="#55db7f" d="M 264.213 13.846 C 257.681 18.127 252.895 23.584 249.893 30.176 C 249.645 30.729 249.093 31.085 248.483 31.086 C 234.966 31.092 221.166 31.085 207.183 31.066 C 205.152 31.059 203.354 31.734 201.803 33.086 C 199.226 35.336 196.706 37.655 194.263 40.026 C 185.41 48.626 176.528 57.377 167.683 66.216 C 165.978 67.927 163.598 69.915 160.563 72.166 C 165.904 57.363 174.108 44.631 185.113 34.066 C 187.542 31.735 190.569 29.352 194.173 26.936 C 196.297 25.511 198.442 24.097 200.593 22.706 C 203.029 21.141 205.262 19.875 207.273 18.916 C 225.218 10.361 244.246 8.667 264.213 13.846 Z"/>
  <path fill="#ffffff" d="M 316.483 22.516 C 315.619 24.634 315.218 27.488 315.283 31.056 C 315.356 35.051 314.414 39.402 312.463 44.076 C 310.384 49.062 306.522 53.877 300.903 58.486 L 299.533 59.586 L 298.003 60.766 L 296.293 62.046 L 293.923 63.776 L 290.673 66.176 L 288.333 67.966 L 287.263 68.816 L 286.283 69.636 L 285.353 70.426 L 284.473 71.216 C 277.957 77.179 271.05 83.655 263.803 90.596 C 262.664 91.687 261.525 92.803 260.393 93.936 C 249.219 105.128 238.674 115.66 228.833 125.456 L 227.463 126.846 L 225.993 128.376 L 222.223 132.406 L 219.963 134.846 L 218.293 136.616 C 217.74 137.197 216.816 137.206 216.253 136.636 L 192.873 113.156 C 202.31 104.064 211.69 94.948 220.943 85.876 L 225.573 81.366 L 230.623 76.506 L 236.223 71.166 L 243.883 63.916 L 252.813 55.466 L 259.353 49.216 L 259.653 48.886 L 259.983 48.456 L 260.343 47.916 L 260.783 47.206 C 260.949 46.946 261.056 46.659 261.103 46.346 L 261.263 45.436 L 261.453 44.516 L 261.653 43.606 L 261.883 42.706 L 262.143 41.806 L 262.413 40.916 L 262.713 40.026 L 263.033 39.156 L 263.373 38.286 L 263.733 37.426 L 264.113 36.586 L 264.513 35.756 L 264.933 34.946 L 265.373 34.136 L 265.833 33.346 L 266.313 32.576 L 266.803 31.826 L 267.323 31.086 L 267.843 30.366 L 268.393 29.666 L 268.953 28.986 L 269.523 28.326 L 270.113 27.686 L 270.723 27.066 L 271.343 26.466 L 271.973 25.886 L 272.623 25.326 L 273.283 24.786 L 273.953 24.276 L 274.643 23.786 L 275.333 23.326 L 276.043 22.876 C 285.057 17.396 294.574 15.538 304.523 17.316 C 308.817 18.081 312.814 19.819 316.483 22.516 Z"/>
  <path fill="#c7d2d6" d="M 316.483 22.516 C 320.691 29.755 322.255 37.421 321.163 45.456 L 320.973 46.726 L 320.723 47.996 L 320.443 49.266 L 320.113 50.516 L 319.743 51.766 L 319.323 53.006 L 318.873 54.226 L 318.373 55.436 L 317.833 56.626 L 317.253 57.786 L 316.643 58.926 L 315.993 60.046 L 315.303 61.126 L 314.583 62.176 L 313.843 63.196 L 313.053 64.186 L 312.253 65.126 L 311.423 66.026 L 310.563 66.886 L 309.673 67.716 L 308.773 68.496 L 307.843 69.236 L 306.893 69.926 L 305.913 70.576 L 304.933 71.186 L 303.923 71.746 L 302.903 72.256 L 301.863 72.716 L 300.813 73.136 L 299.743 73.506 L 298.663 73.826 L 297.563 74.096 L 296.243 74.356 L 294.913 74.546 L 293.553 74.666 L 292.193 74.716 C 291.358 74.728 290.557 75.057 289.953 75.636 C 266.012 98.618 242.363 122.247 219.183 146.346 C 218.841 146.696 218.28 146.7 217.933 146.356 L 189.523 117.506 C 189.256 117.232 189.256 116.955 189.523 116.676 L 192.873 113.156 L 216.253 136.636 C 216.816 137.206 217.74 137.197 218.293 136.616 L 219.963 134.846 L 222.223 132.406 L 225.993 128.376 L 227.463 126.846 L 228.833 125.456 C 238.674 115.66 249.219 105.128 260.393 93.936 C 261.525 92.803 262.664 91.687 263.803 90.596 C 271.05 83.655 277.957 77.179 284.473 71.216 L 285.353 70.426 L 286.283 69.636 L 287.263 68.816 L 288.333 67.966 L 290.673 66.176 L 293.923 63.776 L 296.293 62.046 L 298.003 60.766 L 299.533 59.586 L 300.903 58.486 C 306.522 53.877 310.384 49.062 312.463 44.076 C 314.414 39.402 315.356 35.051 315.283 31.056 C 315.218 27.488 315.619 24.634 316.483 22.516 Z"/>
  <path fill="#ffffff" d="M 201.143 90.096 L 163.273 90.596 L 208.693 46.856 C 209.053 46.509 209.533 46.315 210.033 46.316 L 245.263 46.286 C 246.248 46.285 246.388 46.63 245.683 47.316 L 201.143 90.096 Z"/>
  <path fill="#2b824a" d="M 324.623 78.476 C 323.517 78.416 322.675 78.69 322.103 79.296 C 317.362 84.296 312.724 88.667 308.223 92.376 C 307.636 92.863 306.61 93.959 305.153 95.656 C 304.933 95.915 304.819 96.216 304.813 96.556 L 304.693 105.766 C 304.58 102.45 304.57 99.121 304.663 95.806 C 304.737 93.116 305.625 91.084 307.323 89.726 L 309.273 88.166 C 313.947 83.691 318.665 79.3 323.393 75.026 C 323.682 74.76 324.15 74.908 324.235 75.292 C 324.238 75.306 324.241 75.321 324.243 75.336 L 324.623 78.476 Z"/>
  <path fill="#55db7f" d="M 324.623 78.476 C 324.853 84.368 324.903 88.822 324.773 91.806 C 324.266 102.986 321.616 113.633 316.843 123.666 L 315.923 125.586 L 315.053 127.326 L 314.233 128.956 L 313.423 130.486 L 312.633 131.946 L 311.833 133.346 L 311.053 134.686 L 310.263 135.976 L 309.463 137.226 L 308.653 138.426 L 307.853 139.576 L 307.033 140.696 L 306.203 141.766 L 305.363 142.796 L 304.513 143.786 L 303.653 144.736 C 297.355 151.513 290.137 157.244 282.053 161.886 C 281.209 162.363 280.974 162.155 281.353 161.266 C 281.552 160.773 281.853 160.345 282.253 159.986 C 291.844 151.318 298.852 144.28 303.223 138.926 C 304.195 137.734 304.696 136.273 304.723 134.556 C 304.849 124.967 304.839 115.347 304.693 105.766 L 304.813 96.556 C 304.819 96.216 304.933 95.915 305.153 95.656 C 306.61 93.959 307.636 92.863 308.223 92.376 C 312.724 88.667 317.362 84.296 322.103 79.296 C 322.675 78.69 323.517 78.416 324.623 78.476 Z"/>
  <path fill="#c7d2d6" d="M 201.143 90.096 L 193.753 97.006 C 193.367 97.365 192.905 97.545 192.373 97.546 C 180.939 97.539 169.247 97.576 157.383 97.656 C 157.115 97.662 156.876 97.495 156.793 97.246 C 156.759 97.146 156.833 97.005 157.013 96.826 C 159.21 94.588 161.302 92.506 163.273 90.596 L 201.143 90.096 Z"/>
  <path fill="#c7d2d6" d="M 243.193 176.406 C 242.74 174.069 242.416 171.873 242.223 169.836 C 242.103 168.531 242.517 167.414 243.463 166.496 C 246.592 163.473 249.68 160.378 252.703 157.236 L 254.423 155.496 L 256.823 153.166 L 259.103 150.956 L 260.753 149.296 C 262.704 147.278 264.735 145.297 266.833 143.366 C 271.739 138.846 276.618 134.154 281.433 129.326 L 281.693 129.046 L 281.903 128.746 L 282.083 128.436 L 282.223 128.106 L 282.333 127.736 L 282.383 127.346 L 282.403 126.936 L 282.363 126.516 C 282.09 124.691 282.063 122.863 282.283 121.046 L 282.383 120.116 L 282.463 119.146 L 282.523 118.136 L 282.573 117.076 L 282.613 114.776 L 282.593 111.616 L 282.573 109.146 L 282.583 107.346 L 283.123 103.076 C 283.342 101.331 283.075 99.613 282.323 97.936 L 289.173 91.806 C 289.336 91.666 289.589 91.747 289.628 91.951 C 289.631 91.969 289.633 91.987 289.633 92.006 C 289.613 103.471 289.419 115.628 289.053 128.386 L 289.003 128.976 L 288.903 129.556 L 288.733 130.096 L 288.513 130.636 L 288.233 131.166 L 287.893 131.696 L 287.483 132.226 L 287.013 132.776 L 286.443 133.366 L 285.633 134.176 L 285.253 134.546 L 243.193 176.406 Z"/>
  <path fill="#ffffff" d="M 282.323 97.936 C 283.075 99.613 283.342 101.331 283.123 103.076 L 282.583 107.346 L 282.573 109.146 L 282.593 111.616 L 282.613 114.776 L 282.573 117.076 L 282.523 118.136 L 282.463 119.146 L 282.383 120.116 L 282.283 121.046 C 282.063 122.863 282.09 124.691 282.363 126.516 L 282.403 126.936 L 282.383 127.346 L 282.333 127.736 L 282.223 128.106 L 282.083 128.436 L 281.903 128.746 L 281.693 129.046 L 281.433 129.326 C 276.618 134.154 271.739 138.846 266.833 143.366 C 264.735 145.297 262.704 147.278 260.753 149.296 L 259.103 150.956 L 256.823 153.166 L 254.423 155.496 L 252.703 157.236 C 249.68 160.378 246.592 163.473 243.463 166.496 C 242.517 167.414 242.103 168.531 242.223 169.836 C 242.416 171.873 242.74 174.069 243.193 176.406 L 241.523 177.736 C 241.231 177.967 241.087 177.897 241.093 177.526 L 241.303 138.306 C 241.303 138.012 241.422 137.73 241.633 137.526 L 282.323 97.936 Z"/>
  <path fill="#ffffff" d="M 185.893 134.426 C 179.621 137.534 174.565 141.798 170.763 147.186 C 167.936 151.192 164.337 156.917 159.993 164.316 C 161.537 155.847 164.267 148.117 168.163 141.186 C 170.893 136.318 174.375 132.057 178.583 128.436 C 178.842 128.21 179.1 128.213 179.353 128.446 L 185.893 134.426 Z"/>
  <path fill="#55db7f" d="M 185.893 134.426 L 198.303 147.196 C 195.753 149.326 193.22 151.432 190.723 153.496 C 183.719 159.308 176.023 163.642 167.693 166.466 L 166.653 166.846 L 165.523 167.286 L 164.293 167.806 L 162.633 168.546 L 160.643 169.436 L 159.163 170.046 C 158.883 170.157 158.561 170.015 158.443 169.726 C 158.329 169.426 158.329 169.052 158.443 168.606 C 158.748 165.979 159.266 164.546 159.993 164.316 C 164.337 156.917 167.936 151.192 170.763 147.186 C 174.565 141.798 179.621 137.534 185.893 134.426 Z"/>
  <path fill="#2b824a" d="M 198.303 147.196 L 202.803 152.186 C 203.309 152.744 203.345 153.336 202.913 153.956 C 198.659 160.034 193.285 164.883 186.833 168.466 C 182.605 170.809 178.101 172.343 173.353 173.056 C 167.999 173.861 163.007 174.132 158.413 173.866 C 157.574 173.819 157.253 173.387 157.453 172.576 L 158.443 168.606 C 158.329 169.052 158.329 169.426 158.443 169.726 C 158.561 170.015 158.883 170.157 159.163 170.046 L 160.643 169.436 L 162.633 168.546 L 164.293 167.806 L 165.523 167.286 L 166.653 166.846 L 167.693 166.466 C 176.023 163.642 183.719 159.308 190.723 153.496 C 193.22 151.432 195.753 149.326 198.303 147.196 Z"/>
</svg>
