<?xml version="1.0" encoding="utf-8"?>
<svg viewBox="152.123 2.276 213.34 210.192" xmlns="http://www.w3.org/2000/svg">
  <path fill="#121b1a" d="M 208.59 192.296 L 207.19 193.506 L 205.72 194.686 L 204.2 195.806 L 202.64 196.876 L 201.06 197.866 L 199.46 198.776 L 197.86 199.606 L 196.26 200.356 L 194.68 200.996 L 193.9 201.286 L 193.12 201.556 L 192.35 201.806 L 191.58 202.026 L 190.82 202.216 L 190.06 202.396 L 189.32 202.546 L 188.57 202.676 L 187.84 202.776 L 187.11 202.856 L 186.4 202.916 L 185.69 202.946 L 184.99 202.956 L 184.3 202.936 L 182.57 202.876 L 181.02 202.836 L 179.58 202.826 L 178.25 202.846 L 176.98 202.886 L 175.76 202.956 L 174.6 203.056 L 173.47 203.186 L 172.37 203.346 L 171.3 203.536 L 170.26 203.756 L 169.24 204.006 L 168.25 204.296 L 167.28 204.616 L 166.33 204.966 L 165.39 205.356 L 164.1 205.966 L 162.84 206.646 L 161.6 207.396 L 160.39 208.226 C 157.62 210.216 155.097 210.243 152.84 208.306 C 151.182 206.88 150.717 205.049 151.45 202.826 L 151.68 202.176 L 151.95 201.506 L 152.27 200.816 L 152.63 200.096 L 153.02 199.366 L 153.49 198.566 L 154.76 196.506 L 155.96 194.576 L 156.78 193.136 L 157.13 192.466 L 157.45 191.806 L 157.73 191.176 L 157.98 190.556 L 158.28 189.656 L 158.52 188.716 L 158.71 187.716 L 158.84 186.666 L 158.92 185.566 L 158.95 184.366 L 158.93 183.026 L 158.87 181.186 L 158.82 179.556 L 158.8 178.376 L 158.81 177.566 L 158.84 176.756 L 158.9 175.936 L 158.99 175.116 L 159.09 174.286 L 159.22 173.466 L 159.38 172.636 L 159.56 171.816 L 159.76 170.986 L 159.99 170.166 L 160.24 169.336 L 160.51 168.516 L 160.81 167.696 L 161.13 166.886 L 161.47 166.076 L 161.83 165.276 L 162.21 164.476 L 162.62 163.696 L 163.05 162.906 L 163.5 162.136 L 163.97 161.366 L 164.45 160.616 L 164.96 159.876 L 165.48 159.146 L 166.02 158.436 L 166.58 157.726 L 167.15 157.046 L 167.74 156.376 L 168.35 155.726 L 168.96 155.086 L 169.6 154.476 L 170.24 153.876 C 170.413 153.729 170.446 153.552 170.34 153.346 L 169.61 151.846 L 168.89 150.296 L 168.18 148.696 L 167.49 147.046 L 166.81 145.336 L 166.15 143.576 L 165.49 141.756 L 164.85 139.876 L 164.23 137.946 L 163.61 135.966 L 163 133.916 L 162.4 131.786 L 161.81 129.596 L 161.22 127.316 L 160.63 124.926 L 160.03 122.416 C 159.85 121.636 159.378 121.376 158.62 121.636 C 153.292 123.42 149.483 121.879 147.22 117.026 L 147.1 116.746 L 147.01 116.466 L 146.93 116.086 L 146.89 115.706 L 146.89 115.306 L 146.93 114.916 L 147.01 114.506 L 147.13 114.086 L 147.28 113.666 L 147.48 113.226 L 147.71 112.786 L 147.99 112.346 L 148.3 111.886 L 148.65 111.436 L 149.04 110.996 L 149.44 110.566 L 149.88 110.146 L 150.33 109.746 C 153.314 107.24 156.245 104.807 159.1 102.466 C 159.529 102.112 159.776 101.582 159.77 101.026 C 159.695 92.643 160.905 83.683 163.39 74.216 L 163.77 72.806 L 164.17 71.416 L 164.6 70.026 L 165.04 68.666 L 165.51 67.306 L 166 65.966 L 166.51 64.626 L 167.04 63.306 L 167.7 61.756 L 168.39 60.216 L 169.11 58.686 L 169.87 57.176 L 170.65 55.666 L 171.48 54.156 L 172.34 52.666 L 173.24 51.156 L 174.18 49.666 L 175.15 48.166 L 176.17 46.666 L 177.22 45.156 L 178.32 43.646 L 179.47 42.116 L 180.67 40.576 L 181.91 39.016 C 197.421 19.875 218.056 8.106 243.66 3.796 L 245.82 3.456 L 247.99 3.156 L 250.16 2.896 L 252.33 2.686 L 254.5 2.516 L 256.67 2.396 L 258.85 2.306 L 261.02 2.276 L 263.19 2.276 L 265.35 2.326 L 267.51 2.416 L 269.67 2.556 L 271.82 2.736 L 273.96 2.966 L 276.09 3.226 L 278.21 3.536 L 280.32 3.896 L 282.43 4.286 L 284.51 4.726 L 286.59 5.206 L 288.65 5.736 L 290.7 6.296 L 292.73 6.906 L 294.75 7.556 L 296.75 8.246 L 298.74 8.986 L 300.7 9.756 L 302.64 10.566 L 304.56 11.426 L 306.47 12.316 L 308.35 13.256 L 310.21 14.226 C 311.021 14.657 312.07 15.338 313.35 16.266 L 314.05 16.726 L 314.81 17.136 L 315.63 17.496 L 316.52 17.826 L 317.45 18.106 L 318.49 18.356 L 319.64 18.586 L 321.18 18.846 L 322.51 19.066 L 323.43 19.256 L 324.19 19.446 L 324.84 19.656 C 335.074 23.517 342.402 30.455 346.77 40.416 C 349.647 46.973 350.911 53.179 350.55 58.986 C 350.45 60.603 350.647 62.181 351.14 63.706 C 352.025 66.462 352.877 69.299 353.69 72.196 L 354.28 74.386 L 354.81 76.596 L 355.3 78.846 L 355.73 81.096 L 356.12 83.386 L 356.46 85.696 L 356.75 88.016 L 356.99 90.356 L 357.18 92.706 L 357.31 95.076 L 357.4 97.456 L 357.44 99.836 L 357.42 102.226 L 357.36 104.626 L 357.24 107.026 L 357.07 109.416 L 356.86 111.816 L 356.59 114.206 L 356.27 116.596 L 355.9 118.976 L 355.49 121.336 L 355.02 123.696 L 354.51 126.036 L 353.94 128.366 L 353.33 130.676 L 352.67 132.966 L 351.97 135.236 L 351.21 137.476 L 350.42 139.696 L 349.58 141.886 L 348.69 144.046 L 347.76 146.176 L 346.72 148.406 L 345.64 150.606 L 344.51 152.776 L 343.33 154.916 L 342.1 157.026 L 340.83 159.096 L 339.51 161.136 L 338.15 163.136 L 336.74 165.106 L 335.29 167.026 L 333.79 168.926 L 332.25 170.776 L 330.67 172.586 L 329.06 174.346 L 327.39 176.076 L 325.69 177.756 L 323.95 179.396 L 322.17 180.996 L 320.36 182.546 L 318.51 184.046 L 316.63 185.506 L 314.71 186.916 L 312.76 188.276 L 310.78 189.586 L 308.77 190.846 L 306.73 192.056 L 304.66 193.206 L 302.56 194.316 L 300.44 195.366 L 298.3 196.366 L 296.12 197.316 L 293.93 198.206 L 292.45 198.776 L 290.96 199.316 L 289.45 199.826 L 287.94 200.326 L 286.43 200.786 L 284.9 201.226 L 283.37 201.646 L 281.82 202.036 L 280.28 202.406 L 278.73 202.746 L 277.17 203.056 L 275.6 203.346 L 274.03 203.606 L 272.46 203.846 L 270.88 204.056 L 269.29 204.246 L 267.7 204.406 L 266.1 204.536 L 264.51 204.646 L 262.91 204.726 L 261.3 204.776 L 259.69 204.806 L 258.09 204.806 L 256.48 204.786 L 254.87 204.736 L 253.25 204.666 L 251.64 204.566 L 250.03 204.436 L 248.41 204.286 L 246.79 204.106 L 245.18 203.896 L 243.56 203.666 C 232.179 201.949 220.764 198.116 209.4 192.196 C 209.107 192.042 208.836 192.076 208.59 192.296 Z M 182.13 77.096 C 185.52 74.408 188.193 72.079 190.13 70.126 C 197.767 62.435 205.316 55.02 212.72 47.936 C 213.478 47.209 214.482 46.798 215.53 46.786 C 231.772 46.552 248.049 46.583 264.24 46.876 C 264.839 46.888 265.377 46.507 265.57 45.936 L 265.9 44.996 L 266.24 44.076 L 266.61 43.176 L 267.01 42.306 L 267.42 41.436 L 267.86 40.586 L 268.33 39.756 L 268.81 38.946 L 269.47 37.926 L 270.17 36.916 L 270.91 35.946 L 271.69 34.996 L 272.52 34.056 L 273.39 33.136 L 274.32 32.226 L 275.29 31.336 L 276.31 30.456 L 277.38 29.586 L 278.51 28.716 L 279.71 27.846 L 280.99 26.966 L 282.34 26.076 L 283.78 25.166 L 285.35 24.216 L 288.62 22.876 C 288.879 22.777 288.934 22.435 288.719 22.26 C 288.684 22.231 288.643 22.209 288.6 22.196 L 286.65 21.576 L 284.68 20.996 L 282.68 20.466 L 280.67 19.986 L 278.64 19.546 L 276.59 19.156 L 274.53 18.806 L 272.46 18.506 L 270.37 18.256 L 268.28 18.056 L 266.18 17.906 L 264.07 17.796 L 261.96 17.736 L 259.85 17.726 L 257.74 17.766 L 255.63 17.846 L 253.53 17.986 L 251.43 18.166 L 249.34 18.396 L 247.26 18.676 L 245.18 18.996 L 243.12 19.366 L 241.09 19.786 L 239.06 20.256 L 237.06 20.766 L 235.07 21.316 L 233.11 21.926 L 231.16 22.566 L 229.26 23.256 L 227.37 23.986 L 225.51 24.766 L 223.68 25.586 C 217.687 28.362 211.969 31.961 206.57 36.356 C 194.241 46.388 185.265 59.123 179.71 74.466 L 179.5 75.096 L 179.31 75.816 L 179.1 76.656 L 178.86 77.786 L 178.79 78.116 C 178.396 79.926 178.915 80.237 180.34 79.046 C 181.032 78.466 181.63 77.815 182.13 77.096 Z M 205.7 127.606 C 204.814 128.238 204.169 129.097 203.77 130.176 C 203.657 130.488 203.723 130.759 203.97 130.986 C 213.924 140.12 223.635 149.894 233.03 160.236 C 233.355 160.591 233.915 160.591 234.24 160.236 L 235.31 159.056 L 238.39 155.666 L 240.66 153.226 L 242.77 151.056 L 244.77 149.096 C 265.685 129.147 286.29 109.08 306.43 89.046 C 306.803 88.673 307.277 88.415 307.85 88.276 L 310.34 87.706 L 311.91 87.356 L 313.05 87.086 L 314.08 86.816 L 315 86.546 L 315.88 86.246 L 316.71 85.936 L 317.48 85.596 L 318.21 85.236 C 328.207 79.966 333.817 71.328 335 59.386 C 335.838 50.934 333.195 43.726 327.09 37.816 C 321.484 33.056 314.507 31.057 306.21 31.836 C 299.625 32.454 293.73 34.797 288.57 38.846 C 281.386 44.484 277.422 51.679 276.71 60.376 C 276.683 60.735 276.536 61.036 276.27 61.276 L 205.7 127.606 Z M 175.47 105.126 L 170.63 110.586 C 170.25 111.008 170.442 111.683 170.99 111.856 C 171.742 112.082 172.534 112.182 173.36 112.156 C 182.129 111.816 190.036 111.739 197.02 111.926 C 201.436 112.043 204.012 112.04 204.73 111.916 C 207.387 111.436 209.726 110.116 211.73 107.966 C 213.428 106.148 215.058 104.223 216.61 102.206 C 228.547 90.028 241.162 78.075 254.36 66.436 L 258.69 62.436 C 259.355 61.823 259.234 61.512 258.33 61.506 C 245.868 61.373 233.798 61.316 222.21 61.336 C 220.932 61.335 219.866 61.726 219.02 62.506 C 204.171 76.249 189.618 90.492 175.47 105.126 Z M 320.86 114.096 C 320.78 125.074 320.673 136.112 320.54 147.126 L 320.54 147.326 L 320.5 148.786 L 320.45 149.326 L 320.39 149.806 L 320.29 150.276 L 320.16 150.706 L 320 151.106 L 319.81 151.486 L 319.61 151.796 L 319.38 152.106 L 319.12 152.396 L 318.83 152.686 L 318.41 153.096 L 317.98 153.556 L 316.89 154.826 L 315.95 155.936 L 315.23 156.696 C 306.814 165.055 299.342 172.614 292.87 179.316 C 292.683 179.502 292.563 179.726 292.51 179.986 C 292.41 180.498 292.597 180.642 293.07 180.416 L 294.62 179.646 L 296.17 178.836 L 297.7 177.996 L 299.22 177.126 L 300.72 176.226 L 302.22 175.296 L 303.69 174.336 L 305.15 173.346 L 306.59 172.326 L 308.01 171.286 L 309.4 170.216 L 310.77 169.126 L 312.11 168.016 L 313.43 166.876 L 314.72 165.716 L 315.98 164.536 L 317.21 163.346 L 318.41 162.136 L 319.57 160.906 L 320.71 159.656 L 321.81 158.396 L 322.88 157.126 L 323.91 155.836 L 324.91 154.526 L 325.86 153.226 L 326.79 151.896 L 327.68 150.566 L 328.53 149.216 L 329.33 147.876 L 330.11 146.516 L 330.84 145.156 L 331.53 143.776 C 340.001 126.453 343.178 107.81 341.04 87.986 C 341.253 87.273 341.169 86.545 340.79 85.806 C 340.623 85.486 340.403 85.446 340.13 85.686 C 338.938 86.711 337.852 87.737 336.88 88.756 C 332.172 93.689 327.163 98.505 321.89 103.166 C 321.273 103.705 320.917 104.484 320.91 105.306 L 320.86 114.096 Z M 297.47 113.076 C 293.853 116.506 290.358 119.827 287.01 123.016 C 279.368 130.291 271.692 137.565 264.04 144.786 C 262.495 146.237 260.861 147.894 259.15 149.746 L 258.64 150.346 L 258.21 150.946 L 257.86 151.556 L 257.58 152.186 L 257.37 152.806 L 257.22 153.456 L 257.13 154.146 L 257.1 154.876 C 257 163.307 256.94 172.032 256.92 180.986 L 256.97 189.316 C 256.973 189.677 257.367 189.9 257.678 189.716 C 257.708 189.699 257.735 189.679 257.76 189.656 C 268.715 179.139 280.424 168.041 292.8 156.446 C 296.255 153.203 299.58 149.878 302.75 146.496 C 304.128 145.031 304.84 143.387 304.88 141.576 C 305.125 130.291 305.222 118.515 305.17 106.336 C 305.165 106.082 304.887 105.928 304.669 106.06 C 304.648 106.073 304.628 106.088 304.61 106.106 L 297.47 113.076 Z M 175.59 176.796 L 174.06 182.106 C 173.188 182.553 172.731 183.822 172.69 185.906 C 172.684 186.384 173.071 186.776 173.55 186.776 C 181.053 186.709 188.525 185.449 195.91 183.006 C 200.87 181.361 205.121 178.881 208.63 175.586 C 211.7 172.703 214.51 169.321 217.04 165.466 C 217.466 164.813 217.393 164.219 216.82 163.686 L 212.51 159.666 L 200.71 147.356 L 195.21 142.406 C 194.757 141.993 194.305 142 193.86 142.426 C 183.878 152.109 177.773 163.594 175.59 176.796 Z"/>
  <path fill="#ffffff" d="M 285.35 24.216 C 278.09 22.855 271.581 22.01 265.87 21.686 C 250.053 20.787 235.062 24.346 221.01 32.336 C 217.401 34.387 213.745 36.625 210.07 39.036 L 208.46 40.136 L 206.87 41.316 L 205.29 42.576 L 203.74 43.906 L 202.21 45.316 L 200.71 46.796 L 199.23 48.356 L 197.77 49.976 L 196.35 51.676 L 194.95 53.436 L 193.59 55.256 L 192.27 57.136 L 190.99 59.076 L 189.76 61.046 L 188.57 63.076 L 187.43 65.136 C 186.035 67.747 184.264 71.744 182.13 77.096 C 181.63 77.815 181.032 78.466 180.34 79.046 C 178.915 80.237 178.396 79.926 178.79 78.116 L 178.86 77.786 L 179.1 76.656 L 179.31 75.816 L 179.5 75.096 L 179.71 74.466 C 185.265 59.123 194.241 46.388 206.57 36.356 C 211.969 31.961 217.687 28.362 223.68 25.586 L 225.51 24.766 L 227.37 23.986 L 229.26 23.256 L 231.16 22.566 L 233.11 21.926 L 235.07 21.316 L 237.06 20.766 L 239.06 20.256 L 241.09 19.786 L 243.12 19.366 L 245.18 18.996 L 247.26 18.676 L 249.34 18.396 L 251.43 18.166 L 253.53 17.986 L 255.63 17.846 L 257.74 17.766 L 259.85 17.726 L 261.96 17.736 L 264.07 17.796 L 266.18 17.906 L 268.28 18.056 L 270.37 18.256 L 272.46 18.506 L 274.53 18.806 L 276.59 19.156 L 278.64 19.546 L 280.67 19.986 L 282.68 20.466 L 284.68 20.996 L 286.65 21.576 L 288.6 22.196 C 288.864 22.279 288.939 22.617 288.735 22.804 C 288.702 22.835 288.662 22.859 288.62 22.876 L 285.35 24.216 Z"/>
  <path fill="#55db7f" d="M 285.35 24.216 L 283.78 25.166 L 282.34 26.076 L 280.99 26.966 L 279.71 27.846 L 278.51 28.716 L 277.38 29.586 L 276.31 30.456 L 275.29 31.336 L 274.32 32.226 L 273.39 33.136 L 272.52 34.056 L 271.69 34.996 L 270.91 35.946 L 270.17 36.916 L 269.47 37.926 L 268.81 38.946 L 268.33 39.756 L 267.86 40.586 L 267.42 41.436 L 267.01 42.306 L 266.61 43.176 L 266.24 44.076 L 265.9 44.996 L 265.57 45.936 C 265.377 46.507 264.839 46.888 264.24 46.876 C 248.049 46.583 231.772 46.552 215.53 46.786 C 214.482 46.798 213.478 47.209 212.72 47.936 C 205.316 55.02 197.767 62.435 190.13 70.126 C 188.193 72.079 185.52 74.408 182.13 77.096 C 184.264 71.744 186.035 67.747 187.43 65.136 L 188.57 63.076 L 189.76 61.046 L 190.99 59.076 L 192.27 57.136 L 193.59 55.256 L 194.95 53.436 L 196.35 51.676 L 197.77 49.976 L 199.23 48.356 L 200.71 46.796 L 202.21 45.316 L 203.74 43.906 L 205.29 42.576 L 206.87 41.316 L 208.46 40.136 L 210.07 39.036 C 213.745 36.625 217.401 34.387 221.01 32.336 C 235.062 24.346 250.053 20.787 265.87 21.686 C 271.581 22.01 278.09 22.855 285.35 24.216 Z"/>
  <path fill="#ffffff" d="M 327.09 37.816 C 328.368 42.037 328.695 46.521 328.07 51.236 C 327.158 50.49 326.456 49.437 325.97 48.086 C 325.345 46.346 324.853 45.22 324.5 44.716 C 322.469 41.833 319.695 40.072 316.2 39.446 C 306.898 37.761 298.964 39.756 292.46 45.416 C 290.116 47.453 288.181 49.816 286.67 52.486 C 284.807 55.781 283.671 58.722 283.27 61.286 C 283.057 62.69 282.786 64.057 282.46 65.376 L 282.45 65.396 L 282.37 65.646 L 282.27 65.886 L 282.14 66.116 L 281.98 66.346 L 281.79 66.586 L 281.57 66.826 L 280.93 67.426 L 280.3 68.026 L 279.88 68.496 C 279.307 69.228 278.629 69.853 277.85 70.366 L 276.47 71.326 L 275.08 72.366 L 273.68 73.516 L 272.23 74.776 L 270.76 76.136 L 269.21 77.656 L 267.51 79.376 L 265.38 81.596 L 264.73 82.236 L 263.98 82.896 L 263.13 83.576 L 261.95 84.476 L 260.63 85.466 L 259.7 86.236 L 258.89 86.986 L 258.2 87.726 L 257.06 89.006 L 255.79 90.326 L 254.36 91.736 L 252.39 93.616 L 250.21 95.686 L 248.63 97.266 C 247.851 98.064 246.988 98.826 246.05 99.546 C 245.111 100.265 244.229 101.06 243.41 101.926 C 241.992 103.417 240.458 104.687 238.82 105.726 C 237.981 106.258 237.249 106.903 236.63 107.656 C 235.791 108.661 234.785 109.623 233.62 110.536 C 232.055 111.754 230.518 113.144 229.02 114.696 C 227.89 115.873 226.386 117.267 224.52 118.866 C 223.335 119.878 222.195 120.947 221.11 122.066 L 220.3 122.886 L 219.38 123.766 L 218.34 124.716 L 216.91 125.996 L 215.26 127.476 L 214.1 128.566 L 213.09 129.556 L 212.23 130.476 C 211.644 131.128 210.782 131.332 209.65 131.086 L 205.7 127.606 L 276.27 61.276 C 276.536 61.036 276.683 60.735 276.71 60.376 C 277.422 51.679 281.386 44.484 288.57 38.846 C 293.73 34.797 299.625 32.454 306.21 31.836 C 314.507 31.057 321.484 33.056 327.09 37.816 Z"/>
  <path fill="#2b824a" d="M 327.09 37.816 C 333.195 43.726 335.838 50.934 335 59.386 C 333.817 71.328 328.207 79.966 318.21 85.236 L 317.48 85.596 L 316.71 85.936 L 315.88 86.246 L 315 86.546 L 314.08 86.816 L 313.05 87.086 L 311.91 87.356 L 310.34 87.706 L 307.85 88.276 C 307.277 88.415 306.803 88.673 306.43 89.046 C 286.29 109.08 265.685 129.147 244.77 149.096 L 242.77 151.056 L 240.66 153.226 L 238.39 155.666 L 235.31 159.056 L 234.24 160.236 C 233.915 160.591 233.355 160.591 233.03 160.236 C 223.635 149.894 213.924 140.12 203.97 130.986 C 203.723 130.759 203.657 130.488 203.77 130.176 C 204.169 129.097 204.814 128.238 205.7 127.606 L 209.65 131.086 L 230.97 149.956 C 231.518 150.434 232.34 150.408 232.85 149.896 C 243.746 138.966 254.764 128.095 265.82 117.366 L 269.35 113.976 L 273.26 110.286 L 277.63 106.216 L 283.65 100.666 L 291.32 93.576 L 296.88 88.366 L 297.44 87.856 L 298.06 87.326 L 299.76 85.966 L 301.22 84.806 L 302.25 83.926 L 302.97 83.296 L 303.73 82.666 L 304.53 82.026 L 305.39 81.366 L 307.29 79.986 L 309.92 78.156 L 312.13 76.636 L 313.72 75.496 L 315.13 74.436 L 316.39 73.426 L 317.57 72.406 L 318.65 71.396 L 319.63 70.376 L 320.54 69.336 C 324.874 64.103 327.39 58.054 328.07 51.236 C 328.695 46.521 328.368 42.037 327.09 37.816 Z"/>
  <path fill="#55db7f" d="M 328.07 51.236 C 327.39 58.054 324.874 64.103 320.54 69.336 L 319.63 70.376 L 318.65 71.396 L 317.57 72.406 L 316.39 73.426 L 315.13 74.436 L 313.72 75.496 L 312.13 76.636 L 309.92 78.156 L 307.29 79.986 L 305.39 81.366 L 304.53 82.026 L 303.73 82.666 L 302.97 83.296 L 302.25 83.926 L 301.22 84.806 L 299.76 85.966 L 298.06 87.326 L 297.44 87.856 L 296.88 88.366 L 291.32 93.576 L 283.65 100.666 L 277.63 106.216 L 273.26 110.286 L 269.35 113.976 L 265.82 117.366 C 254.764 128.095 243.746 138.966 232.85 149.896 C 232.34 150.408 231.518 150.434 230.97 149.956 L 209.65 131.086 C 210.782 131.332 211.644 131.128 212.23 130.476 L 213.09 129.556 L 214.1 128.566 L 215.26 127.476 L 216.91 125.996 L 218.34 124.716 L 219.38 123.766 L 220.3 122.886 L 221.11 122.066 C 222.195 120.947 223.335 119.878 224.52 118.866 C 226.386 117.267 227.89 115.873 229.02 114.696 C 230.518 113.144 232.055 111.754 233.62 110.536 C 234.785 109.623 235.791 108.661 236.63 107.656 C 237.249 106.903 237.981 106.258 238.82 105.726 C 240.458 104.687 241.992 103.417 243.41 101.926 C 244.229 101.06 245.111 100.265 246.05 99.546 C 246.988 98.826 247.851 98.064 248.63 97.266 L 250.21 95.686 L 252.39 93.616 L 254.36 91.736 L 255.79 90.326 L 257.06 89.006 L 258.2 87.726 L 258.89 86.986 L 259.7 86.236 L 260.63 85.466 L 261.95 84.476 L 263.13 83.576 L 263.98 82.896 L 264.73 82.236 L 265.38 81.596 L 267.51 79.376 L 269.21 77.656 L 270.76 76.136 L 272.23 74.776 L 273.68 73.516 L 275.08 72.366 L 276.47 71.326 L 277.85 70.366 C 278.629 69.853 279.307 69.228 279.88 68.496 L 280.3 68.026 L 280.93 67.426 L 281.57 66.826 L 281.79 66.586 L 281.98 66.346 L 282.14 66.116 L 282.27 65.886 L 282.37 65.646 L 282.45 65.396 L 282.46 65.376 C 282.786 64.057 283.057 62.69 283.27 61.286 C 283.671 58.722 284.807 55.781 286.67 52.486 C 288.181 49.816 290.116 47.453 292.46 45.416 C 298.964 39.756 306.898 37.761 316.2 39.446 C 319.695 40.072 322.469 41.833 324.5 44.716 C 324.853 45.22 325.345 46.346 325.97 48.086 C 326.456 49.437 327.158 50.49 328.07 51.236 Z"/>
  <path fill="#ffffff" d="M 254.36 66.436 C 244.052 66.195 234.117 66.376 224.63 66.976 C 223.085 67.075 221.772 67.61 220.7 68.576 L 218.9 70.196 L 218.13 70.796 L 217.34 71.436 L 215.68 72.866 L 213.87 74.506 L 211.45 76.806 L 209.73 78.436 L 208.48 79.606 L 207.35 80.626 L 206.31 81.526 C 201.609 85.488 196.917 89.912 192.27 94.766 C 190.106 97.013 186.206 100.438 180.6 105.016 L 175.47 105.126 C 189.618 90.492 204.171 76.249 219.02 62.506 C 219.866 61.726 220.932 61.335 222.21 61.336 C 233.798 61.316 245.868 61.373 258.33 61.506 C 259.234 61.512 259.355 61.823 258.69 62.436 L 254.36 66.436 Z"/>
  <path fill="#55db7f" d="M 254.36 66.436 C 241.162 78.075 228.547 90.028 216.61 102.206 L 214.42 103.946 C 214.167 104.152 213.876 104.266 213.55 104.286 C 202.47 105.071 191.459 105.315 180.6 105.016 C 186.206 100.438 190.106 97.013 192.27 94.766 C 196.917 89.912 201.609 85.488 206.31 81.526 L 207.35 80.626 L 208.48 79.606 L 209.73 78.436 L 211.45 76.806 L 213.87 74.506 L 215.68 72.866 L 217.34 71.436 L 218.13 70.796 L 218.9 70.196 L 220.7 68.576 C 221.772 67.61 223.085 67.075 224.63 66.976 C 234.117 66.376 244.052 66.195 254.36 66.436 Z"/>
  <path fill="#2b824a" d="M 341.04 87.986 C 338.616 90.422 336.284 92.872 334.06 95.316 C 331.733 97.882 327.98 101.223 322.83 105.316 C 321.903 106.054 321.372 106.783 321.24 107.496 C 321 108.767 320.873 110.972 320.86 114.096 L 320.91 105.306 C 320.917 104.484 321.273 103.705 321.89 103.166 C 327.163 98.505 332.172 93.689 336.88 88.756 C 337.852 87.737 338.938 86.711 340.13 85.686 C 340.403 85.446 340.623 85.486 340.79 85.806 C 341.169 86.545 341.253 87.273 341.04 87.986 Z"/>
  <path fill="#55db7f" d="M 341.04 87.986 C 343.178 107.81 340.001 126.453 331.53 143.776 L 330.84 145.156 L 330.11 146.516 L 329.33 147.876 L 328.53 149.216 L 327.68 150.566 L 326.79 151.896 L 325.86 153.226 L 324.91 154.526 L 323.91 155.836 L 322.88 157.126 L 321.81 158.396 L 320.71 159.656 L 319.57 160.906 L 318.41 162.136 L 317.21 163.346 L 315.98 164.536 L 314.72 165.716 L 313.43 166.876 L 312.11 168.016 L 310.77 169.126 L 309.4 170.216 L 308.01 171.286 L 306.59 172.326 L 305.15 173.346 L 303.69 174.336 L 302.22 175.296 L 300.72 176.226 L 299.22 177.126 L 297.7 177.996 L 296.17 178.836 L 294.62 179.646 L 293.07 180.416 C 292.597 180.642 292.41 180.498 292.51 179.986 C 292.563 179.726 292.683 179.502 292.87 179.316 C 299.342 172.614 306.814 165.055 315.23 156.696 L 315.95 155.936 L 316.89 154.826 L 317.98 153.556 L 318.41 153.096 L 318.83 152.686 L 319.12 152.396 L 319.38 152.106 L 319.61 151.796 L 319.81 151.486 L 320 151.106 L 320.16 150.706 L 320.29 150.276 L 320.39 149.806 L 320.45 149.326 L 320.5 148.786 L 320.54 147.326 L 320.54 147.126 C 320.673 136.112 320.78 125.074 320.86 114.096 C 320.873 110.972 321 108.767 321.24 107.496 C 321.372 106.783 321.903 106.054 322.83 105.316 C 327.98 101.223 331.733 97.882 334.06 95.316 C 336.284 92.872 338.616 90.422 341.04 87.986 Z"/>
  <path fill="#2b824a" d="M 216.61 102.206 C 215.058 104.223 213.428 106.148 211.73 107.966 C 209.726 110.116 207.387 111.436 204.73 111.916 C 204.012 112.04 201.436 112.043 197.02 111.926 C 190.036 111.739 182.129 111.816 173.36 112.156 C 172.534 112.182 171.742 112.082 170.99 111.856 C 170.442 111.683 170.25 111.008 170.63 110.586 L 175.47 105.126 L 180.6 105.016 C 191.459 105.315 202.47 105.071 213.55 104.286 C 213.876 104.266 214.167 104.152 214.42 103.946 L 216.61 102.206 Z"/>
  <path fill="#2b824a" d="M 256.92 180.986 C 257.685 180.586 258.387 179.981 259.02 179.176 C 259.952 178.001 260.533 177.299 260.76 177.076 C 268.337 169.391 276.09 161.829 283.96 154.446 C 286.277 152.275 288.309 150.203 290.04 148.246 C 290.443 147.797 291.646 146.775 293.64 145.186 C 295.052 144.061 295.934 142.811 296.28 141.446 C 296.598 140.199 296.842 137.843 297.01 134.396 L 297.08 132.766 L 297.12 130.996 L 297.18 126.436 L 297.24 121.636 L 297.3 119.806 L 297.38 118.116 C 297.466 116.511 297.496 114.827 297.47 113.076 L 304.61 106.106 C 304.792 105.928 305.097 106.015 305.16 106.261 C 305.166 106.285 305.169 106.31 305.17 106.336 C 305.222 118.515 305.125 130.291 304.88 141.576 C 304.84 143.387 304.128 145.031 302.75 146.496 C 299.58 149.878 296.255 153.203 292.8 156.446 C 280.424 168.041 268.715 179.139 257.76 189.656 C 257.495 189.902 257.062 189.769 256.982 189.416 C 256.974 189.383 256.97 189.349 256.97 189.316 L 256.92 180.986 Z"/>
  <path fill="#55db7f" d="M 297.47 113.076 C 297.496 114.827 297.466 116.511 297.38 118.116 L 297.3 119.806 L 297.24 121.636 L 297.18 126.436 L 297.12 130.996 L 297.08 132.766 L 297.01 134.396 C 296.842 137.843 296.598 140.199 296.28 141.446 C 295.934 142.811 295.052 144.061 293.64 145.186 C 291.646 146.775 290.443 147.797 290.04 148.246 C 288.309 150.203 286.277 152.275 283.96 154.446 C 276.09 161.829 268.337 169.391 260.76 177.076 C 260.533 177.299 259.952 178.001 259.02 179.176 C 258.387 179.981 257.685 180.586 256.92 180.986 C 256.94 172.032 257 163.307 257.1 154.876 L 257.13 154.146 L 257.22 153.456 L 257.37 152.806 L 257.58 152.186 L 257.86 151.556 L 258.21 150.946 L 258.64 150.346 L 259.15 149.746 C 260.861 147.894 262.495 146.237 264.04 144.786 C 271.692 137.565 279.368 130.291 287.01 123.016 C 290.358 119.827 293.853 116.506 297.47 113.076 Z"/>
  <path fill="#ffffff" d="M 200.71 147.356 C 194.424 152.169 189.268 157.573 185.28 163.526 C 183.019 166.889 180.122 171.614 176.61 177.666 C 176.43 177.979 176.183 178.045 175.87 177.866 C 175.576 177.699 175.483 177.342 175.59 176.796 C 177.773 163.594 183.878 152.109 193.86 142.426 C 194.305 142 194.757 141.993 195.21 142.406 L 200.71 147.356 Z"/>
  <path fill="#55db7f" d="M 200.71 147.356 L 212.51 159.666 C 207.109 165.032 201.288 169.426 195.09 172.816 C 188.912 176.199 181.885 179.303 174.06 182.106 L 175.59 176.796 C 175.483 177.342 175.576 177.699 175.87 177.866 C 176.183 178.045 176.43 177.979 176.61 177.666 C 180.122 171.614 183.019 166.889 185.28 163.526 C 189.268 157.573 194.424 152.169 200.71 147.356 Z"/>
  <path fill="#2b824a" d="M 212.51 159.666 L 216.82 163.686 C 217.393 164.219 217.466 164.813 217.04 165.466 C 214.51 169.321 211.7 172.703 208.63 175.586 C 205.121 178.881 200.87 181.361 195.91 183.006 C 188.525 185.449 181.053 186.709 173.55 186.776 C 173.071 186.776 172.684 186.384 172.69 185.906 C 172.731 183.822 173.188 182.553 174.06 182.106 C 181.885 179.303 188.912 176.199 195.09 172.816 C 201.288 169.426 207.109 165.032 212.51 159.666 Z"/>
</svg>
