<?xml version="1.0" encoding="utf-8"?>
<svg viewBox="3.01 -389.723 992.563 1133.298" xmlns="http://www.w3.org/2000/svg">
  <rect x="3.01" y="-389.723" width="786.978" height="376.56" style="stroke: rgb(0, 0, 0); fill: rgb(255, 255, 255);" transform="matrix(1, 0, 0, 1, -2.2737367544323206e-13, 0)"/>
  <path fill="#121b1a" d="M 232.701 -184.261 L 231.301 -183.051 L 229.831 -181.871 L 228.311 -180.751 L 226.751 -179.681 L 225.171 -178.691 L 223.571 -177.781 L 221.971 -176.951 L 220.371 -176.201 L 218.791 -175.561 L 218.011 -175.271 L 217.231 -175.001 L 216.461 -174.751 L 215.691 -174.531 L 214.931 -174.341 L 214.171 -174.161 L 213.431 -174.011 L 212.681 -173.881 L 211.951 -173.781 L 211.221 -173.701 L 210.511 -173.641 L 209.801 -173.611 L 209.101 -173.601 L 208.411 -173.621 L 206.681 -173.681 L 205.131 -173.721 L 203.691 -173.731 L 202.361 -173.711 L 201.091 -173.671 L 199.871 -173.601 L 198.711 -173.501 L 197.581 -173.371 L 196.481 -173.211 L 195.411 -173.021 L 194.371 -172.801 L 193.351 -172.551 L 192.361 -172.261 L 191.391 -171.941 L 190.441 -171.591 L 189.501 -171.201 L 188.211 -170.591 L 186.951 -169.911 L 185.711 -169.161 L 184.501 -168.331 C 181.731 -166.341 179.208 -166.314 176.951 -168.251 C 175.293 -169.677 174.828 -171.508 175.561 -173.731 L 175.791 -174.381 L 176.061 -175.051 L 176.381 -175.741 L 176.741 -176.461 L 177.131 -177.191 L 177.601 -177.991 L 178.871 -180.051 L 180.071 -181.981 L 180.891 -183.421 L 181.241 -184.091 L 181.561 -184.751 L 181.841 -185.381 L 182.091 -186.001 L 182.391 -186.901 L 182.631 -187.841 L 182.821 -188.841 L 182.951 -189.891 L 183.031 -190.991 L 183.061 -192.191 L 183.041 -193.531 L 182.981 -195.371 L 182.931 -197.001 L 182.911 -198.181 L 182.921 -198.991 L 182.951 -199.801 L 183.011 -200.621 L 183.101 -201.441 L 183.201 -202.271 L 183.331 -203.091 L 183.491 -203.921 L 183.671 -204.741 L 183.871 -205.571 L 184.101 -206.391 L 184.351 -207.221 L 184.621 -208.041 L 184.921 -208.861 L 185.241 -209.671 L 185.581 -210.481 L 185.941 -211.281 L 186.321 -212.081 L 186.731 -212.861 L 187.161 -213.651 L 187.611 -214.421 L 188.081 -215.191 L 188.561 -215.941 L 189.071 -216.681 L 189.591 -217.411 L 190.131 -218.121 L 190.691 -218.831 L 191.261 -219.511 L 191.851 -220.181 L 192.461 -220.831 L 193.071 -221.471 L 193.711 -222.081 L 194.351 -222.681 C 194.524 -222.828 194.557 -223.005 194.451 -223.211 L 193.721 -224.711 L 193.001 -226.261 L 192.291 -227.861 L 191.601 -229.511 L 190.921 -231.221 L 190.261 -232.981 L 189.601 -234.801 L 188.961 -236.681 L 188.341 -238.611 L 187.721 -240.591 L 187.111 -242.641 L 186.511 -244.771 L 185.921 -246.961 L 185.331 -249.241 L 184.741 -251.631 L 184.141 -254.141 C 183.961 -254.921 183.489 -255.181 182.731 -254.921 C 177.403 -253.137 173.594 -254.678 171.331 -259.531 L 171.211 -259.811 L 171.121 -260.091 L 171.041 -260.471 L 171.001 -260.851 L 171.001 -261.251 L 171.041 -261.641 L 171.121 -262.051 L 171.241 -262.471 L 171.391 -262.891 L 171.591 -263.331 L 171.821 -263.771 L 172.101 -264.211 L 172.411 -264.671 L 172.761 -265.121 L 173.151 -265.561 L 173.551 -265.991 L 173.991 -266.411 L 174.441 -266.811 C 177.425 -269.317 180.356 -271.75 183.211 -274.091 C 183.64 -274.445 183.887 -274.975 183.881 -275.531 C 183.806 -283.914 185.016 -292.874 187.501 -302.341 L 187.881 -303.751 L 188.281 -305.141 L 188.711 -306.531 L 189.151 -307.891 L 189.621 -309.251 L 190.111 -310.591 L 190.621 -311.931 L 191.151 -313.251 L 191.811 -314.801 L 192.501 -316.341 L 193.221 -317.871 L 193.981 -319.381 L 194.761 -320.891 L 195.591 -322.401 L 196.451 -323.891 L 197.351 -325.401 L 198.291 -326.891 L 199.261 -328.391 L 200.281 -329.891 L 201.331 -331.401 L 202.431 -332.911 L 203.581 -334.441 L 204.781 -335.981 L 206.021 -337.541 C 221.532 -356.682 242.167 -368.451 267.771 -372.761 L 269.931 -373.101 L 272.101 -373.401 L 274.271 -373.661 L 276.441 -373.871 L 278.611 -374.041 L 280.781 -374.161 L 282.961 -374.251 L 285.131 -374.281 L 287.301 -374.281 L 289.461 -374.231 L 291.621 -374.141 L 293.781 -374.001 L 295.931 -373.821 L 298.071 -373.591 L 300.201 -373.331 L 302.321 -373.021 L 304.431 -372.661 L 306.541 -372.271 L 308.621 -371.831 L 310.701 -371.351 L 312.761 -370.821 L 314.811 -370.261 L 316.841 -369.651 L 318.861 -369.001 L 320.861 -368.311 L 322.851 -367.571 L 324.811 -366.801 L 326.751 -365.991 L 328.671 -365.131 L 330.581 -364.241 L 332.461 -363.301 L 334.321 -362.331 C 335.132 -361.9 336.181 -361.219 337.461 -360.291 L 338.161 -359.831 L 338.921 -359.421 L 339.741 -359.061 L 340.631 -358.731 L 341.561 -358.451 L 342.601 -358.201 L 343.751 -357.971 L 345.291 -357.711 L 346.621 -357.491 L 347.541 -357.301 L 348.301 -357.111 L 348.951 -356.901 C 359.185 -353.04 366.513 -346.102 370.881 -336.141 C 373.758 -329.584 375.022 -323.378 374.661 -317.571 C 374.561 -315.954 374.758 -314.376 375.251 -312.851 C 376.136 -310.095 376.988 -307.258 377.801 -304.361 L 378.391 -302.171 L 378.921 -299.961 L 379.411 -297.711 L 379.841 -295.461 L 380.231 -293.171 L 380.571 -290.861 L 380.861 -288.541 L 381.101 -286.201 L 381.291 -283.851 L 381.421 -281.481 L 381.511 -279.101 L 381.551 -276.721 L 381.531 -274.331 L 381.471 -271.931 L 381.351 -269.531 L 381.181 -267.141 L 380.971 -264.741 L 380.701 -262.351 L 380.381 -259.961 L 380.011 -257.581 L 379.601 -255.221 L 379.131 -252.861 L 378.621 -250.521 L 378.051 -248.191 L 377.441 -245.881 L 376.781 -243.591 L 376.081 -241.321 L 375.321 -239.081 L 374.531 -236.861 L 373.691 -234.671 L 372.801 -232.511 L 371.871 -230.381 L 370.831 -228.151 L 369.751 -225.951 L 368.621 -223.781 L 367.441 -221.641 L 366.211 -219.531 L 364.941 -217.461 L 363.621 -215.421 L 362.261 -213.421 L 360.851 -211.451 L 359.401 -209.531 L 357.901 -207.631 L 356.361 -205.781 L 354.781 -203.971 L 353.171 -202.211 L 351.501 -200.481 L 349.801 -198.801 L 348.061 -197.161 L 346.281 -195.561 L 344.471 -194.011 L 342.621 -192.511 L 340.741 -191.051 L 338.821 -189.641 L 336.871 -188.281 L 334.891 -186.971 L 332.881 -185.711 L 330.841 -184.501 L 328.771 -183.351 L 326.671 -182.241 L 324.551 -181.191 L 322.411 -180.191 L 320.231 -179.241 L 318.041 -178.351 L 316.561 -177.781 L 315.071 -177.241 L 313.561 -176.731 L 312.051 -176.231 L 310.541 -175.771 L 309.011 -175.331 L 307.481 -174.911 L 305.931 -174.521 L 304.391 -174.151 L 302.841 -173.811 L 301.281 -173.501 L 299.711 -173.211 L 298.141 -172.951 L 296.571 -172.711 L 294.991 -172.501 L 293.401 -172.311 L 291.811 -172.151 L 290.211 -172.021 L 288.621 -171.911 L 287.021 -171.831 L 285.411 -171.781 L 283.801 -171.751 L 282.201 -171.751 L 280.591 -171.771 L 278.981 -171.821 L 277.361 -171.891 L 275.751 -171.991 L 274.141 -172.121 L 272.521 -172.271 L 270.901 -172.451 L 269.291 -172.661 L 267.671 -172.891 C 256.29 -174.608 244.875 -178.441 233.511 -184.361 C 233.218 -184.515 232.947 -184.481 232.701 -184.261 Z M 206.241 -299.461 C 209.631 -302.149 212.304 -304.478 214.241 -306.431 C 221.878 -314.122 229.427 -321.537 236.831 -328.621 C 237.589 -329.348 238.593 -329.759 239.641 -329.771 C 255.883 -330.005 272.16 -329.974 288.351 -329.681 C 288.95 -329.669 289.488 -330.05 289.681 -330.621 L 290.011 -331.561 L 290.351 -332.481 L 290.721 -333.381 L 291.121 -334.251 L 291.531 -335.121 L 291.971 -335.971 L 292.441 -336.801 L 292.921 -337.611 L 293.581 -338.631 L 294.281 -339.641 L 295.021 -340.611 L 295.801 -341.561 L 296.631 -342.501 L 297.501 -343.421 L 298.431 -344.331 L 299.401 -345.221 L 300.421 -346.101 L 301.491 -346.971 L 302.621 -347.841 L 303.821 -348.711 L 305.101 -349.591 L 306.451 -350.481 L 307.891 -351.391 L 309.461 -352.341 L 312.731 -353.681 C 312.99 -353.78 313.045 -354.122 312.83 -354.297 C 312.795 -354.326 312.754 -354.348 312.711 -354.361 L 310.761 -354.981 L 308.791 -355.561 L 306.791 -356.091 L 304.781 -356.571 L 302.751 -357.011 L 300.701 -357.401 L 298.641 -357.751 L 296.571 -358.051 L 294.481 -358.301 L 292.391 -358.501 L 290.291 -358.651 L 288.181 -358.761 L 286.071 -358.821 L 283.961 -358.831 L 281.851 -358.791 L 279.741 -358.711 L 277.641 -358.571 L 275.541 -358.391 L 273.451 -358.161 L 271.371 -357.881 L 269.291 -357.561 L 267.231 -357.191 L 265.201 -356.771 L 263.171 -356.301 L 261.171 -355.791 L 259.181 -355.241 L 257.221 -354.631 L 255.271 -353.991 L 253.371 -353.301 L 251.481 -352.571 L 249.621 -351.791 L 247.791 -350.971 C 241.798 -348.195 236.08 -344.596 230.681 -340.201 C 218.352 -330.169 209.376 -317.434 203.821 -302.091 L 203.611 -301.461 L 203.421 -300.741 L 203.211 -299.901 L 202.971 -298.771 L 202.901 -298.441 C 202.507 -296.631 203.026 -296.32 204.451 -297.511 C 205.143 -298.091 205.741 -298.742 206.241 -299.461 Z M 229.811 -248.951 C 228.925 -248.319 228.28 -247.46 227.881 -246.381 C 227.768 -246.069 227.834 -245.798 228.081 -245.571 C 238.035 -236.437 247.746 -226.663 257.141 -216.321 C 257.466 -215.966 258.026 -215.966 258.351 -216.321 L 259.421 -217.501 L 262.501 -220.891 L 264.771 -223.331 L 266.881 -225.501 L 268.881 -227.461 C 289.796 -247.41 310.401 -267.477 330.541 -287.511 C 330.914 -287.884 331.388 -288.142 331.961 -288.281 L 334.451 -288.851 L 336.021 -289.201 L 337.161 -289.471 L 338.191 -289.741 L 339.111 -290.011 L 339.991 -290.311 L 340.821 -290.621 L 341.591 -290.961 L 342.321 -291.321 C 352.318 -296.591 357.928 -305.229 359.111 -317.171 C 359.949 -325.623 357.306 -332.831 351.201 -338.741 C 345.595 -343.501 338.618 -345.5 330.321 -344.721 C 323.736 -344.103 317.841 -341.76 312.681 -337.711 C 305.497 -332.073 301.533 -324.878 300.821 -316.181 C 300.794 -315.822 300.647 -315.521 300.381 -315.281 L 229.811 -248.951 Z M 199.581 -271.431 L 194.741 -265.971 C 194.361 -265.549 194.553 -264.874 195.101 -264.701 C 195.853 -264.475 196.645 -264.375 197.471 -264.401 C 206.24 -264.741 214.147 -264.818 221.131 -264.631 C 225.547 -264.514 228.123 -264.517 228.841 -264.641 C 231.498 -265.121 233.837 -266.441 235.841 -268.591 C 237.539 -270.409 239.169 -272.334 240.721 -274.351 C 252.658 -286.529 265.273 -298.482 278.471 -310.121 L 282.801 -314.121 C 283.466 -314.734 283.345 -315.045 282.441 -315.051 C 269.979 -315.184 257.909 -315.241 246.321 -315.221 C 245.043 -315.222 243.977 -314.831 243.131 -314.051 C 228.282 -300.308 213.729 -286.065 199.581 -271.431 Z M 344.971 -262.461 C 344.891 -251.483 344.784 -240.445 344.651 -229.431 L 344.651 -229.231 L 344.611 -227.771 L 344.561 -227.231 L 344.501 -226.751 L 344.401 -226.281 L 344.271 -225.851 L 344.111 -225.451 L 343.921 -225.071 L 343.721 -224.761 L 343.491 -224.451 L 343.231 -224.161 L 342.941 -223.871 L 342.521 -223.461 L 342.091 -223.001 L 341.001 -221.731 L 340.061 -220.621 L 339.341 -219.861 C 330.925 -211.502 323.453 -203.943 316.981 -197.241 C 316.794 -197.055 316.674 -196.831 316.621 -196.571 C 316.521 -196.059 316.708 -195.915 317.181 -196.141 L 318.731 -196.911 L 320.281 -197.721 L 321.811 -198.561 L 323.331 -199.431 L 324.831 -200.331 L 326.331 -201.261 L 327.801 -202.221 L 329.261 -203.211 L 330.701 -204.231 L 332.121 -205.271 L 333.511 -206.341 L 334.881 -207.431 L 336.221 -208.541 L 337.541 -209.681 L 338.831 -210.841 L 340.091 -212.021 L 341.321 -213.211 L 342.521 -214.421 L 343.681 -215.651 L 344.821 -216.901 L 345.921 -218.161 L 346.991 -219.431 L 348.021 -220.721 L 349.021 -222.031 L 349.971 -223.331 L 350.901 -224.661 L 351.791 -225.991 L 352.641 -227.341 L 353.441 -228.681 L 354.221 -230.041 L 354.951 -231.401 L 355.641 -232.781 C 364.112 -250.104 367.289 -268.747 365.151 -288.571 C 365.364 -289.284 365.28 -290.012 364.901 -290.751 C 364.734 -291.071 364.514 -291.111 364.241 -290.871 C 363.049 -289.846 361.963 -288.82 360.991 -287.801 C 356.283 -282.868 351.274 -278.052 346.001 -273.391 C 345.384 -272.852 345.028 -272.073 345.021 -271.251 L 344.971 -262.461 Z M 321.581 -263.481 C 317.964 -260.051 314.469 -256.73 311.121 -253.541 C 303.479 -246.266 295.803 -238.992 288.151 -231.771 C 286.606 -230.32 284.972 -228.663 283.261 -226.811 L 282.751 -226.211 L 282.321 -225.611 L 281.971 -225.001 L 281.691 -224.371 L 281.481 -223.751 L 281.331 -223.101 L 281.241 -222.411 L 281.211 -221.681 C 281.111 -213.25 281.051 -204.525 281.031 -195.571 L 281.081 -187.241 C 281.084 -186.88 281.478 -186.657 281.789 -186.841 C 281.819 -186.858 281.846 -186.878 281.871 -186.901 C 292.826 -197.418 304.535 -208.516 316.911 -220.111 C 320.366 -223.354 323.691 -226.679 326.861 -230.061 C 328.239 -231.526 328.951 -233.17 328.991 -234.981 C 329.236 -246.266 329.333 -258.042 329.281 -270.221 C 329.276 -270.475 328.998 -270.629 328.78 -270.497 C 328.759 -270.484 328.739 -270.469 328.721 -270.451 L 321.581 -263.481 Z M 199.701 -199.761 L 198.171 -194.451 C 197.299 -194.004 196.842 -192.735 196.801 -190.651 C 196.795 -190.173 197.182 -189.781 197.661 -189.781 C 205.164 -189.848 212.636 -191.108 220.021 -193.551 C 224.981 -195.196 229.232 -197.676 232.741 -200.971 C 235.811 -203.854 238.621 -207.236 241.151 -211.091 C 241.577 -211.744 241.504 -212.338 240.931 -212.871 L 236.621 -216.891 L 224.821 -229.201 L 219.321 -234.151 C 218.868 -234.564 218.416 -234.557 217.971 -234.131 C 207.989 -224.448 201.884 -212.963 199.701 -199.761 Z" transform="matrix(1, 0, 0, 1, -2.2737367544323206e-13, 0)"/>
  <path fill="#ffffff" d="M 309.461 -352.341 C 302.201 -353.702 295.692 -354.547 289.981 -354.871 C 274.164 -355.77 259.173 -352.211 245.121 -344.221 C 241.512 -342.17 237.856 -339.932 234.181 -337.521 L 232.571 -336.421 L 230.981 -335.241 L 229.401 -333.981 L 227.851 -332.651 L 226.321 -331.241 L 224.821 -329.761 L 223.341 -328.201 L 221.881 -326.581 L 220.461 -324.881 L 219.061 -323.121 L 217.701 -321.301 L 216.381 -319.421 L 215.101 -317.481 L 213.871 -315.511 L 212.681 -313.481 L 211.541 -311.421 C 210.146 -308.81 208.375 -304.813 206.241 -299.461 C 205.741 -298.742 205.143 -298.091 204.451 -297.511 C 203.026 -296.32 202.507 -296.631 202.901 -298.441 L 202.971 -298.771 L 203.211 -299.901 L 203.421 -300.741 L 203.611 -301.461 L 203.821 -302.091 C 209.376 -317.434 218.352 -330.169 230.681 -340.201 C 236.08 -344.596 241.798 -348.195 247.791 -350.971 L 249.621 -351.791 L 251.481 -352.571 L 253.371 -353.301 L 255.271 -353.991 L 257.221 -354.631 L 259.181 -355.241 L 261.171 -355.791 L 263.171 -356.301 L 265.201 -356.771 L 267.231 -357.191 L 269.291 -357.561 L 271.371 -357.881 L 273.451 -358.161 L 275.541 -358.391 L 277.641 -358.571 L 279.741 -358.711 L 281.851 -358.791 L 283.961 -358.831 L 286.071 -358.821 L 288.181 -358.761 L 290.291 -358.651 L 292.391 -358.501 L 294.481 -358.301 L 296.571 -358.051 L 298.641 -357.751 L 300.701 -357.401 L 302.751 -357.011 L 304.781 -356.571 L 306.791 -356.091 L 308.791 -355.561 L 310.761 -354.981 L 312.711 -354.361 C 312.975 -354.278 313.05 -353.94 312.846 -353.753 C 312.813 -353.722 312.773 -353.698 312.731 -353.681 L 309.461 -352.341 Z" transform="matrix(1, 0, 0, 1, -2.2737367544323206e-13, 0)"/>
  <path fill="#55db7f" d="M 309.461 -352.341 L 307.891 -351.391 L 306.451 -350.481 L 305.101 -349.591 L 303.821 -348.711 L 302.621 -347.841 L 301.491 -346.971 L 300.421 -346.101 L 299.401 -345.221 L 298.431 -344.331 L 297.501 -343.421 L 296.631 -342.501 L 295.801 -341.561 L 295.021 -340.611 L 294.281 -339.641 L 293.581 -338.631 L 292.921 -337.611 L 292.441 -336.801 L 291.971 -335.971 L 291.531 -335.121 L 291.121 -334.251 L 290.721 -333.381 L 290.351 -332.481 L 290.011 -331.561 L 289.681 -330.621 C 289.488 -330.05 288.95 -329.669 288.351 -329.681 C 272.16 -329.974 255.883 -330.005 239.641 -329.771 C 238.593 -329.759 237.589 -329.348 236.831 -328.621 C 229.427 -321.537 221.878 -314.122 214.241 -306.431 C 212.304 -304.478 209.631 -302.149 206.241 -299.461 C 208.375 -304.813 210.146 -308.81 211.541 -311.421 L 212.681 -313.481 L 213.871 -315.511 L 215.101 -317.481 L 216.381 -319.421 L 217.701 -321.301 L 219.061 -323.121 L 220.461 -324.881 L 221.881 -326.581 L 223.341 -328.201 L 224.821 -329.761 L 226.321 -331.241 L 227.851 -332.651 L 229.401 -333.981 L 230.981 -335.241 L 232.571 -336.421 L 234.181 -337.521 C 237.856 -339.932 241.512 -342.17 245.121 -344.221 C 259.173 -352.211 274.164 -355.77 289.981 -354.871 C 295.692 -354.547 302.201 -353.702 309.461 -352.341 Z" transform="matrix(1, 0, 0, 1, -2.2737367544323206e-13, 0)"/>
  <path fill="#ffffff" d="M 351.201 -338.741 C 352.479 -334.52 352.806 -330.036 352.181 -325.321 C 351.269 -326.067 350.567 -327.12 350.081 -328.471 C 349.456 -330.211 348.964 -331.337 348.611 -331.841 C 346.58 -334.724 343.806 -336.485 340.311 -337.111 C 331.009 -338.796 323.075 -336.801 316.571 -331.141 C 314.227 -329.104 312.292 -326.741 310.781 -324.071 C 308.918 -320.776 307.782 -317.835 307.381 -315.271 C 307.168 -313.867 306.897 -312.5 306.571 -311.181 L 306.561 -311.161 L 306.481 -310.911 L 306.381 -310.671 L 306.251 -310.441 L 306.091 -310.211 L 305.901 -309.971 L 305.681 -309.731 L 305.041 -309.131 L 304.411 -308.531 L 303.991 -308.061 C 303.418 -307.329 302.74 -306.704 301.961 -306.191 L 300.581 -305.231 L 299.191 -304.191 L 297.791 -303.041 L 296.341 -301.781 L 294.871 -300.421 L 293.321 -298.901 L 291.621 -297.181 L 289.491 -294.961 L 288.841 -294.321 L 288.091 -293.661 L 287.241 -292.981 L 286.061 -292.081 L 284.741 -291.091 L 283.811 -290.321 L 283.001 -289.571 L 282.311 -288.831 L 281.171 -287.551 L 279.901 -286.231 L 278.471 -284.821 L 276.501 -282.941 L 274.321 -280.871 L 272.741 -279.291 C 271.962 -278.493 271.099 -277.731 270.161 -277.011 C 269.222 -276.292 268.34 -275.497 267.521 -274.631 C 266.103 -273.14 264.569 -271.87 262.931 -270.831 C 262.092 -270.299 261.36 -269.654 260.741 -268.901 C 259.902 -267.896 258.896 -266.934 257.731 -266.021 C 256.166 -264.803 254.629 -263.413 253.131 -261.861 C 252.001 -260.684 250.497 -259.29 248.631 -257.691 C 247.446 -256.679 246.306 -255.61 245.221 -254.491 L 244.411 -253.671 L 243.491 -252.791 L 242.451 -251.841 L 241.021 -250.561 L 239.371 -249.081 L 238.211 -247.991 L 237.201 -247.001 L 236.341 -246.081 C 235.755 -245.429 234.893 -245.225 233.761 -245.471 L 229.811 -248.951 L 300.381 -315.281 C 300.647 -315.521 300.794 -315.822 300.821 -316.181 C 301.533 -324.878 305.497 -332.073 312.681 -337.711 C 317.841 -341.76 323.736 -344.103 330.321 -344.721 C 338.618 -345.5 345.595 -343.501 351.201 -338.741 Z" transform="matrix(1, 0, 0, 1, -2.2737367544323206e-13, 0)"/>
  <path fill="#2b824a" d="M 351.201 -338.741 C 357.306 -332.831 359.949 -325.623 359.111 -317.171 C 357.928 -305.229 352.318 -296.591 342.321 -291.321 L 341.591 -290.961 L 340.821 -290.621 L 339.991 -290.311 L 339.111 -290.011 L 338.191 -289.741 L 337.161 -289.471 L 336.021 -289.201 L 334.451 -288.851 L 331.961 -288.281 C 331.388 -288.142 330.914 -287.884 330.541 -287.511 C 310.401 -267.477 289.796 -247.41 268.881 -227.461 L 266.881 -225.501 L 264.771 -223.331 L 262.501 -220.891 L 259.421 -217.501 L 258.351 -216.321 C 258.026 -215.966 257.466 -215.966 257.141 -216.321 C 247.746 -226.663 238.035 -236.437 228.081 -245.571 C 227.834 -245.798 227.768 -246.069 227.881 -246.381 C 228.28 -247.46 228.925 -248.319 229.811 -248.951 L 233.761 -245.471 L 255.081 -226.601 C 255.629 -226.123 256.451 -226.149 256.961 -226.661 C 267.857 -237.591 278.875 -248.462 289.931 -259.191 L 293.461 -262.581 L 297.371 -266.271 L 301.741 -270.341 L 307.761 -275.891 L 315.431 -282.981 L 320.991 -288.191 L 321.551 -288.701 L 322.171 -289.231 L 323.871 -290.591 L 325.331 -291.751 L 326.361 -292.631 L 327.081 -293.261 L 327.841 -293.891 L 328.641 -294.531 L 329.501 -295.191 L 331.401 -296.571 L 334.031 -298.401 L 336.241 -299.921 L 337.831 -301.061 L 339.241 -302.121 L 340.501 -303.131 L 341.681 -304.151 L 342.761 -305.161 L 343.741 -306.181 L 344.651 -307.221 C 348.985 -312.454 351.501 -318.503 352.181 -325.321 C 352.806 -330.036 352.479 -334.52 351.201 -338.741 Z" transform="matrix(1, 0, 0, 1, -2.2737367544323206e-13, 0)"/>
  <path fill="#55db7f" d="M 352.181 -325.321 C 351.501 -318.503 348.985 -312.454 344.651 -307.221 L 343.741 -306.181 L 342.761 -305.161 L 341.681 -304.151 L 340.501 -303.131 L 339.241 -302.121 L 337.831 -301.061 L 336.241 -299.921 L 334.031 -298.401 L 331.401 -296.571 L 329.501 -295.191 L 328.641 -294.531 L 327.841 -293.891 L 327.081 -293.261 L 326.361 -292.631 L 325.331 -291.751 L 323.871 -290.591 L 322.171 -289.231 L 321.551 -288.701 L 320.991 -288.191 L 315.431 -282.981 L 307.761 -275.891 L 301.741 -270.341 L 297.371 -266.271 L 293.461 -262.581 L 289.931 -259.191 C 278.875 -248.462 267.857 -237.591 256.961 -226.661 C 256.451 -226.149 255.629 -226.123 255.081 -226.601 L 233.761 -245.471 C 234.893 -245.225 235.755 -245.429 236.341 -246.081 L 237.201 -247.001 L 238.211 -247.991 L 239.371 -249.081 L 241.021 -250.561 L 242.451 -251.841 L 243.491 -252.791 L 244.411 -253.671 L 245.221 -254.491 C 246.306 -255.61 247.446 -256.679 248.631 -257.691 C 250.497 -259.29 252.001 -260.684 253.131 -261.861 C 254.629 -263.413 256.166 -264.803 257.731 -266.021 C 258.896 -266.934 259.902 -267.896 260.741 -268.901 C 261.36 -269.654 262.092 -270.299 262.931 -270.831 C 264.569 -271.87 266.103 -273.14 267.521 -274.631 C 268.34 -275.497 269.222 -276.292 270.161 -277.011 C 271.099 -277.731 271.962 -278.493 272.741 -279.291 L 274.321 -280.871 L 276.501 -282.941 L 278.471 -284.821 L 279.901 -286.231 L 281.171 -287.551 L 282.311 -288.831 L 283.001 -289.571 L 283.811 -290.321 L 284.741 -291.091 L 286.061 -292.081 L 287.241 -292.981 L 288.091 -293.661 L 288.841 -294.321 L 289.491 -294.961 L 291.621 -297.181 L 293.321 -298.901 L 294.871 -300.421 L 296.341 -301.781 L 297.791 -303.041 L 299.191 -304.191 L 300.581 -305.231 L 301.961 -306.191 C 302.74 -306.704 303.418 -307.329 303.991 -308.061 L 304.411 -308.531 L 305.041 -309.131 L 305.681 -309.731 L 305.901 -309.971 L 306.091 -310.211 L 306.251 -310.441 L 306.381 -310.671 L 306.481 -310.911 L 306.561 -311.161 L 306.571 -311.181 C 306.897 -312.5 307.168 -313.867 307.381 -315.271 C 307.782 -317.835 308.918 -320.776 310.781 -324.071 C 312.292 -326.741 314.227 -329.104 316.571 -331.141 C 323.075 -336.801 331.009 -338.796 340.311 -337.111 C 343.806 -336.485 346.58 -334.724 348.611 -331.841 C 348.964 -331.337 349.456 -330.211 350.081 -328.471 C 350.567 -327.12 351.269 -326.067 352.181 -325.321 Z" transform="matrix(1, 0, 0, 1, -2.2737367544323206e-13, 0)"/>
  <path fill="#ffffff" d="M 278.471 -310.121 C 268.163 -310.362 258.228 -310.181 248.741 -309.581 C 247.196 -309.482 245.883 -308.947 244.811 -307.981 L 243.011 -306.361 L 242.241 -305.761 L 241.451 -305.121 L 239.791 -303.691 L 237.981 -302.051 L 235.561 -299.751 L 233.841 -298.121 L 232.591 -296.951 L 231.461 -295.931 L 230.421 -295.031 C 225.72 -291.069 221.028 -286.645 216.381 -281.791 C 214.217 -279.544 210.317 -276.119 204.711 -271.541 L 199.581 -271.431 C 213.729 -286.065 228.282 -300.308 243.131 -314.051 C 243.977 -314.831 245.043 -315.222 246.321 -315.221 C 257.909 -315.241 269.979 -315.184 282.441 -315.051 C 283.345 -315.045 283.466 -314.734 282.801 -314.121 L 278.471 -310.121 Z" transform="matrix(1, 0, 0, 1, -2.2737367544323206e-13, 0)"/>
  <path fill="#55db7f" d="M 278.471 -310.121 C 265.273 -298.482 252.658 -286.529 240.721 -274.351 L 238.531 -272.611 C 238.278 -272.405 237.987 -272.291 237.661 -272.271 C 226.581 -271.486 215.57 -271.242 204.711 -271.541 C 210.317 -276.119 214.217 -279.544 216.381 -281.791 C 221.028 -286.645 225.72 -291.069 230.421 -295.031 L 231.461 -295.931 L 232.591 -296.951 L 233.841 -298.121 L 235.561 -299.751 L 237.981 -302.051 L 239.791 -303.691 L 241.451 -305.121 L 242.241 -305.761 L 243.011 -306.361 L 244.811 -307.981 C 245.883 -308.947 247.196 -309.482 248.741 -309.581 C 258.228 -310.181 268.163 -310.362 278.471 -310.121 Z" transform="matrix(1, 0, 0, 1, -2.2737367544323206e-13, 0)"/>
  <path fill="#2b824a" d="M 365.151 -288.571 C 362.727 -286.135 360.395 -283.685 358.171 -281.241 C 355.844 -278.675 352.091 -275.334 346.941 -271.241 C 346.014 -270.503 345.483 -269.774 345.351 -269.061 C 345.111 -267.79 344.984 -265.585 344.971 -262.461 L 345.021 -271.251 C 345.028 -272.073 345.384 -272.852 346.001 -273.391 C 351.274 -278.052 356.283 -282.868 360.991 -287.801 C 361.963 -288.82 363.049 -289.846 364.241 -290.871 C 364.514 -291.111 364.734 -291.071 364.901 -290.751 C 365.28 -290.012 365.364 -289.284 365.151 -288.571 Z" transform="matrix(1, 0, 0, 1, -2.2737367544323206e-13, 0)"/>
  <path fill="#55db7f" d="M 365.151 -288.571 C 367.289 -268.747 364.112 -250.104 355.641 -232.781 L 354.951 -231.401 L 354.221 -230.041 L 353.441 -228.681 L 352.641 -227.341 L 351.791 -225.991 L 350.901 -224.661 L 349.971 -223.331 L 349.021 -222.031 L 348.021 -220.721 L 346.991 -219.431 L 345.921 -218.161 L 344.821 -216.901 L 343.681 -215.651 L 342.521 -214.421 L 341.321 -213.211 L 340.091 -212.021 L 338.831 -210.841 L 337.541 -209.681 L 336.221 -208.541 L 334.881 -207.431 L 333.511 -206.341 L 332.121 -205.271 L 330.701 -204.231 L 329.261 -203.211 L 327.801 -202.221 L 326.331 -201.261 L 324.831 -200.331 L 323.331 -199.431 L 321.811 -198.561 L 320.281 -197.721 L 318.731 -196.911 L 317.181 -196.141 C 316.708 -195.915 316.521 -196.059 316.621 -196.571 C 316.674 -196.831 316.794 -197.055 316.981 -197.241 C 323.453 -203.943 330.925 -211.502 339.341 -219.861 L 340.061 -220.621 L 341.001 -221.731 L 342.091 -223.001 L 342.521 -223.461 L 342.941 -223.871 L 343.231 -224.161 L 343.491 -224.451 L 343.721 -224.761 L 343.921 -225.071 L 344.111 -225.451 L 344.271 -225.851 L 344.401 -226.281 L 344.501 -226.751 L 344.561 -227.231 L 344.611 -227.771 L 344.651 -229.231 L 344.651 -229.431 C 344.784 -240.445 344.891 -251.483 344.971 -262.461 C 344.984 -265.585 345.111 -267.79 345.351 -269.061 C 345.483 -269.774 346.014 -270.503 346.941 -271.241 C 352.091 -275.334 355.844 -278.675 358.171 -281.241 C 360.395 -283.685 362.727 -286.135 365.151 -288.571 Z" transform="matrix(1, 0, 0, 1, -2.2737367544323206e-13, 0)"/>
  <path fill="#2b824a" d="M 240.721 -274.351 C 239.169 -272.334 237.539 -270.409 235.841 -268.591 C 233.837 -266.441 231.498 -265.121 228.841 -264.641 C 228.123 -264.517 225.547 -264.514 221.131 -264.631 C 214.147 -264.818 206.24 -264.741 197.471 -264.401 C 196.645 -264.375 195.853 -264.475 195.101 -264.701 C 194.553 -264.874 194.361 -265.549 194.741 -265.971 L 199.581 -271.431 L 204.711 -271.541 C 215.57 -271.242 226.581 -271.486 237.661 -272.271 C 237.987 -272.291 238.278 -272.405 238.531 -272.611 L 240.721 -274.351 Z" transform="matrix(1, 0, 0, 1, -2.2737367544323206e-13, 0)"/>
  <path fill="#2b824a" d="M 281.031 -195.571 C 281.796 -195.971 282.498 -196.576 283.131 -197.381 C 284.063 -198.556 284.644 -199.258 284.871 -199.481 C 292.448 -207.166 300.201 -214.728 308.071 -222.111 C 310.388 -224.282 312.42 -226.354 314.151 -228.311 C 314.554 -228.76 315.757 -229.782 317.751 -231.371 C 319.163 -232.496 320.045 -233.746 320.391 -235.111 C 320.709 -236.358 320.953 -238.714 321.121 -242.161 L 321.191 -243.791 L 321.231 -245.561 L 321.291 -250.121 L 321.351 -254.921 L 321.411 -256.751 L 321.491 -258.441 C 321.577 -260.046 321.607 -261.73 321.581 -263.481 L 328.721 -270.451 C 328.903 -270.629 329.208 -270.542 329.271 -270.296 C 329.277 -270.272 329.28 -270.247 329.281 -270.221 C 329.333 -258.042 329.236 -246.266 328.991 -234.981 C 328.951 -233.17 328.239 -231.526 326.861 -230.061 C 323.691 -226.679 320.366 -223.354 316.911 -220.111 C 304.535 -208.516 292.826 -197.418 281.871 -186.901 C 281.606 -186.655 281.173 -186.788 281.093 -187.141 C 281.085 -187.174 281.081 -187.208 281.081 -187.241 L 281.031 -195.571 Z" transform="matrix(1, 0, 0, 1, -2.2737367544323206e-13, 0)"/>
  <path fill="#55db7f" d="M 321.581 -263.481 C 321.607 -261.73 321.577 -260.046 321.491 -258.441 L 321.411 -256.751 L 321.351 -254.921 L 321.291 -250.121 L 321.231 -245.561 L 321.191 -243.791 L 321.121 -242.161 C 320.953 -238.714 320.709 -236.358 320.391 -235.111 C 320.045 -233.746 319.163 -232.496 317.751 -231.371 C 315.757 -229.782 314.554 -228.76 314.151 -228.311 C 312.42 -226.354 310.388 -224.282 308.071 -222.111 C 300.201 -214.728 292.448 -207.166 284.871 -199.481 C 284.644 -199.258 284.063 -198.556 283.131 -197.381 C 282.498 -196.576 281.796 -195.971 281.031 -195.571 C 281.051 -204.525 281.111 -213.25 281.211 -221.681 L 281.241 -222.411 L 281.331 -223.101 L 281.481 -223.751 L 281.691 -224.371 L 281.971 -225.001 L 282.321 -225.611 L 282.751 -226.211 L 283.261 -226.811 C 284.972 -228.663 286.606 -230.32 288.151 -231.771 C 295.803 -238.992 303.479 -246.266 311.121 -253.541 C 314.469 -256.73 317.964 -260.051 321.581 -263.481 Z" transform="matrix(1, 0, 0, 1, -2.2737367544323206e-13, 0)"/>
  <path fill="#ffffff" d="M 224.821 -229.201 C 218.535 -224.388 213.379 -218.984 209.391 -213.031 C 207.13 -209.668 204.233 -204.943 200.721 -198.891 C 200.541 -198.578 200.294 -198.512 199.981 -198.691 C 199.687 -198.858 199.594 -199.215 199.701 -199.761 C 201.884 -212.963 207.989 -224.448 217.971 -234.131 C 218.416 -234.557 218.868 -234.564 219.321 -234.151 L 224.821 -229.201 Z" transform="matrix(1, 0, 0, 1, -2.2737367544323206e-13, 0)"/>
  <path fill="#55db7f" d="M 224.821 -229.201 L 236.621 -216.891 C 231.22 -211.525 225.399 -207.131 219.201 -203.741 C 213.023 -200.358 205.996 -197.254 198.171 -194.451 L 199.701 -199.761 C 199.594 -199.215 199.687 -198.858 199.981 -198.691 C 200.294 -198.512 200.541 -198.578 200.721 -198.891 C 204.233 -204.943 207.13 -209.668 209.391 -213.031 C 213.379 -218.984 218.535 -224.388 224.821 -229.201 Z" transform="matrix(1, 0, 0, 1, -2.2737367544323206e-13, 0)"/>
  <path fill="#2b824a" d="M 236.621 -216.891 L 240.931 -212.871 C 241.504 -212.338 241.577 -211.744 241.151 -211.091 C 238.621 -207.236 235.811 -203.854 232.741 -200.971 C 229.232 -197.676 224.981 -195.196 220.021 -193.551 C 212.636 -191.108 205.164 -189.848 197.661 -189.781 C 197.182 -189.781 196.795 -190.173 196.801 -190.651 C 196.842 -192.735 197.299 -194.004 198.171 -194.451 C 205.996 -197.254 213.023 -200.358 219.201 -203.741 C 225.399 -207.131 231.22 -211.525 236.621 -216.891 Z" transform="matrix(1, 0, 0, 1, -2.2737367544323206e-13, 0)"/>
  <path fill="#121b1a" d="M 400.941 -122.961 L 399.841 -123.091 L 398.751 -123.141 L 397.691 -123.121 L 396.641 -123.021 L 395.621 -122.851 L 394.621 -122.601 L 393.651 -122.291 L 392.711 -121.901 L 392.031 -121.551 L 391.371 -121.181 L 390.731 -120.761 L 390.121 -120.311 L 389.521 -119.821 L 388.951 -119.291 L 388.411 -118.731 L 387.901 -118.141 L 387.411 -117.521 L 386.961 -116.871 L 386.541 -116.181 L 386.151 -115.481 L 385.801 -114.751 L 385.491 -114.011 L 385.211 -113.251 L 384.981 -112.471 L 384.781 -111.691 L 384.621 -110.891 L 384.511 -110.091 L 384.431 -109.291 L 384.401 -108.491 L 384.411 -107.681 L 384.461 -106.891 L 384.551 -106.101 L 384.691 -105.331 L 384.861 -104.571 L 385.081 -103.821 L 385.331 -103.091 L 385.621 -102.381 L 385.961 -101.691 L 386.331 -101.021 L 386.741 -100.371 L 387.341 -99.541 L 388.011 -98.771 L 388.741 -98.031 L 389.531 -97.351 L 390.381 -96.721 L 391.281 -96.141 L 392.241 -95.621 L 393.251 -95.151 C 399.406 -92.547 405.194 -93.931 410.571 -99.291 C 410.997 -99.711 411.455 -99.751 411.941 -99.411 C 415.236 -97.127 418.431 -94.421 421.501 -91.311 C 421.719 -91.089 421.74 -90.742 421.551 -90.501 L 420.711 -89.471 L 419.841 -88.481 L 418.931 -87.531 L 417.991 -86.621 L 417.011 -85.761 L 416.011 -84.941 L 414.971 -84.171 L 413.911 -83.441 L 412.821 -82.761 L 411.701 -82.131 L 410.561 -81.541 L 409.401 -81.011 L 408.211 -80.531 L 407.011 -80.101 L 405.791 -79.721 L 404.561 -79.391 L 403.311 -79.121 L 402.051 -78.901 L 400.771 -78.741 L 399.501 -78.631 L 398.221 -78.581 L 396.941 -78.581 L 395.671 -78.641 L 394.401 -78.751 L 393.141 -78.921 L 391.881 -79.141 L 390.641 -79.421 L 389.411 -79.751 L 388.191 -80.141 L 386.991 -80.581 L 385.821 -81.071 L 384.671 -81.611 L 383.651 -82.151 L 382.641 -82.721 L 381.661 -83.341 L 380.701 -84.001 L 379.781 -84.691 L 378.871 -85.421 L 378.001 -86.191 L 377.151 -86.991 L 376.341 -87.831 L 375.551 -88.701 L 374.801 -89.611 L 374.071 -90.551 L 373.391 -91.521 L 372.731 -92.521 L 372.111 -93.551 L 371.521 -94.611 L 371.071 -95.501 L 370.621 -96.471 L 370.211 -97.451 L 369.841 -98.451 L 369.511 -99.461 L 369.211 -100.501 L 368.951 -101.541 L 368.731 -102.591 L 368.551 -103.651 L 368.411 -104.731 L 368.311 -105.811 L 368.251 -106.901 L 368.231 -107.991 L 368.241 -109.081 L 368.301 -110.181 L 368.401 -111.281 L 368.531 -112.371 L 368.711 -113.471 L 368.921 -114.561 L 369.171 -115.651 L 369.461 -116.721 L 369.791 -117.791 L 370.161 -118.851 L 370.561 -119.891 L 371.001 -120.921 L 371.481 -121.931 L 371.991 -122.931 L 372.531 -123.901 L 373.111 -124.861 L 373.721 -125.801 L 374.361 -126.711 L 375.031 -127.591 L 375.731 -128.451 C 382.383 -136.322 390.901 -139.754 401.221 -138.721 L 402.251 -138.601 L 403.261 -138.451 L 404.251 -138.261 L 405.221 -138.041 L 406.171 -137.781 L 407.111 -137.491 L 408.031 -137.171 L 408.931 -136.811 L 409.721 -136.461 L 410.501 -136.091 L 411.281 -135.681 L 412.041 -135.251 L 412.791 -134.791 L 413.531 -134.301 L 414.261 -133.781 L 414.991 -133.241 L 415.711 -132.651 L 416.431 -132.051 L 417.141 -131.401 L 417.841 -130.731 L 418.551 -130.021 L 419.241 -129.281 L 419.951 -128.501 L 420.641 -127.691 C 421.187 -127.039 421.464 -126.324 421.471 -125.551 C 421.471 -125.159 421.327 -124.831 421.041 -124.571 C 418.304 -122.035 415.343 -119.682 412.181 -117.531 C 411.861 -117.311 411.554 -117.328 411.261 -117.581 L 409.841 -118.741 L 409.171 -119.251 L 408.511 -119.731 L 407.861 -120.161 L 407.231 -120.571 L 406.601 -120.941 L 405.981 -121.281 L 405.351 -121.591 L 404.731 -121.871 L 404.101 -122.121 L 403.481 -122.351 L 402.851 -122.541 L 402.231 -122.711 L 401.601 -122.851 L 400.961 -122.961 L 400.941 -122.961 Z" transform="matrix(1, 0, 0, 1, -2.2737367544323206e-13, 0)"/>
  <path fill="#121b1a" d="M 442.571 -116.601 C 442.877 -116.675 443.141 -116.835 443.361 -117.081 C 451.106 -125.69 457.375 -132.287 462.121 -136.821 L 462.521 -137.171 L 462.961 -137.491 L 463.431 -137.771 L 463.951 -138.031 L 464.491 -138.251 L 465.071 -138.441 L 465.701 -138.601 L 466.351 -138.731 L 467.051 -138.831 L 467.771 -138.891 L 468.521 -138.921 L 469.291 -138.921 L 470.091 -138.881 L 470.901 -138.801 L 471.701 -138.701 L 472.491 -138.561 C 474.182 -138.235 475.495 -137.209 476.421 -135.491 L 476.571 -135.191 L 476.691 -134.881 L 476.781 -134.571 L 476.851 -134.261 L 476.901 -133.821 L 476.901 -133.391 L 476.861 -132.961 L 476.771 -132.501 L 476.631 -132.051 L 476.451 -131.581 L 476.221 -131.111 L 475.951 -130.621 L 475.631 -130.141 L 475.271 -129.641 L 474.861 -129.141 L 474.401 -128.621 L 473.891 -128.091 L 473.341 -127.541 L 471.971 -126.291 C 466.591 -121.531 461.468 -116.702 456.641 -111.841 C 456.381 -111.582 456.361 -111.305 456.581 -111.011 C 461.908 -103.98 467.889 -96.745 474.481 -89.361 L 474.841 -88.931 L 475.161 -88.501 L 475.461 -88.051 L 475.721 -87.601 L 475.951 -87.141 L 476.141 -86.681 L 476.291 -86.211 L 476.411 -85.741 L 476.501 -85.271 L 476.541 -84.801 L 476.551 -84.341 L 476.521 -83.891 L 476.461 -83.451 L 476.351 -83.011 L 476.211 -82.601 L 476.031 -82.191 L 475.871 -81.901 L 475.691 -81.621 L 475.501 -81.351 L 475.281 -81.081 L 475.041 -80.841 L 474.791 -80.611 L 474.511 -80.391 L 474.221 -80.181 L 473.911 -79.991 L 473.591 -79.811 L 472.901 -79.511 L 472.151 -79.261 L 471.341 -79.081 L 470.241 -78.911 L 469.221 -78.791 L 468.261 -78.741 L 467.361 -78.741 L 466.511 -78.801 L 465.711 -78.921 L 464.951 -79.111 L 464.221 -79.351 L 463.831 -79.511 L 463.451 -79.681 L 462.721 -80.091 L 461.991 -80.581 L 461.261 -81.161 L 460.521 -81.841 L 459.771 -82.621 L 458.961 -83.541 L 458.101 -84.601 C 453.94 -89.881 450.04 -94.864 446.431 -99.511 C 446.151 -99.871 445.84 -99.898 445.501 -99.591 L 444.301 -98.461 L 443.891 -98.021 L 443.531 -97.611 L 443.211 -97.211 L 442.931 -96.811 L 442.691 -96.401 L 442.491 -95.991 L 442.351 -95.631 L 442.231 -95.261 L 442.131 -94.881 L 442.051 -94.481 L 441.991 -94.061 L 441.951 -93.611 L 441.931 -92.651 L 441.991 -90.911 L 442.051 -89.381 L 442.061 -88.251 L 442.041 -87.231 L 441.971 -86.321 L 441.871 -85.441 L 441.711 -84.631 L 441.511 -83.871 L 441.261 -83.151 C 439.895 -79.741 436.831 -78.331 432.091 -78.931 L 431.411 -79.041 L 430.781 -79.181 L 430.191 -79.351 L 429.651 -79.561 L 429.151 -79.801 L 428.691 -80.081 L 428.271 -80.391 L 427.901 -80.741 L 427.671 -81.001 L 427.461 -81.261 L 427.271 -81.551 L 427.091 -81.861 L 426.931 -82.181 L 426.781 -82.521 L 426.651 -82.881 L 426.541 -83.251 L 426.351 -84.081 L 426.221 -84.991 L 426.141 -86.021 L 426.111 -87.181 C 426.105 -102.063 426.149 -116.137 426.241 -129.301 L 426.261 -130.071 L 426.291 -130.801 L 426.341 -131.481 L 426.421 -132.131 L 426.511 -132.741 L 426.621 -133.321 L 426.761 -133.881 L 426.911 -134.391 L 427.091 -134.881 L 427.291 -135.341 L 427.501 -135.761 L 427.751 -136.171 L 428.011 -136.541 L 428.291 -136.881 L 428.601 -137.191 L 428.931 -137.481 L 429.441 -137.831 L 429.981 -138.131 L 430.581 -138.381 L 431.221 -138.561 L 431.911 -138.691 L 432.641 -138.771 L 433.421 -138.791 L 434.251 -138.751 C 439.43 -138.361 442.013 -135.741 441.981 -130.911 C 441.954 -126.331 441.977 -121.679 442.051 -116.991 C 442.054 -116.727 442.308 -116.537 442.571 -116.601 Z" transform="matrix(1, 0, 0, 1, -2.2737367544323206e-13, 0)"/>
  <path fill="#121b1a" d="M 102.541 -98.801 C 103.085 -98.762 103.603 -98.541 104.011 -98.171 L 104.281 -97.931 L 105.411 -96.931 L 106.231 -96.251 L 106.991 -95.661 L 107.691 -95.181 L 108.411 -94.761 L 109.121 -94.411 L 109.831 -94.131 L 110.551 -93.921 L 111.201 -93.781 L 111.851 -93.701 L 112.531 -93.671 L 113.231 -93.681 L 113.761 -93.721 L 114.261 -93.801 L 114.761 -93.911 L 115.251 -94.051 L 115.711 -94.221 L 116.161 -94.431 L 116.591 -94.661 L 117.001 -94.921 L 117.371 -95.201 L 117.721 -95.501 L 118.051 -95.821 L 118.361 -96.161 L 118.641 -96.531 L 118.911 -96.921 L 119.151 -97.331 L 119.371 -97.751 L 119.561 -98.201 L 119.731 -98.661 L 119.871 -99.131 L 119.991 -99.621 L 120.081 -100.121 L 120.141 -100.631 L 120.181 -101.151 L 120.191 -101.681 C 120.104 -111.396 120.031 -121.168 119.971 -130.921 L 120.001 -131.801 L 120.101 -132.641 L 120.261 -133.431 L 120.501 -134.191 L 120.791 -134.891 L 120.971 -135.231 L 121.161 -135.551 L 121.371 -135.861 L 121.591 -136.161 L 121.831 -136.431 L 122.081 -136.701 L 122.521 -137.091 L 122.991 -137.451 L 123.501 -137.761 L 124.041 -138.031 L 124.611 -138.261 L 125.201 -138.441 L 125.821 -138.581 L 126.451 -138.671 L 127.101 -138.711 L 127.771 -138.711 L 128.451 -138.661 L 129.131 -138.561 L 129.821 -138.411 L 130.501 -138.221 L 131.181 -137.991 L 131.861 -137.711 C 134.558 -136.499 135.911 -134.193 135.911 -130.811 C 135.924 -120.108 135.927 -109.689 135.921 -99.631 L 135.911 -98.971 L 135.871 -98.311 L 135.821 -97.641 L 135.741 -96.981 L 135.631 -96.311 L 135.511 -95.661 L 135.361 -95.001 L 135.191 -94.351 L 135.001 -93.701 L 134.791 -93.061 L 134.561 -92.431 L 134.301 -91.801 L 134.031 -91.171 L 133.731 -90.561 L 133.411 -89.961 L 133.081 -89.361 L 132.721 -88.781 L 132.351 -88.211 L 131.961 -87.651 L 131.551 -87.101 L 131.131 -86.571 L 130.681 -86.061 L 130.231 -85.561 L 129.751 -85.071 L 129.271 -84.611 L 128.771 -84.161 L 128.251 -83.731 L 127.721 -83.311 L 127.181 -82.911 L 126.621 -82.531 L 126.061 -82.181 L 125.491 -81.841 L 124.711 -81.421 L 123.921 -81.031 L 123.091 -80.671 L 122.251 -80.331 L 121.381 -80.021 L 120.501 -79.741 L 119.601 -79.491 L 118.691 -79.261 L 117.761 -79.071 L 116.821 -78.911 L 115.871 -78.781 L 114.921 -78.681 L 113.971 -78.611 L 113.021 -78.581 L 112.061 -78.581 L 111.111 -78.601 L 110.171 -78.661 L 109.231 -78.761 L 108.311 -78.881 L 107.401 -79.031 L 106.511 -79.221 L 105.631 -79.431 L 104.771 -79.681 L 103.921 -79.951 L 103.101 -80.251 L 102.291 -80.581 L 101.511 -80.941 L 100.751 -81.331 L 100.021 -81.741 L 99.311 -82.181 L 98.641 -82.651 L 97.981 -83.141 L 97.381 -83.641 L 96.811 -84.181 L 96.281 -84.751 L 95.771 -85.351 L 95.321 -85.971 L 94.911 -86.611 L 94.541 -87.261 L 94.231 -87.921 L 93.981 -88.571 L 93.781 -89.221 L 93.631 -89.871 L 93.541 -90.511 L 93.511 -91.151 L 93.531 -91.771 L 93.611 -92.391 L 93.741 -92.981 L 93.891 -93.481 L 94.091 -93.971 L 94.331 -94.441 L 94.611 -94.911 C 96.456 -97.742 99.106 -99.042 102.541 -98.801 Z" transform="matrix(1, 0, 0, 1, -2.2737367544323206e-13, 0)"/>
  <path fill="#121b1a" d="M 348.861 -88.891 C 341.337 -89.098 333.979 -88.901 326.841 -88.301 C 326.039 -88.234 325.354 -87.695 325.101 -86.931 C 324.641 -85.547 324.053 -84.21 323.341 -82.931 L 323.141 -82.601 L 322.931 -82.281 L 322.701 -81.971 L 322.461 -81.681 L 322.061 -81.251 L 321.611 -80.851 L 321.141 -80.501 L 320.621 -80.171 L 320.071 -79.881 L 319.481 -79.621 L 318.861 -79.391 L 318.211 -79.201 L 317.521 -79.041 L 316.791 -78.921 L 316.041 -78.831 L 315.251 -78.781 L 314.441 -78.761 L 313.611 -78.781 L 312.751 -78.841 L 311.881 -78.931 L 311.241 -79.031 L 310.651 -79.171 L 310.111 -79.351 L 309.621 -79.561 L 309.171 -79.811 L 308.771 -80.091 L 308.421 -80.421 L 308.121 -80.771 L 307.921 -81.091 L 307.741 -81.421 L 307.601 -81.781 L 307.491 -82.161 L 307.421 -82.571 L 307.371 -82.991 L 307.361 -83.441 L 307.371 -83.891 L 307.421 -84.381 L 307.511 -84.891 L 307.621 -85.411 L 307.771 -85.951 L 307.951 -86.501 L 308.161 -87.071 L 308.391 -87.641 L 308.661 -88.221 C 314.846 -101.078 321.209 -115.708 327.701 -132.001 L 327.821 -132.311 L 328.421 -133.761 L 328.961 -134.901 L 329.231 -135.401 L 329.511 -135.871 L 329.781 -136.291 L 330.071 -136.681 L 330.361 -137.021 L 330.651 -137.321 L 330.951 -137.591 L 331.251 -137.811 L 331.561 -137.981 L 331.871 -138.121 L 332.181 -138.211 L 332.511 -138.261 L 332.791 -138.271 C 336.426 -138.185 340.172 -138.212 344.001 -138.351 C 344.81 -138.382 345.558 -137.92 345.891 -137.181 L 348.181 -132.021 L 350.631 -126.371 L 353.301 -120.111 L 356.901 -111.531 L 360.111 -103.881 L 362.481 -98.291 L 364.651 -93.231 L 366.681 -88.611 L 366.921 -88.051 L 367.121 -87.511 L 367.301 -86.971 L 367.451 -86.451 L 367.581 -85.941 L 367.671 -85.441 L 367.741 -84.971 L 367.781 -84.501 L 367.781 -84.051 L 367.761 -83.621 L 367.721 -83.211 L 367.641 -82.811 L 367.531 -82.441 L 367.401 -82.071 L 367.231 -81.741 L 367.041 -81.411 L 366.771 -81.041 L 366.451 -80.691 L 366.091 -80.381 L 365.691 -80.091 L 365.251 -79.831 L 364.761 -79.601 L 364.241 -79.401 L 363.671 -79.231 L 362.531 -78.961 L 361.971 -78.861 L 361.431 -78.781 L 360.901 -78.731 L 360.381 -78.691 L 359.871 -78.681 L 359.381 -78.691 L 358.891 -78.721 L 358.411 -78.781 L 357.951 -78.851 L 357.501 -78.951 L 357.061 -79.071 L 356.631 -79.211 L 356.211 -79.371 L 355.801 -79.561 L 355.301 -79.821 L 354.811 -80.131 L 354.341 -80.471 L 353.891 -80.841 L 353.451 -81.261 L 353.031 -81.711 L 352.621 -82.191 L 352.241 -82.711 L 351.871 -83.271 L 351.511 -83.871 L 351.171 -84.501 L 350.851 -85.171 L 350.551 -85.881 L 350.261 -86.621 L 349.981 -87.401 L 349.721 -88.231 C 349.594 -88.657 349.306 -88.878 348.861 -88.891 Z M 332.451 -103.631 C 332.227 -103.099 332.623 -102.512 333.201 -102.521 L 343.061 -102.621 C 343.638 -102.628 344.019 -103.225 343.781 -103.751 L 338.731 -115.001 C 338.471 -115.56 337.704 -115.628 337.351 -115.124 C 337.319 -115.079 337.292 -115.032 337.271 -114.981 L 332.451 -103.631 Z" transform="matrix(1, 0, 0, 1, -2.2737367544323206e-13, 0)"/>
  <path fill="#121b1a" d="M 160.231 -93.451 C 166.638 -93.491 172.944 -93.565 179.101 -93.671 C 181.799 -93.726 183.834 -93.469 185.191 -92.901 L 185.721 -92.651 L 186.231 -92.341 L 186.561 -92.091 L 186.871 -91.821 L 187.161 -91.531 L 187.431 -91.221 L 187.691 -90.871 L 187.921 -90.521 L 188.131 -90.131 L 188.321 -89.741 L 188.491 -89.321 L 188.631 -88.891 L 188.751 -88.441 L 188.841 -87.991 L 188.911 -87.521 L 188.951 -87.051 L 188.961 -86.581 L 188.951 -86.111 L 188.911 -85.641 L 188.841 -85.171 L 188.751 -84.701 L 188.641 -84.251 L 188.501 -83.801 L 188.331 -83.371 L 188.141 -82.961 L 187.931 -82.561 L 187.701 -82.191 L 187.451 -81.831 L 187.181 -81.501 L 186.891 -81.191 L 186.581 -80.911 L 186.261 -80.641 L 185.921 -80.411 L 185.561 -80.201 L 185.131 -79.991 C 183.639 -79.345 181.872 -79.031 179.841 -79.051 C 170.311 -79.138 160.593 -79.148 150.761 -79.081 L 150.281 -79.091 L 149.811 -79.111 L 149.351 -79.161 L 148.901 -79.231 L 148.471 -79.331 L 148.041 -79.441 L 147.641 -79.571 L 147.251 -79.721 L 146.881 -79.901 L 146.531 -80.091 L 146.201 -80.291 L 145.891 -80.521 L 145.601 -80.771 L 145.331 -81.031 L 145.091 -81.311 L 144.861 -81.611 L 144.641 -81.951 L 144.441 -82.321 L 144.281 -82.711 L 144.141 -83.111 L 144.041 -83.531 L 143.961 -83.961 L 143.911 -84.411 L 143.891 -84.881 C 143.658 -108.894 143.728 -124.884 144.101 -132.731 L 144.151 -133.381 L 144.241 -133.981 L 144.361 -134.541 L 144.511 -135.041 L 144.711 -135.511 L 144.931 -135.931 L 145.201 -136.311 L 145.501 -136.641 L 145.741 -136.861 L 146.001 -137.051 L 146.281 -137.231 L 146.581 -137.391 L 146.901 -137.531 L 147.251 -137.651 L 147.611 -137.761 L 148.011 -137.851 L 148.861 -137.971 L 149.851 -138.051 L 151.001 -138.071 L 152.661 -138.061 L 153.981 -138.041 C 164.249 -137.968 174.278 -137.931 183.991 -137.931 C 185.549 -137.932 186.906 -136.963 188.051 -135.031 C 189.137 -133.193 189.381 -130.931 188.781 -128.261 L 188.671 -127.851 L 188.551 -127.461 L 188.411 -127.081 L 188.241 -126.731 L 188.061 -126.391 L 187.861 -126.071 L 187.631 -125.761 L 187.391 -125.481 L 187.121 -125.211 L 186.841 -124.961 L 186.531 -124.721 L 186.201 -124.511 L 185.851 -124.311 L 185.481 -124.131 L 185.081 -123.971 L 184.671 -123.831 L 184.241 -123.711 L 183.781 -123.601 L 183.301 -123.511 L 182.791 -123.441 L 181.711 -123.351 L 180.511 -123.321 C 173.63 -123.348 166.803 -123.305 160.081 -123.191 C 159.434 -123.178 159.124 -122.851 159.151 -122.211 L 159.351 -116.211 C 159.371 -115.619 159.678 -115.318 160.271 -115.311 C 166.465 -115.225 172.717 -115.148 178.981 -115.081 L 179.781 -115.041 L 180.551 -114.941 L 181.271 -114.771 L 181.961 -114.551 L 182.611 -114.261 L 183.211 -113.911 L 183.761 -113.511 L 184.261 -113.051 L 184.721 -112.531 L 185.111 -111.951 L 185.441 -111.331 L 185.711 -110.671 L 185.911 -109.971 L 186.031 -109.251 L 186.081 -108.511 L 186.061 -107.771 L 185.961 -107.031 L 185.791 -106.311 L 185.551 -105.611 L 185.241 -104.941 L 184.871 -104.311 L 184.441 -103.731 L 183.951 -103.201 L 183.411 -102.731 L 182.941 -102.391 L 182.421 -102.091 L 181.891 -101.841 L 181.321 -101.621 L 180.721 -101.461 L 180.121 -101.341 L 179.481 -101.271 L 178.831 -101.241 C 172.338 -101.209 166.123 -101.192 160.231 -101.191 C 159.585 -101.191 159.261 -100.864 159.261 -100.211 L 159.261 -94.411 C 159.261 -93.772 159.585 -93.451 160.231 -93.451 Z" transform="matrix(1, 0, 0, 1, -2.2737367544323206e-13, 0)"/>
  <path fill="#121b1a" d="M 209.211 -122.741 C 209.211 -123.187 208.856 -123.551 208.411 -123.561 C 205.308 -123.648 202.097 -123.612 198.801 -123.451 L 198.081 -123.441 L 197.381 -123.471 L 196.731 -123.561 L 196.121 -123.701 L 195.541 -123.891 L 195.011 -124.121 L 194.521 -124.411 L 194.071 -124.741 L 193.711 -125.081 L 193.381 -125.441 L 193.081 -125.851 L 192.811 -126.291 L 192.581 -126.761 L 192.381 -127.281 L 192.211 -127.821 L 192.071 -128.401 L 191.971 -129.011 L 191.891 -129.671 L 191.861 -130.341 L 191.851 -131.051 L 191.881 -131.781 L 191.941 -132.531 L 192.041 -133.311 L 192.171 -134.101 L 192.281 -134.621 L 192.411 -135.091 L 192.571 -135.531 L 192.751 -135.931 L 192.961 -136.301 L 193.191 -136.621 L 193.441 -136.921 L 193.721 -137.171 L 194.111 -137.441 L 194.541 -137.671 L 195.031 -137.851 L 195.571 -137.981 L 196.151 -138.061 L 196.811 -138.111 L 197.571 -138.131 L 198.641 -138.111 L 199.661 -138.101 C 212.032 -138.055 224.079 -138.039 235.711 -138.051 L 236.881 -138.031 L 237.851 -137.961 L 238.721 -137.841 L 239.511 -137.661 L 239.891 -137.551 L 240.231 -137.431 L 240.571 -137.281 L 240.891 -137.121 L 241.191 -136.951 L 241.471 -136.761 L 241.741 -136.551 L 242.001 -136.321 L 242.191 -136.131 L 242.481 -135.801 L 242.751 -135.451 L 242.961 -135.141 L 243.151 -134.821 L 243.321 -134.491 L 243.481 -134.151 L 243.611 -133.801 L 243.731 -133.451 L 243.831 -133.081 L 243.911 -132.711 L 243.971 -132.331 L 244.011 -131.941 L 244.031 -131.171 L 243.971 -130.391 L 243.841 -129.611 L 243.621 -128.851 L 243.341 -128.121 L 242.981 -127.421 L 242.781 -127.091 L 242.561 -126.761 L 242.321 -126.461 L 242.071 -126.161 L 241.541 -125.621 L 241.251 -125.371 L 240.951 -125.141 L 240.641 -124.921 L 240.311 -124.721 L 239.811 -124.461 C 238.419 -123.802 236.772 -123.501 234.881 -123.561 C 231.565 -123.662 228.45 -123.638 225.561 -123.491 C 224.961 -123.465 224.657 -123.151 224.651 -122.551 C 224.558 -111.888 224.558 -101.038 224.651 -90.081 L 224.671 -88.961 L 224.691 -87.421 L 224.661 -86.311 L 224.591 -85.321 L 224.451 -84.441 L 224.361 -84.021 L 224.251 -83.621 L 224.131 -83.231 L 223.991 -82.861 L 223.831 -82.511 L 223.651 -82.171 L 223.451 -81.851 L 223.241 -81.541 L 222.821 -81.041 L 222.351 -80.581 L 221.811 -80.151 L 221.221 -79.771 L 220.541 -79.411 L 219.821 -79.121 L 219.061 -78.881 L 218.271 -78.711 L 217.471 -78.601 L 216.651 -78.561 L 215.841 -78.581 L 215.051 -78.681 L 214.291 -78.831 L 213.561 -79.051 L 212.871 -79.331 L 212.231 -79.671 L 211.641 -80.061 L 211.111 -80.501 L 210.641 -80.991 L 210.231 -81.531 L 209.991 -81.921 L 209.771 -82.341 L 209.591 -82.781 L 209.441 -83.241 L 209.331 -83.711 L 209.251 -84.211 L 209.201 -84.711 L 209.181 -85.241 C 209.193 -98.056 209.203 -110.582 209.211 -122.741 Z" transform="matrix(1, 0, 0, 1, -2.2737367544323206e-13, 0)"/>
  <path fill="#121b1a" d="M 281.781 -96.261 C 281.489 -96.246 281.261 -96.008 281.261 -95.721 C 281.221 -92.526 281.241 -89.255 281.321 -85.931 L 281.321 -85.371 L 281.281 -84.831 L 281.201 -84.301 L 281.091 -83.801 L 280.951 -83.301 L 280.771 -82.831 L 280.551 -82.371 L 280.301 -81.941 L 279.991 -81.501 L 279.651 -81.091 L 279.271 -80.701 L 278.861 -80.351 L 278.411 -80.011 L 277.931 -79.721 L 277.411 -79.451 L 276.871 -79.221 L 276.301 -79.021 L 275.711 -78.851 L 275.111 -78.731 L 274.481 -78.641 L 273.841 -78.581 L 273.191 -78.571 L 272.541 -78.591 L 271.871 -78.651 L 271.221 -78.741 L 270.611 -78.871 L 270.041 -79.031 L 269.521 -79.231 L 269.021 -79.461 L 268.561 -79.721 L 268.141 -80.021 L 267.751 -80.351 L 267.471 -80.641 L 267.211 -80.951 L 266.971 -81.291 L 266.761 -81.641 L 266.551 -82.031 L 266.381 -82.441 L 266.211 -82.871 L 266.071 -83.331 L 265.951 -83.811 L 265.841 -84.331 L 265.751 -84.881 L 265.681 -85.461 L 265.581 -86.741 L 265.541 -88.231 C 265.42 -106.04 265.417 -120.889 265.531 -132.671 L 265.551 -133.091 L 265.591 -133.501 L 265.661 -133.901 L 265.761 -134.301 L 265.881 -134.691 L 266.031 -135.071 L 266.201 -135.431 L 266.391 -135.781 L 266.601 -136.101 L 266.841 -136.411 L 267.091 -136.691 L 267.351 -136.951 L 267.641 -137.191 L 267.941 -137.401 L 268.261 -137.581 L 268.591 -137.741 L 269.051 -137.911 L 269.531 -138.021 L 270.021 -138.091 L 270.541 -138.101 C 277.572 -137.902 284.65 -137.872 291.721 -138.011 L 292.861 -138.021 L 293.991 -137.981 L 295.101 -137.911 L 296.181 -137.801 L 297.241 -137.651 L 298.281 -137.471 L 299.291 -137.251 L 300.281 -136.991 L 301.251 -136.691 L 302.201 -136.351 L 303.121 -135.981 L 304.011 -135.571 L 304.881 -135.121 L 305.721 -134.641 L 306.531 -134.121 L 307.321 -133.561 L 308.171 -132.891 L 309.001 -132.171 L 309.791 -131.401 L 310.551 -130.591 L 311.261 -129.741 L 311.941 -128.841 L 312.591 -127.891 L 313.201 -126.901 L 313.681 -126.041 L 314.101 -125.161 L 314.481 -124.261 L 314.811 -123.351 L 315.091 -122.471 L 315.311 -121.581 L 315.501 -120.681 L 315.641 -119.781 L 315.741 -118.861 L 315.791 -117.931 L 315.811 -117.001 L 315.771 -116.071 L 315.701 -115.141 L 315.581 -114.211 L 315.421 -113.281 L 315.211 -112.351 L 314.961 -111.441 L 314.671 -110.531 L 314.341 -109.641 L 313.981 -108.771 L 313.571 -107.911 L 313.121 -107.071 L 312.631 -106.251 L 312.111 -105.451 L 311.561 -104.671 L 310.961 -103.921 L 310.351 -103.211 L 309.691 -102.521 L 309.011 -101.871 L 308.301 -101.241 L 307.571 -100.651 L 306.811 -100.101 L 306.031 -99.591 L 305.231 -99.111 L 304.411 -98.671 L 303.561 -98.271 L 302.441 -97.811 L 301.871 -97.611 L 301.251 -97.421 L 300.621 -97.251 L 299.941 -97.101 L 299.231 -96.961 L 298.491 -96.841 L 296.871 -96.641 L 295.141 -96.511 L 293.191 -96.421 L 290.991 -96.371 L 287.961 -96.361 L 284.301 -96.351 L 282.961 -96.311 L 281.781 -96.261 Z M 281.091 -122.231 L 281.211 -111.431 C 281.216 -111.032 281.541 -110.711 281.941 -110.711 L 293.421 -110.831 C 296.974 -110.868 299.826 -113.519 299.791 -116.751 L 299.791 -117.311 C 299.755 -120.541 296.85 -123.128 293.301 -123.091 L 281.821 -122.971 C 281.414 -122.972 281.085 -122.639 281.091 -122.231 Z" transform="matrix(1, 0, 0, 1, -2.2737367544323206e-13, 0)"/>
  <path fill="#55db7f" d="M 280.931 -57.201 C 280.918 -55.853 281.349 -55.692 282.221 -56.721 L 289.921 -65.861 C 290.587 -66.647 291.392 -66.834 292.331 -66.421 L 294.291 -65.561 C 295.076 -65.215 295.19 -64.713 294.631 -64.061 L 287.921 -56.231 C 287.351 -55.566 287.355 -54.586 287.931 -53.931 L 294.861 -46.111 C 296.171 -44.627 295.884 -43.573 294.001 -42.961 C 293.455 -42.782 292.873 -42.678 292.261 -42.651 C 290.377 -42.571 288.903 -43.32 287.851 -44.891 L 284.001 -50.601 C 283.841 -50.838 283.592 -51.001 283.311 -51.051 C 282.399 -51.231 281.92 -50.913 281.881 -50.101 C 281.781 -48.37 281.737 -46.723 281.751 -45.171 C 281.757 -43.726 281.035 -42.991 279.591 -42.971 L 278.081 -42.961 C 276.47 -42.942 275.684 -43.738 275.731 -45.341 L 276.291 -65.021 C 276.304 -65.534 276.571 -65.795 277.091 -65.801 L 280.191 -65.801 C 280.64 -65.807 281.006 -65.437 281.001 -64.981 L 280.931 -57.201 Z" transform="matrix(1, 0, 0, 1, -2.2737367544323206e-13, 0)"/>
  <path fill="#55db7f" d="M 258.458 -42.776 C 252.207 -42.119 246.591 -46.814 245.913 -53.262 C 245.235 -59.71 249.753 -65.47 256.004 -66.127 C 262.254 -66.784 267.871 -62.089 268.548 -55.641 C 269.226 -49.193 264.708 -43.433 258.458 -42.776 Z M 256.887 -48.38 C 259.938 -48.225 262.559 -51.047 262.744 -54.682 C 262.928 -58.317 260.604 -61.389 257.554 -61.543 C 254.504 -61.698 251.882 -58.876 251.698 -55.241 C 251.514 -51.606 253.837 -48.534 256.887 -48.38 Z" transform="matrix(1, 0, 0, 1, -2.2737367544323206e-13, 0)"/>
  <path fill="#55db7f" d="M 333.051 -55.571 C 333.103 -52.71 333.264 -49.515 333.531 -46.011 C 333.67 -44.167 332.811 -43.218 330.961 -43.171 L 330.501 -43.161 C 328.623 -43.122 327.698 -44.044 327.731 -45.921 L 328.101 -65.171 C 328.107 -65.603 328.417 -65.971 328.841 -66.051 C 329.86 -66.238 330.802 -66.221 331.661 -66.001 C 331.987 -65.922 332.254 -65.751 332.461 -65.491 L 340.771 -55.081 C 341.776 -53.812 342.332 -53.989 342.431 -55.611 L 342.951 -64.221 C 343.004 -65.053 343.448 -65.495 344.281 -65.541 L 346.321 -65.661 C 347.24 -65.715 347.717 -65.278 347.751 -64.351 L 348.361 -44.461 C 348.371 -44.042 348.105 -43.669 347.711 -43.551 L 347.241 -43.421 L 346.791 -43.321 L 346.371 -43.251 L 345.951 -43.211 L 345.561 -43.201 L 345.171 -43.221 L 344.791 -43.271 L 344.431 -43.351 L 344.051 -43.471 L 343.671 -43.621 L 343.311 -43.811 L 342.951 -44.031 L 342.591 -44.301 L 342.231 -44.591 L 341.871 -44.941 L 341.501 -45.321 C 338.685 -48.431 336.111 -51.926 333.801 -55.781 C 333.282 -56.646 333.03 -56.576 333.051 -55.571 Z" transform="matrix(1, 0, 0, 1, -2.2737367544323206e-13, 0)"/>
  <path fill="#55db7f" d="M 308.681 -48.401 L 318.641 -48.481 C 319.124 -48.487 319.516 -48.094 319.511 -47.611 L 319.471 -44.061 C 319.465 -43.583 319.07 -43.2 318.591 -43.211 L 303.161 -43.481 C 302.686 -43.492 302.31 -43.886 302.321 -44.361 L 302.801 -64.851 C 302.811 -65.315 303.187 -65.686 303.651 -65.691 L 318.501 -65.901 C 318.992 -65.907 319.388 -65.502 319.371 -65.011 L 319.271 -61.551 C 319.26 -61.076 318.866 -60.7 318.391 -60.711 L 308.371 -60.971 C 307.884 -60.983 307.485 -60.588 307.491 -60.101 L 307.521 -57.601 C 307.526 -57.126 307.916 -56.746 308.391 -56.751 L 317.401 -56.811 C 317.88 -56.811 318.266 -56.42 318.261 -55.941 L 318.211 -53.001 C 318.205 -52.53 317.822 -52.151 317.351 -52.151 L 308.711 -52.171 C 308.24 -52.171 307.856 -51.793 307.851 -51.321 L 307.811 -49.271 C 307.805 -48.789 308.198 -48.396 308.681 -48.401 Z" transform="matrix(1, 0, 0, 1, -2.2737367544323206e-13, 0)"/>
  <path fill="#55db7f" d="M 227.931 -60.211 C 227.949 -60.598 227.627 -60.916 227.241 -60.891 L 221.661 -60.601 C 220.842 -60.562 220.468 -60.949 220.541 -61.761 L 220.771 -64.421 C 220.837 -65.154 221.242 -65.525 221.981 -65.531 L 239.471 -65.691 C 240.402 -65.699 240.793 -65.241 240.641 -64.321 L 240.381 -62.701 C 240.235 -61.803 239.707 -61.331 238.801 -61.291 L 235.111 -61.111 C 234.077 -61.058 233.265 -60.207 233.261 -59.171 L 233.241 -45.451 C 233.236 -44.359 232.458 -43.421 231.381 -43.211 C 231.034 -43.145 230.687 -43.095 230.341 -43.061 C 228.391 -42.875 227.435 -43.778 227.481 -45.761 C 227.621 -51.06 227.771 -55.889 227.931 -60.211 Z" transform="matrix(1, 0, 0, 1, -2.2737367544323206e-13, 0)"/>
  <rect x="15.435" y="149.267" width="980.138" height="594.308" style="stroke: rgb(0, 0, 0);" transform="matrix(1, 0, 0, 1, -2.2737367544323206e-13, 0)"/>
  <path fill="#ffffff" d="M 423.007 199.434 C 403.04 194.255 384.012 195.949 366.067 204.504 C 364.056 205.463 361.823 206.729 359.387 208.294 C 357.236 209.685 355.091 211.099 352.967 212.524 C 349.363 214.94 346.336 217.323 343.907 219.654 C 332.902 230.219 324.698 242.951 319.357 257.754 L 317.197 259.814 C 316.452 260.531 316.14 260.374 316.267 259.344 C 316.38 258.418 316.591 257.415 316.897 256.344 L 317.667 253.784 L 318.497 251.264 L 319.397 248.774 L 320.367 246.324 L 321.397 243.904 L 322.497 241.534 L 323.657 239.194 L 324.877 236.904 L 326.167 234.654 L 327.527 232.454 L 328.937 230.294 L 330.407 228.174 L 331.947 226.114 L 333.537 224.094 L 335.187 222.134 L 336.897 220.214 L 338.127 218.904 L 339.387 217.614 L 340.677 216.364 L 341.987 215.124 L 343.327 213.924 L 344.687 212.744 L 346.087 211.594 L 347.507 210.464 L 348.937 209.374 L 350.407 208.304 L 351.897 207.274 L 353.417 206.254 L 354.957 205.274 L 356.517 204.324 L 358.097 203.404 L 359.707 202.514 C 377.514 192.86 396.742 190.013 417.247 193.994 C 420.043 194.54 422.706 195.408 425.217 196.594 C 425.816 196.879 425.852 197.227 425.327 197.634 L 423.007 199.434 Z" transform="matrix(1, 0, 0, 1, -2.2737367544323206e-13, 0)"/>
  <path fill="#55db7f" d="M 423.007 199.434 C 416.475 203.715 411.689 209.172 408.687 215.764 C 408.439 216.317 407.887 216.673 407.277 216.674 C 393.76 216.68 379.96 216.673 365.977 216.654 C 363.946 216.647 362.148 217.322 360.597 218.674 C 358.02 220.924 355.5 223.243 353.057 225.614 C 344.204 234.214 335.322 242.965 326.477 251.804 C 324.772 253.515 322.392 255.503 319.357 257.754 C 324.698 242.951 332.902 230.219 343.907 219.654 C 346.336 217.323 349.363 214.94 352.967 212.524 C 355.091 211.099 357.236 209.685 359.387 208.294 C 361.823 206.729 364.056 205.463 366.067 204.504 C 384.012 195.949 403.04 194.255 423.007 199.434 Z" transform="matrix(1, 0, 0, 1, -2.2737367544323206e-13, 0)"/>
  <path fill="#ffffff" d="M 475.277 208.104 C 474.413 210.222 474.012 213.076 474.077 216.644 C 474.15 220.639 473.208 224.99 471.257 229.664 C 469.178 234.65 465.316 239.465 459.697 244.074 L 458.327 245.174 L 456.797 246.354 L 455.087 247.634 L 452.717 249.364 L 449.467 251.764 L 447.127 253.554 L 446.057 254.404 L 445.077 255.224 L 444.147 256.014 L 443.267 256.804 C 436.751 262.767 429.844 269.243 422.597 276.184 C 421.458 277.275 420.319 278.391 419.187 279.524 C 408.013 290.716 397.468 301.248 387.627 311.044 L 386.257 312.434 L 384.787 313.964 L 381.017 317.994 L 378.757 320.434 L 377.087 322.204 C 376.534 322.785 375.61 322.794 375.047 322.224 L 351.667 298.744 C 361.104 289.652 370.484 280.536 379.737 271.464 L 384.367 266.954 L 389.417 262.094 L 395.017 256.754 L 402.677 249.504 L 411.607 241.054 L 418.147 234.804 L 418.447 234.474 L 418.777 234.044 L 419.137 233.504 L 419.577 232.794 C 419.743 232.534 419.85 232.247 419.897 231.934 L 420.057 231.024 L 420.247 230.104 L 420.447 229.194 L 420.677 228.294 L 420.937 227.394 L 421.207 226.504 L 421.507 225.614 L 421.827 224.744 L 422.167 223.874 L 422.527 223.014 L 422.907 222.174 L 423.307 221.344 L 423.727 220.534 L 424.167 219.724 L 424.627 218.934 L 425.107 218.164 L 425.597 217.414 L 426.117 216.674 L 426.637 215.954 L 427.187 215.254 L 427.747 214.574 L 428.317 213.914 L 428.907 213.274 L 429.517 212.654 L 430.137 212.054 L 430.767 211.474 L 431.417 210.914 L 432.077 210.374 L 432.747 209.864 L 433.437 209.374 L 434.127 208.914 L 434.837 208.464 C 443.851 202.984 453.368 201.126 463.317 202.904 C 467.611 203.669 471.608 205.407 475.277 208.104 Z" transform="matrix(1, 0, 0, 1, -2.2737367544323206e-13, 0)"/>
  <path fill="#c7d2d6" d="M 475.277 208.104 C 479.485 215.343 481.049 223.009 479.957 231.044 L 479.767 232.314 L 479.517 233.584 L 479.237 234.854 L 478.907 236.104 L 478.537 237.354 L 478.117 238.594 L 477.667 239.814 L 477.167 241.024 L 476.627 242.214 L 476.047 243.374 L 475.437 244.514 L 474.787 245.634 L 474.097 246.714 L 473.377 247.764 L 472.637 248.784 L 471.847 249.774 L 471.047 250.714 L 470.217 251.614 L 469.357 252.474 L 468.467 253.304 L 467.567 254.084 L 466.637 254.824 L 465.687 255.514 L 464.707 256.164 L 463.727 256.774 L 462.717 257.334 L 461.697 257.844 L 460.657 258.304 L 459.607 258.724 L 458.537 259.094 L 457.457 259.414 L 456.357 259.684 L 455.037 259.944 L 453.707 260.134 L 452.347 260.254 L 450.987 260.304 C 450.152 260.316 449.351 260.645 448.747 261.224 C 424.806 284.206 401.157 307.835 377.977 331.934 C 377.635 332.284 377.074 332.288 376.727 331.944 L 348.317 303.094 C 348.05 302.82 348.05 302.543 348.317 302.264 L 351.667 298.744 L 375.047 322.224 C 375.61 322.794 376.534 322.785 377.087 322.204 L 378.757 320.434 L 381.017 317.994 L 384.787 313.964 L 386.257 312.434 L 387.627 311.044 C 397.468 301.248 408.013 290.716 419.187 279.524 C 420.319 278.391 421.458 277.275 422.597 276.184 C 429.844 269.243 436.751 262.767 443.267 256.804 L 444.147 256.014 L 445.077 255.224 L 446.057 254.404 L 447.127 253.554 L 449.467 251.764 L 452.717 249.364 L 455.087 247.634 L 456.797 246.354 L 458.327 245.174 L 459.697 244.074 C 465.316 239.465 469.178 234.65 471.257 229.664 C 473.208 224.99 474.15 220.639 474.077 216.644 C 474.012 213.076 474.413 210.222 475.277 208.104 Z" transform="matrix(1, 0, 0, 1, -2.2737367544323206e-13, 0)"/>
  <path fill="#ffffff" d="M 359.937 275.684 L 322.067 276.184 L 367.487 232.444 C 367.847 232.097 368.327 231.903 368.827 231.904 L 404.057 231.874 C 405.042 231.873 405.182 232.218 404.477 232.904 L 359.937 275.684 Z" transform="matrix(1, 0, 0, 1, -2.2737367544323206e-13, 0)"/>
  <path fill="#2b824a" d="M 483.417 264.064 C 482.311 264.004 481.469 264.278 480.897 264.884 C 476.156 269.884 471.518 274.255 467.017 277.964 C 466.43 278.451 465.404 279.547 463.947 281.244 C 463.727 281.503 463.613 281.804 463.607 282.144 L 463.487 291.354 C 463.374 288.038 463.364 284.709 463.457 281.394 C 463.531 278.704 464.419 276.672 466.117 275.314 L 468.067 273.754 C 472.741 269.279 477.459 264.888 482.187 260.614 C 482.476 260.348 482.944 260.496 483.029 260.88 C 483.032 260.894 483.035 260.909 483.037 260.924 L 483.417 264.064 Z" transform="matrix(1, 0, 0, 1, -2.2737367544323206e-13, 0)"/>
  <path fill="#55db7f" d="M 483.417 264.064 C 483.647 269.956 483.697 274.41 483.567 277.394 C 483.06 288.574 480.41 299.221 475.637 309.254 L 474.717 311.174 L 473.847 312.914 L 473.027 314.544 L 472.217 316.074 L 471.427 317.534 L 470.627 318.934 L 469.847 320.274 L 469.057 321.564 L 468.257 322.814 L 467.447 324.014 L 466.647 325.164 L 465.827 326.284 L 464.997 327.354 L 464.157 328.384 L 463.307 329.374 L 462.447 330.324 C 456.149 337.101 448.931 342.832 440.847 347.474 C 440.003 347.951 439.768 347.743 440.147 346.854 C 440.346 346.361 440.647 345.933 441.047 345.574 C 450.638 336.906 457.646 329.868 462.017 324.514 C 462.989 323.322 463.49 321.861 463.517 320.144 C 463.643 310.555 463.633 300.935 463.487 291.354 L 463.607 282.144 C 463.613 281.804 463.727 281.503 463.947 281.244 C 465.404 279.547 466.43 278.451 467.017 277.964 C 471.518 274.255 476.156 269.884 480.897 264.884 C 481.469 264.278 482.311 264.004 483.417 264.064 Z" transform="matrix(1, 0, 0, 1, -2.2737367544323206e-13, 0)"/>
  <path fill="#c7d2d6" d="M 359.937 275.684 L 352.547 282.594 C 352.161 282.953 351.699 283.133 351.167 283.134 C 339.733 283.127 328.041 283.164 316.177 283.244 C 315.909 283.25 315.67 283.083 315.587 282.834 C 315.553 282.734 315.627 282.593 315.807 282.414 C 318.004 280.176 320.096 278.094 322.067 276.184 L 359.937 275.684 Z" transform="matrix(1, 0, 0, 1, -2.2737367544323206e-13, 0)"/>
  <path fill="#c7d2d6" d="M 401.987 361.994 C 401.534 359.657 401.21 357.461 401.017 355.424 C 400.897 354.119 401.311 353.002 402.257 352.084 C 405.386 349.061 408.474 345.966 411.497 342.824 L 413.217 341.084 L 415.617 338.754 L 417.897 336.544 L 419.547 334.884 C 421.498 332.866 423.529 330.885 425.627 328.954 C 430.533 324.434 435.412 319.742 440.227 314.914 L 440.487 314.634 L 440.697 314.334 L 440.877 314.024 L 441.017 313.694 L 441.127 313.324 L 441.177 312.934 L 441.197 312.524 L 441.157 312.104 C 440.884 310.279 440.857 308.451 441.077 306.634 L 441.177 305.704 L 441.257 304.734 L 441.317 303.724 L 441.367 302.664 L 441.407 300.364 L 441.387 297.204 L 441.367 294.734 L 441.377 292.934 L 441.917 288.664 C 442.136 286.919 441.869 285.201 441.117 283.524 L 447.967 277.394 C 448.13 277.254 448.383 277.335 448.422 277.539 C 448.425 277.557 448.427 277.575 448.427 277.594 C 448.407 289.059 448.213 301.216 447.847 313.974 L 447.797 314.564 L 447.697 315.144 L 447.527 315.684 L 447.307 316.224 L 447.027 316.754 L 446.687 317.284 L 446.277 317.814 L 445.807 318.364 L 445.237 318.954 L 444.427 319.764 L 444.047 320.134 L 401.987 361.994 Z" transform="matrix(1, 0, 0, 1, -2.2737367544323206e-13, 0)"/>
  <path fill="#ffffff" d="M 441.117 283.524 C 441.869 285.201 442.136 286.919 441.917 288.664 L 441.377 292.934 L 441.367 294.734 L 441.387 297.204 L 441.407 300.364 L 441.367 302.664 L 441.317 303.724 L 441.257 304.734 L 441.177 305.704 L 441.077 306.634 C 440.857 308.451 440.884 310.279 441.157 312.104 L 441.197 312.524 L 441.177 312.934 L 441.127 313.324 L 441.017 313.694 L 440.877 314.024 L 440.697 314.334 L 440.487 314.634 L 440.227 314.914 C 435.412 319.742 430.533 324.434 425.627 328.954 C 423.529 330.885 421.498 332.866 419.547 334.884 L 417.897 336.544 L 415.617 338.754 L 413.217 341.084 L 411.497 342.824 C 408.474 345.966 405.386 349.061 402.257 352.084 C 401.311 353.002 400.897 354.119 401.017 355.424 C 401.21 357.461 401.534 359.657 401.987 361.994 L 400.317 363.324 C 400.025 363.555 399.881 363.485 399.887 363.114 L 400.097 323.894 C 400.097 323.6 400.216 323.318 400.427 323.114 L 441.117 283.524 Z" transform="matrix(1, 0, 0, 1, -2.2737367544323206e-13, 0)"/>
  <path fill="#ffffff" d="M 344.687 320.014 C 338.415 323.122 333.359 327.386 329.557 332.774 C 326.73 336.78 323.131 342.505 318.787 349.904 C 320.331 341.435 323.061 333.705 326.957 326.774 C 329.687 321.906 333.169 317.645 337.377 314.024 C 337.636 313.798 337.894 313.801 338.147 314.034 L 344.687 320.014 Z" transform="matrix(1, 0, 0, 1, -2.2737367544323206e-13, 0)"/>
  <path fill="#55db7f" d="M 344.687 320.014 L 357.097 332.784 C 354.547 334.914 352.014 337.02 349.517 339.084 C 342.513 344.896 334.817 349.23 326.487 352.054 L 325.447 352.434 L 324.317 352.874 L 323.087 353.394 L 321.427 354.134 L 319.437 355.024 L 317.957 355.634 C 317.677 355.745 317.355 355.603 317.237 355.314 C 317.123 355.014 317.123 354.64 317.237 354.194 C 317.542 351.567 318.06 350.134 318.787 349.904 C 323.131 342.505 326.73 336.78 329.557 332.774 C 333.359 327.386 338.415 323.122 344.687 320.014 Z" transform="matrix(1, 0, 0, 1, -2.2737367544323206e-13, 0)"/>
  <path fill="#2b824a" d="M 357.097 332.784 L 361.597 337.774 C 362.103 338.332 362.139 338.924 361.707 339.544 C 357.453 345.622 352.079 350.471 345.627 354.054 C 341.399 356.397 336.895 357.931 332.147 358.644 C 326.793 359.449 321.801 359.72 317.207 359.454 C 316.368 359.407 316.047 358.975 316.247 358.164 L 317.237 354.194 C 317.123 354.64 317.123 355.014 317.237 355.314 C 317.355 355.603 317.677 355.745 317.957 355.634 L 319.437 355.024 L 321.427 354.134 L 323.087 353.394 L 324.317 352.874 L 325.447 352.434 L 326.487 352.054 C 334.817 349.23 342.513 344.896 349.517 339.084 C 352.014 337.02 354.547 334.914 357.097 332.784 Z" transform="matrix(1, 0, 0, 1, -2.2737367544323206e-13, 0)"/>
  <path fill="#ffffff" d="M 519.877 401.314 C 523.784 402.845 527.453 405.515 530.857 409.304 C 531.096 409.576 531.079 409.834 530.807 410.074 L 521.157 418.414 C 520.711 418.794 520.03 418.685 519.727 418.184 L 519.307 417.544 L 518.847 416.934 L 518.357 416.364 L 517.827 415.824 L 517.447 415.484 L 517.057 415.164 L 516.647 414.854 L 516.227 414.564 L 515.787 414.294 L 515.337 414.044 L 514.877 413.814 L 514.397 413.594 L 513.917 413.404 L 513.417 413.224 L 512.907 413.074 L 512.387 412.934 L 511.857 412.824 L 511.327 412.734 L 510.797 412.664 L 510.257 412.614 L 509.707 412.584 L 509.147 412.574 L 508.597 412.584 L 508.047 412.624 L 507.487 412.674 L 506.937 412.754 L 506.387 412.854 L 505.837 412.974 L 505.307 413.114 L 504.777 413.274 L 504.247 413.464 L 503.737 413.664 L 503.227 413.884 L 502.737 414.114 L 502.257 414.374 L 501.787 414.654 L 500.867 415.264 L 499.997 415.944 L 499.187 416.674 L 498.437 417.454 L 497.887 418.104 L 497.387 418.774 L 496.917 419.484 L 496.487 420.214 L 496.097 420.974 L 495.757 421.764 L 495.447 422.564 L 495.187 423.394 L 494.957 424.234 L 494.787 425.094 L 494.657 425.974 L 494.567 426.844 L 494.527 427.734 L 494.527 428.624 L 494.587 429.514 L 494.677 430.384 L 494.817 431.264 L 495.007 432.124 L 495.237 432.974 L 495.507 433.804 L 495.827 434.614 L 496.187 435.404 L 496.577 436.164 L 497.017 436.894 L 497.487 437.584 L 497.987 438.254 L 498.527 438.874 L 499.107 439.474 L 499.707 440.014 L 500.337 440.524 L 500.997 440.994 L 501.687 441.424 L 502.507 441.864 L 503.357 442.234 L 504.257 442.554 L 505.167 442.814 L 506.107 443.014 L 507.067 443.144 L 508.057 443.224 L 509.067 443.234 C 513.687 443.147 517.407 441.062 520.197 436.994 C 520.41 436.674 520.667 436.64 520.967 436.894 L 530.517 445.014 C 530.809 445.26 530.836 445.534 530.597 445.834 L 530.017 446.534 L 529.417 447.214 L 528.807 447.874 L 528.177 448.514 L 527.537 449.134 L 526.887 449.724 L 526.207 450.304 L 525.527 450.854 L 524.827 451.384 L 524.127 451.884 L 523.397 452.374 L 522.667 452.834 L 521.917 453.264 L 521.167 453.674 L 520.397 454.064 L 519.617 454.424 L 518.827 454.764 L 518.037 455.084 L 517.227 455.364 L 516.427 455.624 L 515.607 455.864 L 514.777 456.074 L 513.957 456.254 L 513.127 456.414 L 512.287 456.544 L 511.447 456.644 L 510.597 456.724 L 509.757 456.774 L 508.907 456.794 L 508.067 456.794 L 507.227 456.754 L 506.387 456.704 L 505.597 456.624 L 504.817 456.514 L 504.047 456.394 L 503.267 456.244 L 502.507 456.074 L 501.747 455.884 L 500.987 455.664 L 500.237 455.424 L 499.497 455.164 L 498.767 454.884 L 498.037 454.574 L 497.317 454.244 L 496.607 453.904 L 495.907 453.534 L 495.207 453.144 L 494.527 452.724 L 493.857 452.294 L 493.197 451.844 L 492.547 451.374 L 491.917 450.884 L 491.297 450.374 L 490.677 449.844 L 490.087 449.294 L 489.497 448.724 L 488.927 448.144 L 488.367 447.544 L 487.827 446.924 L 487.307 446.294 L 486.787 445.634 L 486.287 444.964 L 485.807 444.274 L 485.337 443.574 C 480.064 435.431 479.376 426.135 483.277 415.754 C 484.236 413.204 485.773 410.824 487.877 408.634 C 497.106 399.019 507.8 396.573 519.877 401.314 Z" transform="matrix(1, 0, 0, 1, -2.2737367544323206e-13, 0)"/>
  <path fill="#ffffff" d="M 252.997 446.044 L 252.647 446.714 L 252.267 447.374 L 251.857 448.014 L 251.427 448.624 L 250.717 449.534 L 249.947 450.404 L 249.127 451.224 L 248.247 451.994 L 247.317 452.714 L 246.327 453.384 L 245.307 453.984 L 244.227 454.544 L 243.107 455.044 L 241.957 455.484 L 240.777 455.864 L 239.567 456.174 L 238.327 456.424 L 237.067 456.604 L 235.797 456.724 L 234.517 456.774 L 233.237 456.754 L 231.957 456.674 L 230.687 456.524 L 229.417 456.314 L 228.187 456.034 L 226.977 455.684 L 225.797 455.274 L 224.637 454.804 L 223.537 454.284 L 222.467 453.694 L 221.437 453.054 L 220.467 452.364 L 219.537 451.614 L 218.667 450.824 L 217.847 449.984 L 217.087 449.094 L 216.667 448.544 L 216.317 447.994 L 216.017 447.444 L 215.787 446.914 L 215.607 446.364 L 215.487 445.834 L 215.417 445.304 L 215.417 444.774 L 215.467 444.284 L 215.557 443.804 L 215.697 443.334 L 215.887 442.854 L 216.127 442.384 L 216.417 441.904 L 216.757 441.434 L 217.137 440.974 L 217.577 440.504 L 218.047 440.044 L 218.587 439.574 L 219.167 439.114 L 219.797 438.644 L 220.487 438.174 L 221.217 437.704 L 222.037 437.214 C 222.731 436.806 223.621 436.997 224.087 437.654 L 224.947 438.804 L 225.357 439.314 L 225.777 439.794 L 226.187 440.234 L 226.607 440.644 L 227.027 441.024 L 227.457 441.374 L 227.877 441.694 L 228.307 441.974 L 228.747 442.234 L 229.187 442.464 L 229.627 442.654 L 230.077 442.824 L 230.527 442.964 L 230.997 443.074 L 231.497 443.154 L 232.007 443.204 L 232.527 443.224 L 233.057 443.204 L 234.177 443.094 L 235.207 442.924 L 236.167 442.694 L 236.617 442.564 L 237.057 442.404 L 237.467 442.244 L 237.867 442.054 L 238.247 441.854 L 238.617 441.644 L 238.957 441.414 L 239.287 441.174 L 239.607 440.904 L 239.897 440.624 L 240.267 440.234 L 240.597 439.824 L 240.907 439.374 L 241.187 438.904 L 241.447 438.394 L 241.677 437.854 L 241.877 437.294 L 242.067 436.684 L 242.217 436.044 L 242.357 435.364 L 242.467 434.654 L 242.557 433.904 L 242.617 433.104 L 242.667 432.254 L 242.697 431.334 L 242.697 430.364 C 242.65 421.519 242.667 412.75 242.747 404.124 L 242.787 403.554 L 242.897 403.014 L 243.067 402.494 L 243.307 402.014 L 243.467 401.774 L 243.637 401.534 L 244.017 401.114 L 244.457 400.734 L 244.947 400.424 L 245.487 400.174 L 246.057 399.994 L 246.657 399.894 L 247.277 399.854 L 248.117 399.854 L 249.267 399.844 L 250.107 399.874 L 250.837 399.944 L 251.497 400.054 L 252.107 400.214 L 252.657 400.424 L 253.157 400.694 L 253.597 401.014 L 253.957 401.344 L 254.277 401.724 L 254.567 402.154 L 254.817 402.624 C 255.276 403.589 255.51 404.789 255.517 406.214 C 255.569 416.945 255.572 426.967 255.527 436.204 C 255.513 439.412 254.668 442.701 252.997 446.044 Z" transform="matrix(1, 0, 0, 1, -2.2737367544323206e-13, 0)"/>
  <path fill="#ffffff" d="M 439.297 447.684 C 438.345 449.494 437.362 451.446 436.357 453.524 L 435.977 454.214 L 435.787 454.504 L 435.597 454.754 L 435.397 454.984 L 435.187 455.184 L 434.967 455.364 L 434.727 455.514 L 434.387 455.694 L 433.997 455.824 L 433.587 455.914 L 433.137 455.964 C 430.32 456.13 427.811 456.163 425.627 456.064 C 424.554 456.017 423.675 455.442 422.997 454.344 L 422.877 454.124 L 422.777 453.884 L 422.707 453.634 L 422.657 453.364 L 422.627 453.074 L 422.627 452.764 L 422.647 452.454 L 422.687 452.104 L 422.837 451.384 L 423.077 450.584 L 423.407 449.714 L 423.857 448.704 C 430.876 433.701 437.519 418.71 443.737 403.844 C 444.269 402.572 445.095 401.449 446.207 400.484 C 446.48 400.251 446.794 400.124 447.147 400.104 C 449.45 399.997 451.683 399.977 453.827 400.044 L 454.167 400.074 L 454.507 400.134 L 454.847 400.224 L 455.177 400.354 L 455.517 400.514 L 455.847 400.704 L 456.187 400.924 L 456.497 401.174 L 456.817 401.464 L 457.137 401.784 L 457.437 402.124 L 457.727 402.494 L 458.007 402.874 L 458.267 403.294 L 458.507 403.714 L 458.717 404.134 C 465.595 418.934 472.405 434.249 479.097 449.964 L 479.347 450.614 L 479.547 451.234 L 479.667 451.804 L 479.737 452.354 L 479.737 452.874 L 479.677 453.334 L 479.547 453.774 L 479.367 454.174 L 479.157 454.494 L 478.897 454.794 L 478.587 455.054 L 478.227 455.294 L 477.827 455.504 L 477.367 455.694 L 476.877 455.854 L 476.327 455.984 L 475.747 456.094 L 475.107 456.174 L 474.427 456.234 L 473.687 456.264 L 472.917 456.274 L 472.067 456.264 L 469.957 456.154 L 468.697 456.094 C 468.357 456.08 468.056 455.973 467.797 455.774 L 467.487 455.514 L 467.187 455.234 L 466.897 454.924 L 466.607 454.574 L 466.327 454.194 L 466.047 453.784 L 465.787 453.344 L 465.517 452.864 L 465.017 451.834 L 464.517 450.654 L 464.027 449.334 L 463.457 447.594 L 463.427 447.514 C 463.294 447.094 463.003 446.883 462.557 446.884 L 440.527 446.934 C 439.967 446.934 439.556 447.184 439.297 447.684 Z M 445.237 433.614 C 445.158 433.82 445.315 434.041 445.537 434.034 L 457.477 433.744 C 457.702 433.742 457.851 433.508 457.757 433.304 L 451.447 419.614 C 451.349 419.396 451.052 419.365 450.913 419.559 C 450.898 419.579 450.886 419.601 450.877 419.624 L 445.237 433.614 Z" transform="matrix(1, 0, 0, 1, -2.2737367544323206e-13, 0)"/>
  <path fill="#ffffff" d="M 551.217 422.574 C 551.467 422.771 551.825 422.744 552.037 422.514 C 558.744 415.165 565.08 408.498 570.997 402.564 L 571.437 402.144 L 571.857 401.774 L 572.257 401.444 L 572.647 401.164 L 573.037 400.914 L 573.427 400.704 L 573.827 400.524 L 574.237 400.374 L 574.727 400.244 L 575.257 400.154 L 575.797 400.104 L 576.367 400.094 C 578.863 400.16 581.216 400.16 583.407 400.094 L 583.887 400.124 L 584.377 400.224 L 584.887 400.404 L 585.367 400.654 L 585.817 400.964 L 586.227 401.314 L 586.567 401.704 L 586.827 402.114 C 587.201 402.832 587.058 403.71 586.477 404.274 C 579.293 411.171 572.442 418.409 565.977 425.934 C 565.857 426.08 565.857 426.224 565.977 426.364 C 573.03 434.362 580.181 442.462 587.377 450.604 L 587.577 450.844 L 587.747 451.094 L 587.897 451.344 L 588.007 451.594 L 588.107 451.854 L 588.167 452.104 L 588.207 452.374 L 588.217 452.634 L 588.197 452.944 L 588.137 453.244 L 588.037 453.544 L 587.907 453.834 L 587.737 454.124 L 587.527 454.394 L 587.287 454.664 L 587.027 454.904 L 586.727 455.124 L 586.407 455.334 L 586.077 455.504 L 585.717 455.654 L 585.357 455.774 L 584.987 455.854 L 584.617 455.914 L 584.247 455.934 C 581.404 455.98 578.557 455.957 575.727 455.864 C 574.868 455.839 574.06 455.445 573.507 454.784 L 557.467 435.464 C 557.257 435.205 556.862 435.201 556.637 435.454 L 551.607 441.134 C 551.108 441.699 550.857 442.364 550.857 443.124 L 550.837 452.064 C 550.83 454.023 549.338 455.658 547.387 455.844 L 546.777 455.904 L 545.007 456.074 L 544.287 456.114 L 543.627 456.134 L 542.987 456.124 L 542.387 456.094 L 541.837 456.044 L 541.317 455.964 L 540.827 455.864 L 540.377 455.734 L 539.957 455.574 L 539.577 455.394 L 539.227 455.184 L 538.927 454.954 L 538.667 454.694 L 538.427 454.404 L 538.287 454.174 L 538.157 453.934 L 538.057 453.684 L 537.967 453.414 L 537.897 453.134 L 537.847 452.834 L 537.827 452.524 L 537.817 452.194 C 537.943 436.355 537.957 420.388 537.857 404.414 L 537.887 403.784 L 537.987 403.164 L 538.157 402.584 L 538.397 402.044 L 538.697 401.544 L 538.867 401.314 L 539.057 401.104 L 539.257 400.904 L 539.467 400.724 L 539.687 400.554 L 539.927 400.404 L 540.357 400.194 L 540.827 400.034 L 541.317 399.934 L 541.837 399.894 L 541.897 399.894 L 543.467 399.874 L 544.587 399.894 L 545.567 399.974 L 546.427 400.104 L 546.837 400.194 L 547.217 400.304 L 547.577 400.434 L 547.927 400.574 L 548.247 400.734 L 548.557 400.924 L 548.847 401.114 L 549.127 401.334 L 549.417 401.614 L 549.697 401.924 L 549.947 402.264 L 550.177 402.624 L 550.387 403.014 L 550.577 403.444 L 550.737 403.894 L 550.887 404.374 C 550.92 404.353 550.964 406.192 551.017 409.874 C 551.084 414.118 551.12 418.222 551.127 422.154 C 551.127 422.387 551.157 422.527 551.217 422.574 Z" transform="matrix(1, 0, 0, 1, -2.2737367544323206e-13, 0)"/>
  <path fill="#ffffff" d="M 279.627 434.174 C 279.242 434.173 278.931 434.489 278.937 434.874 L 279.017 442.164 C 279.016 442.59 279.23 442.8 279.657 442.794 C 287.086 442.707 294.568 442.657 302.047 442.644 L 302.887 442.664 L 303.647 442.714 L 304.317 442.814 L 304.927 442.954 L 305.457 443.134 L 305.927 443.354 L 306.337 443.624 L 306.677 443.944 L 306.967 444.294 L 307.207 444.714 L 307.407 445.204 L 307.557 445.754 L 307.667 446.364 L 307.747 447.074 L 307.807 447.924 L 307.857 449.174 L 307.897 450.204 L 307.897 450.634 L 307.877 451.064 L 307.827 451.484 L 307.757 451.894 L 307.657 452.294 L 307.527 452.694 L 307.377 453.064 L 307.197 453.434 L 306.997 453.774 L 306.787 454.094 L 306.537 454.394 L 306.277 454.674 L 305.997 454.924 L 305.697 455.154 L 305.387 455.364 L 305.067 455.534 L 304.597 455.734 L 304.107 455.874 L 303.597 455.964 L 303.057 455.994 C 293.597 456.072 283.012 456.129 271.377 456.164 L 270.927 456.154 L 270.497 456.104 L 270.047 456.034 L 269.617 455.924 L 269.207 455.794 L 268.797 455.624 L 268.417 455.434 L 268.047 455.214 L 267.697 454.974 L 267.377 454.714 L 267.077 454.434 L 266.807 454.124 L 266.567 453.804 L 266.357 453.464 L 266.177 453.114 L 266.027 452.744 L 265.907 452.364 L 265.827 451.984 L 265.777 451.584 L 265.757 451.184 C 265.69 436.39 265.777 421.035 266.017 405.234 L 266.057 404.674 L 266.147 404.124 L 266.287 403.594 L 266.487 403.094 L 266.727 402.624 L 267.027 402.184 L 267.367 401.774 L 267.747 401.414 L 268.097 401.144 L 268.467 400.904 L 268.847 400.714 L 269.257 400.544 L 269.677 400.414 L 270.127 400.324 L 270.577 400.264 L 271.037 400.244 C 281.257 400.224 291.586 400.174 301.947 400.094 L 302.887 400.124 L 303.777 400.224 L 304.197 400.294 L 304.607 400.394 L 304.997 400.504 L 305.377 400.634 L 305.737 400.774 L 306.077 400.934 L 306.407 401.114 L 306.717 401.314 L 307.007 401.524 L 307.287 401.754 L 307.537 402.004 L 307.777 402.264 L 308.007 402.544 L 308.207 402.834 L 308.387 403.144 L 308.557 403.474 L 308.707 403.804 L 308.827 404.154 L 308.937 404.524 L 309.027 404.904 L 309.097 405.294 L 309.147 405.694 L 309.177 406.114 L 309.187 406.544 L 309.147 407.434 L 309.027 408.384 L 308.897 408.994 L 308.707 409.584 L 308.467 410.134 L 308.157 410.644 L 307.927 410.964 L 307.667 411.264 L 307.387 411.554 L 307.087 411.814 L 306.757 412.064 L 306.407 412.294 L 306.037 412.504 L 305.647 412.694 L 305.237 412.864 L 304.807 413.004 L 304.367 413.134 L 303.907 413.234 L 303.427 413.314 L 302.947 413.374 L 302.447 413.414 L 301.937 413.424 C 294.204 413.416 286.898 413.426 280.077 413.454 C 279.251 413.46 278.837 413.875 278.837 414.694 L 278.837 420.934 C 278.831 422.092 279.412 422.664 280.577 422.644 C 284.719 422.57 288.932 422.577 293.187 422.664 C 294.885 422.697 296.392 423.191 297.697 424.144 L 298.097 424.474 L 298.437 424.854 L 298.617 425.094 L 298.767 425.354 L 298.897 425.624 L 299.017 425.904 L 299.117 426.214 L 299.187 426.534 L 299.247 426.864 L 299.287 427.214 L 299.307 427.964 L 299.247 428.774 L 299.117 429.664 L 298.907 430.694 L 298.797 431.134 L 298.667 431.534 L 298.517 431.904 L 298.357 432.234 L 298.167 432.544 L 297.967 432.824 L 297.747 433.074 L 297.507 433.284 L 297.137 433.544 L 296.727 433.744 L 296.257 433.914 L 295.737 434.034 L 295.167 434.114 L 294.507 434.154 L 293.737 434.174 L 292.627 434.164 L 291.767 434.154 C 287.562 434.127 283.505 434.134 279.627 434.174 Z" transform="matrix(1, 0, 0, 1, -2.2737367544323206e-13, 0)"/>
  <path fill="#ffffff" d="M 340.017 414.094 C 340.009 426.444 340.043 439.136 340.117 452.074 L 340.087 452.684 L 340.037 452.974 L 339.977 453.244 L 339.897 453.504 L 339.797 453.754 L 339.677 453.984 L 339.537 454.204 L 339.317 454.494 L 339.067 454.744 L 338.777 454.974 L 338.467 455.184 L 338.117 455.364 L 337.717 455.534 L 337.297 455.674 L 336.837 455.794 L 336.357 455.884 L 335.837 455.954 L 335.277 456.014 L 334.677 456.044 L 333.357 456.054 L 331.617 455.984 L 330.807 455.944 L 330.427 455.914 L 330.057 455.844 L 329.697 455.744 L 329.367 455.604 L 329.097 455.464 L 328.847 455.314 L 328.607 455.124 L 328.377 454.924 L 328.167 454.714 L 327.977 454.474 L 327.787 454.224 L 327.627 453.944 L 327.477 453.664 L 327.347 453.354 L 327.247 453.044 L 327.157 452.724 L 327.087 452.404 L 327.047 452.074 L 327.017 451.734 L 327.017 451.394 C 327.317 439.118 327.403 426.674 327.277 414.154 C 327.27 413.601 326.989 413.327 326.437 413.334 C 323.245 413.374 319.849 413.387 316.277 413.374 C 314.44 413.374 312.936 412.495 311.777 410.744 C 309.932 407.974 309.896 404.99 311.667 401.814 L 311.807 401.584 L 311.957 401.374 L 312.137 401.174 L 312.317 400.994 L 312.587 400.784 L 312.877 400.604 L 313.187 400.444 L 313.527 400.324 L 313.887 400.224 L 314.277 400.164 L 314.677 400.124 L 315.107 400.114 C 326.471 400.234 338.08 400.224 349.847 400.084 C 351.891 400.058 353.528 400.475 354.747 401.334 L 355.157 401.654 L 355.537 401.994 L 355.957 402.454 L 356.347 402.974 L 356.677 403.524 L 356.947 404.104 L 357.167 404.724 L 357.327 405.354 L 357.427 406.014 L 357.457 406.674 L 357.437 407.334 L 357.347 407.984 L 357.187 408.614 L 356.977 409.234 L 356.717 409.814 L 356.387 410.364 L 356.017 410.874 L 355.587 411.344 L 355.297 411.614 L 354.987 411.874 L 354.657 412.104 L 354.317 412.314 C 353.052 413.039 351.441 413.393 349.497 413.374 C 346.539 413.341 343.645 413.311 340.837 413.284 C 340.291 413.284 340.017 413.554 340.017 414.094 Z" transform="matrix(1, 0, 0, 1, -2.2737367544323206e-13, 0)"/>
  <path fill="#ffffff" d="M 394.237 442.034 C 394.27 444.915 394.347 447.893 394.467 450.944 L 394.477 451.544 L 394.437 452.094 L 394.367 452.604 L 394.267 453.084 L 394.117 453.534 L 393.937 453.934 L 393.707 454.304 L 393.447 454.634 L 393.227 454.874 L 392.987 455.084 L 392.717 455.274 L 392.427 455.444 L 392.107 455.604 L 391.777 455.734 L 391.417 455.854 L 391.027 455.954 L 390.207 456.104 L 389.247 456.194 L 388.147 456.234 L 386.627 456.224 L 385.637 456.214 L 385.087 456.184 L 384.537 456.084 L 384.027 455.924 L 383.547 455.704 L 383.267 455.544 L 383.007 455.364 L 382.757 455.164 L 382.517 454.944 L 382.287 454.694 L 382.087 454.434 L 381.897 454.164 L 381.727 453.874 L 381.567 453.564 L 381.427 453.244 L 381.317 452.914 L 381.217 452.574 L 381.147 452.224 L 381.087 451.874 L 381.057 451.514 L 381.047 451.144 C 381.059 436.896 380.975 421.739 380.797 405.784 L 380.807 405.344 L 380.847 404.904 L 380.927 404.464 L 381.027 404.034 L 381.157 403.614 L 381.317 403.204 L 381.507 402.814 L 381.727 402.444 L 381.967 402.094 L 382.227 401.764 L 382.507 401.474 L 382.807 401.204 L 383.117 400.974 L 383.447 400.764 L 383.787 400.594 L 384.147 400.454 L 384.467 400.354 L 384.797 400.284 L 385.127 400.244 L 385.467 400.224 C 389.598 400.15 394.377 400.09 399.767 400.044 L 401.507 400.054 L 403.157 400.094 L 404.727 400.184 L 406.227 400.314 L 407.657 400.494 L 409.027 400.714 L 410.337 400.974 L 411.587 401.274 L 412.787 401.624 L 413.927 402.024 L 415.027 402.474 L 416.077 402.964 L 417.077 403.504 L 418.027 404.094 L 418.947 404.734 L 419.807 405.424 L 420.297 405.854 L 420.777 406.304 L 421.227 406.774 L 421.677 407.254 L 422.107 407.754 L 422.527 408.284 L 422.927 408.814 L 423.317 409.374 L 423.687 409.954 L 424.057 410.544 L 424.397 411.164 L 424.727 411.794 L 425.047 412.444 L 425.357 413.124 L 425.927 414.524 L 426.207 415.324 L 426.457 416.134 L 426.667 416.964 L 426.837 417.794 L 426.977 418.644 L 427.077 419.504 L 427.147 420.364 L 427.167 421.234 L 427.167 422.104 L 427.117 422.974 L 427.037 423.844 L 426.917 424.704 L 426.757 425.564 L 426.567 426.414 L 426.337 427.254 L 426.077 428.094 L 425.777 428.894 L 425.457 429.694 L 425.087 430.474 L 424.697 431.234 L 424.277 431.964 L 423.817 432.684 L 423.337 433.374 L 422.817 434.034 L 422.287 434.674 L 421.717 435.284 L 421.127 435.854 L 420.517 436.404 L 419.877 436.924 L 419.217 437.404 L 418.547 437.854 L 417.837 438.274 L 416.927 438.754 L 415.997 439.174 L 415.137 439.514 L 414.247 439.824 L 413.317 440.104 L 412.367 440.364 L 411.397 440.584 L 410.387 440.774 L 409.337 440.944 L 408.257 441.074 L 407.167 441.184 L 406.027 441.274 L 404.837 441.334 L 403.577 441.374 L 402.267 441.384 L 400.827 441.384 L 397.067 441.314 L 395.017 441.264 C 394.491 441.25 394.23 441.508 394.237 442.034 Z M 394.117 414.484 L 394.197 427.044 C 394.202 427.474 394.556 427.819 394.987 427.814 L 405.977 427.734 C 409.98 427.705 413.203 424.589 413.177 420.774 L 413.177 420.474 C 413.151 416.656 409.882 413.585 405.877 413.614 L 394.887 413.694 C 394.456 413.699 394.111 414.053 394.117 414.484 Z" transform="matrix(1, 0, 0, 1, -2.2737367544323206e-13, 0)"/>
  <path fill="#55db7f" d="M 401.042 487.897 C 401.029 489.245 401.46 489.406 402.332 488.377 L 410.032 479.237 C 410.698 478.451 411.503 478.264 412.442 478.677 L 414.402 479.537 C 415.187 479.883 415.301 480.385 414.742 481.037 L 408.032 488.867 C 407.462 489.532 407.466 490.512 408.042 491.167 L 414.972 498.987 C 416.282 500.471 415.995 501.525 414.112 502.137 C 413.566 502.316 412.984 502.42 412.372 502.447 C 410.488 502.527 409.014 501.778 407.962 500.207 L 404.112 494.497 C 403.952 494.26 403.703 494.097 403.422 494.047 C 402.51 493.867 402.031 494.185 401.992 494.997 C 401.892 496.728 401.848 498.375 401.862 499.927 C 401.868 501.372 401.146 502.107 399.702 502.127 L 398.192 502.137 C 396.581 502.156 395.795 501.36 395.842 499.757 L 396.402 480.077 C 396.415 479.564 396.682 479.303 397.202 479.297 L 400.302 479.297 C 400.751 479.291 401.117 479.661 401.112 480.117 L 401.042 487.897 Z" transform="matrix(1, 0, 0, 1, -2.2737367544323206e-13, 0)"/>
  <path fill="#55db7f" d="M 378.569 502.322 C 372.318 502.979 366.702 498.284 366.024 491.836 C 365.346 485.388 369.864 479.628 376.115 478.971 C 382.365 478.314 387.982 483.009 388.659 489.457 C 389.337 495.905 384.819 501.665 378.569 502.322 Z M 376.998 496.718 C 380.049 496.873 382.67 494.051 382.855 490.416 C 383.039 486.781 380.715 483.709 377.665 483.555 C 374.615 483.4 371.993 486.222 371.809 489.857 C 371.625 493.492 373.948 496.564 376.998 496.718 Z" transform="matrix(1, 0, 0, 1, -2.2737367544323206e-13, 0)"/>
  <path fill="#55db7f" d="M 453.162 489.527 C 453.214 492.388 453.375 495.583 453.642 499.087 C 453.781 500.931 452.922 501.88 451.072 501.927 L 450.612 501.937 C 448.734 501.976 447.809 501.054 447.842 499.177 L 448.212 479.927 C 448.218 479.495 448.528 479.127 448.952 479.047 C 449.971 478.86 450.913 478.877 451.772 479.097 C 452.098 479.176 452.365 479.347 452.572 479.607 L 460.882 490.017 C 461.887 491.286 462.443 491.109 462.542 489.487 L 463.062 480.877 C 463.115 480.045 463.559 479.603 464.392 479.557 L 466.432 479.437 C 467.351 479.383 467.828 479.82 467.862 480.747 L 468.472 500.637 C 468.482 501.056 468.216 501.429 467.822 501.547 L 467.352 501.677 L 466.902 501.777 L 466.482 501.847 L 466.062 501.887 L 465.672 501.897 L 465.282 501.877 L 464.902 501.827 L 464.542 501.747 L 464.162 501.627 L 463.782 501.477 L 463.422 501.287 L 463.062 501.067 L 462.702 500.797 L 462.342 500.507 L 461.982 500.157 L 461.612 499.777 C 458.796 496.667 456.222 493.172 453.912 489.317 C 453.393 488.452 453.141 488.522 453.162 489.527 Z" transform="matrix(1, 0, 0, 1, -2.2737367544323206e-13, 0)"/>
  <path fill="#55db7f" d="M 428.792 496.697 L 438.752 496.617 C 439.235 496.611 439.627 497.004 439.622 497.487 L 439.582 501.037 C 439.576 501.515 439.181 501.898 438.702 501.887 L 423.272 501.617 C 422.797 501.606 422.421 501.212 422.432 500.737 L 422.912 480.247 C 422.922 479.783 423.298 479.412 423.762 479.407 L 438.612 479.197 C 439.103 479.191 439.499 479.596 439.482 480.087 L 439.382 483.547 C 439.371 484.022 438.977 484.398 438.502 484.387 L 428.482 484.127 C 427.995 484.115 427.596 484.51 427.602 484.997 L 427.632 487.497 C 427.637 487.972 428.027 488.352 428.502 488.347 L 437.512 488.287 C 437.991 488.287 438.377 488.678 438.372 489.157 L 438.322 492.097 C 438.316 492.568 437.933 492.947 437.462 492.947 L 428.822 492.927 C 428.351 492.927 427.967 493.305 427.962 493.777 L 427.922 495.827 C 427.916 496.309 428.309 496.702 428.792 496.697 Z" transform="matrix(1, 0, 0, 1, -2.2737367544323206e-13, 0)"/>
  <path fill="#55db7f" d="M 348.042 484.887 C 348.06 484.5 347.738 484.182 347.352 484.207 L 341.772 484.497 C 340.953 484.536 340.579 484.149 340.652 483.337 L 340.882 480.677 C 340.948 479.944 341.353 479.573 342.092 479.567 L 359.582 479.407 C 360.513 479.399 360.904 479.857 360.752 480.777 L 360.492 482.397 C 360.346 483.295 359.818 483.767 358.912 483.807 L 355.222 483.987 C 354.188 484.04 353.376 484.891 353.372 485.927 L 353.352 499.647 C 353.347 500.739 352.569 501.677 351.492 501.887 C 351.145 501.953 350.798 502.003 350.452 502.037 C 348.502 502.223 347.546 501.32 347.592 499.337 C 347.732 494.038 347.882 489.209 348.042 484.887 Z" transform="matrix(1, 0, 0, 1, -2.2737367544323206e-13, 0)"/>
</svg>
