<svg xmlns="http://www.w3.org/2000/svg" viewBox="-158.201 -146.992 757.69 757.31"><clipPath id="a"><path d="m503.52 516.66 1.74-3.58 7.92-18.65.95-1.35.68-.44 21.01-10.98 9.99-4.88 1.73-.24 1.6.69 5.37 4.36-2.54 9.95-4.7 14.37-3.07 10.05-.81 2.95-.51 3.62-.57 3.85-1.32 2.41-1.21.95-11.47 7.03-.06.05.01.8 18.16 15.08.89.04 17.54-11.75 26.9-19.26.53-.4 18.14-14.65 15.81-15.24 7.96-8.88 8.81-11.9 6.86-12.79 4.8-13.43 2.92-14.43.23-3.02.31-3.53.2-4.52-.08-1.31-.05-3.34 1.01-17.11-.19-13.18-1.01-8.65-1.66-7.86-5.44-18.84-1.65-5.31-.24-.34-.39-.1-5.56.22-14.62 1.1-9.28 1.71-20.71 5.74-15.14 5.9-13.94 7.18-12.73 8.44-11.54 9.71-4.19 4.15-6.73 7.49-6.5 8.31-10.98 16.58-9.83 18.37-8.79 19.46-7.76 20.55-6.73 21.63-.11.62v.62l-.13.69-.25.31-.36.61.38.6 19.46 15.25.34.12.27-.23.33-1.37ZM395.13 460.7l8.66-4.02 14.49-4.62 6.99-1.25 6.65-.36 15.88-.08.52.07.4.2 21.55 15.04 7.39 5.73.39.13.26-.31 9.35-23.55 4.3-9.43 4.2-9.46 16.62-28.95 2.87-4.36.13-.49-.49-.16-17.22 1.27-4.27.31-3.94.27-3.17.5-3.33.43-12.58 1.3-13.64 2.36-13.93 3.89-12.75 5.64-11.62 7.44-9.79 8.82-9.95 12.26-7.8 13.14-5.58 12.46-.27 1.68 1.52-.77 8.16-5.13Zm-.86 18.94-10.07 8.55-5.13 6.47-3.96 7.01-3.33 9.72-.21.4-.43.22-4.62 1.1-7.99 2.67-7.73 3.58-7.49 4.49-7.24 5.4-8.62 8.31-6.97 8.71-5.99 9.26-6.81 14.06-2.64 7.58-.07.25-3.25 9.1-.19.46-.11 1.8.76 2.08 2.32 9.61 3.99 10.36 4.09 8.74.07.11.73-.06 8.29-11.93 22.3-29.76 16.54-21.05 1.51-1.87 1.92-1.85 2.16-1.11 3.69-.26 2.42.9 1.76 1.83.92 2.38.06 2.63-.81 2.52-2.63 4.12-4.17 5.19-4.04 5-27.82 37.06-2.89 4.45-.68 1.13-9.96 11.85-.42 1.04.25 1.09 1.06 1.78 6.87 11.15 6.11 8.3 15.36 17.55 6.71 6.55 6.67 5.67.18.11.72-.04.41-.6 1.99-9.65 3.12-9.97 6.04-17.67 4.59-9.39.1-.64-.65.04-1.16.44-8.58 3-6.81 1.54-.11.01-.69-.3-.24-.71 1.7-12.17 2.77-12.52 3.94-13.21 5.16-14.15 3.36-7.55 3.87-6.86 4.37-6.17 4.87-5.49 12.55-11.2 14.43-10.29 49.6-32.25.07-.06-.04-.83-2.21-2.46-.56-2.59.21-.84 5.9-15.19.06-.56-.35-.47-11.29-8.45-16.63-11.01-1.46-.49-12.26.15-8.05 1.08-7.98 1.86-10.48 4.27-10.75 6.94Zm198.89 73.54 7.33 5.25 5.09 4.16 1.14 1.02 2.88 3.47 2.28 4.73 3.65 12.56 1.38 12.6-.21 6.92-.88 6.94-1.56 6.95-2.25 6.96-.73 1.55-.14.5.51-.09 6.41-3.37 6-4 5.79-4.78 5.29-5.34 4.83-5.94 4.27-6.38 3.65-6.75 3.03-7.06 2.6-8.61 1.09-7.98.72-13.01.01-9.89-1.16-11.08-3.71-23.66-1-8.87-.28-3.12-.38-9.46-.16-.48-.42.27-.73.84-12.54 13.99-13.55 13.02-16.34 13.86-12.4 9.39-9.6 7.19-.07.09.07.27 10.09 7.34Zm-80.59-18.06 17.81-16.44 1-1.08.67-1.34 2-7.37 3-7.21 3.29-6.91.1-.63-.63.08-11.28 5.86-1.26.74-3.7 2.87-.47.77-8.19 17.7-3.91 7.91-1.99 3.82-1.64 4.3.01.82.61.51.46.04.35-.23 3.77-4.21Zm-125.56 80.89.62.04.44-.06.42-.29 7.72-7.2 8.59-5.51 9.87-3.92 10.81-2.09.9.22.2.51-7.95 7.28-7.47 8.7-6.98 10.13-6.13 11.07-5.22 11.63-4.58 12.47-3.94 13.32-3.3 14.16-1.54 10.86.19.73.74-.15 4.79-2.81 7.81-3.88 36.3-21.65 11.76-8.37 11.25-10 3.15-3.46 4.8-4.95.35-.13.22.31.82 4.79.05 5.76-.53 3.73-1.16 3.68-4.28 8.12-2.86 3.64-3.76 3.81-4.25 3.39-.4.41-.19.35-.02.08.32.24 14.69-5.15 9.3-4.46 8.93-6.22 7.94-7.6 6.69-8.62 3.82-6.81 4.24-9.76.68-1.65 13.36-32.81 7.21-17.04 4.73-11.02 5.16-11.58-.23-.92-10.09-7.65-1.34-.47-1.36.4-8.95 6.12-1.91.57-1.89-.65-13.94-10.38 4.84-13.07-.43-1.41-6.08-4.37-5.64-4.53-2-1.76-2.12-.76-.07-.01-.47.02-.46.19-30.62 19.6-28.49 19.2-8.23 6.31-7.14 6.79-5.76 6.98-4.41 7.12-5.23 12.13-3.28 12.48-1.08 8.36.12.76.6-.5 1.35-2.79Zm47.15 81.83-12.13 1.07-.73-.29-.2-.76.09-.24 1.43-3.27.74-3.32v-.1l-.69-.5-.73.26-.64.36-23.07 15.71-.08.06-.41.8.32.83 1.57 1.15 17.56 8.71 18.08 7.24 13.23 4.29 13.5 3.54 1.26-.41 14.02-15.19 4.09-4.68 3.72-5.36 31.65-36.64 2.05-2.62 3.37-3.95 3.17-1.77 3.23-.04 2.31.92 2.56 3.03.58 4.02-1.79 4.59-4.54 5.27-2.79 2.99-15.41 18.75-16.14 18.58-11.22 12.69-2.85 3.86-.03.07.26.36 14.06.51 25.23.49 1.32-.31 11.76-7.26 10.38-8.69 5.9-6.3 5.34-6.89 4.19-6.49 3.48-6.58 2.8-6.69 2.12-6.83 1.43-6.86.8-7.03.17-7.22-.44-7.43.36-.66 9.8-6.14 8.17-7.59 6.77-9.42 5-10.99 2.35-8.58 1.06-8.63-.09-7.24-.98-7.27-1.28-4.81-1.67-6.07-1.23-2.83-3.32-2.84-2.28-1.63-15.81-11.68-4.01-3.44-.4-.17-.41.13-18.98 12.86-2.84.97-1.53-.53-2.07-1.63-.09-.07-1.05.32-4.06 9.66-16.29 40.31-5.64 13.94-6.28 15.28-3.88 7.4-4.73 7.11-5.6 6.8-6.45 6.5-6.61 5.61-6.91 4.88-7.19 4.17-7.49 3.45-13.67 4.28-14.55 2.12Z"/></clipPath><clipPath id="b"><path d="m562.39 445.33 3.63 5.99 5.21 4.68 6.34 2.97 6.93 1 4.41-.43 4.25-1.23 3.95-1.99 3.52-2.69 4-4.8 2.62-5.67 1.05-6.16-.57-6.23-1.65-4.81-2.63-4.35-4.78-4.73-5.9-3.21-4.43-1.18-4.58-.32-6.06.96-5.61 2.46-4.8 3.81-3.68 4.91-2.12 5.01-.93 5.36.3 5.43 1.53 5.22Z"/></clipPath><path fill="#fff9d8" d="m77.149 581.708-15.94-7.1-20.26-10.38-19.69-11.33-14.97-9.5-16.36-11.68-14.38-11.6-13.45-11.96-12.52-12.32-11.6-12.69-11.03-13.34-12.22-15.86-11.58-16.52-9.6-15.58-8.57-15.32-7.56-15.07-6.53-14.81-8.26-22.62-7.74-26.34-6.01-25.97-4.54-30.17-2.23-29.2-.31-21.96.79-19.1 3.48-31.41 2.48-14.47 2.97-13.65 6.67-24.34 7.99-23.7 6.56-15.71 8.83-17.87 9.67-17.39 10.46-16.92 11.04-16.11 11.8-15.54 12.19-14.5 12.89-13.86 13.32-12.89 13.98-12.16 16.57-12.93 17.17-12.03 13.63-8.65 14-8.11 14.35-7.58 14.7-7.04 23.4-9.68 23.9-7.97 26-6.62 26.57-4.68 14.33-1.48 15.84-.71 28.05-.28 21.67.38 29.56 2.54 11.01 1.67 2.54.48 12.03 2.52 26.97 7.02 13.12 4.09 16.24 5.96 18.5 7.92 19.79 9.99 18.91 10.73 18.02 11.44 17.14 12.18 18.05 14.49 17.26 15.75 16.49 17.03 15.71 18.3 11.98 15.96 10.98 16.15 8.44 13.7 13.81 25.1 5.05 10.41 10.04 25.52 8.11 25.83 5.45 22.33 4.11 22.6 2.08 18.67.22 9.42.35 2.53.35 2.29.08 31.36-.6 18.4-1.56 18.18-2.53 17.97-3.49 17.74-.95 4.1-.45 1.87-8.56 32.65-4.89 14.47-5.49 14.15-6.1 13.84-6.69 13.52-2.46 4.6-11.01 19.2-10.49 16.15-15.91 21.58-20.8 23.76-17.56 18.01-18.57 16.3-20.06 15.28-16.41 11.12-24.11 14.19-21.48 10.86-16.03 6.87-16.59 6.28-17.17 5.66-17.74 5.07-20.76 4.83-20.84 3.5-20.46 2.09-20.54.71-32.3-.38-15.3-1.06-16.02-2.16-16-3.06-18.98-4.37-26.73-7.68-26.71-9.9Z"/><path fill="#0b0817" d="m81.649 556.858-14.46-6.6-14.71-7.63-15.48-8.91-16.43-10.31-10.18-6.99-9.63-7.39-16.77-14.46-16.09-15.59-15.4-16.73-14.72-17.87-14.98-21.52-1.21-1.84-9.05-14.59-8.23-15.01-10.06-21.5-8.48-22.32-7.95-26.15-6.1-25.99-2.62-16.69-2.19-23.08-.32-3.92-.83-16.43-.01-21.67.72-7.97.47-3.83 3.12-27.87 3.41-18.61 5.37-21.46 5.49-17.14 2.65-7.51 5.62-15.15 9.63-21.07 10.24-18.78 14.64-22.6 11.47-15.95 17.92-21.37 18.8-19.44 10.24-9.31 12.44-10.38 16.01-12.03 16.16-10.76 16.25-9.81 16.33-8.85 16.43-7.89 15.49-6.47 16.12-5.73 16.76-5.01 17.39-4.28 14.67-2.95 12.88-2.01 22.08-2.43 19.9-.85 24.32.29 4.17.2 29.13 3.17 28.59 5.48 23.48 6.33 16.8 5.57 15.74 6.08 15.23 6.82 14.33 7.4 20.77 12.13 25.61 17.52 17.79 13.8 17.27 15.61 21.22 22.25 19.56 23.98 11.44 16.47 12.7 20.95 9.44 17.7 10.24 23.32 9.27 25.82 4.05 13.72 3.07 13.26 4.91 29.1 1.68 15.13 1.08 15.17-.1 28.16-2.05 26.73-3.94 25.91-5.8 25.75-7.64 25.61-9.49 25.45-8.43 18.12-7.32 13.65-7.84 13.26-8.35 12.89-8.86 12.51-10.31 13.28-10.49 12.02-13.91 14.43-15.18 14.32-15.96 13.35-18.69 13.7-16.65 10.86-14.91 8.61-17.93 9.06-18.18 8.09-18.42 7.11-18.66 6.14-12.05 3.17-6.57 1.66-9.46 2.28-.23.05-17.53 3.08-21.42 2.86-19.94 1.5-26.32-.35-21.06-1.94-21.06-3.26-21.08-4.57-21.09-5.89-17.64-6.06-20.13-8.11Z"/><g fill="#fff9d8"><path d="m214.91932007-62.32200562.32 13.82-.15.4-.42.09-12.32-.57-.64-.61v-51.52l.16-.48.47-.15 21.9-.04 4.23.33 3.62 1.08 4.87 2.9 3.57 3.8 2.14 4.35 1.2 5.72-.32 5.41-2.37 6.06-1.92 2.64-2.31 2.11-3.29 1.84-3.29 1.11-5.72.96-7.58.07-1.47-.03-.53.17-.15.54Zm69.51 13.31-18.28-3.16-.41.02-.37.27-3.39 4.11-1.08.43-13.67-1.73-.28-.14v-.32l1.52-2.89.41-.55 23.41-30.22 13-15.62.79-.43.53.74 7.93 29.29 6.4 28.8-.13.86-.84.21-12.21-1.23-.75-.62-2.14-7.42-.17-.28-.27-.12Zm-133.33-31.18-.29-.55-.61-.08-15.4 3.12-.43-.06-.18-.4-.71-5.51-1.4-6.48.11-.78.63-.45.04-.01 6.03-1.12 18.78-3.17 18.87-3.17.46.06.17.45.56 6.6 1.42 6.22-.02.49-.44.23-12.26 1.85-1.24.63-.27 1.35 4.39 36.53-.38 1.75-1.69.6-9.28.98-.78-.1-.36-.7-5.72-38.28Zm-46.68 44.24 19.03-8.58 1.4-.85 1.03-.67.53-.07.31.43 2.07 5.66 2.9 5.54.03.04-.4 1.13-17.63 7.43-17.81 6.51h-.27l-.18-.2-13.96-31.74-7.56-16.72-.01-.02.27-.55 5.93-2.21 7.43-3.54 6.86-3.29 15.42-6.79.02-.01.36.2 1.9 6.1 2.66 6.08.06.47-.36.3-21.23 9.48-.02.01-.31 1.12 3.03 5.29.75.61.96-.05 14.91-6.59.4-.04.23.33 1.02 3.08 3.07 6.53-.32 1.14-.02.01-15.44 7.84-.05.03-.24 1.15 2.18 4.36.18.64.82.43.05-.02Zm261.41-18.28-1.67.33-3.41.15-.83-.79-1.83-3.04-2.32-2.5-2.74-1.88-3.07-1.2-3.01-.44-3.16.22-4.19 1.45-3.33 2.56-2.45 3.66-1.1 4.27.24 3.72 1.36 3.72 2.18 2.96 2.98 2.35 3.21 1.35 3.45.32 2.48-.86 2.09-.82.39.06.21.33 2.05 5.8 4.01 6.67.1.17-.01.77-.62.47-.26.05-9.6 1.39-7.28-.83-6.67-2.74-5.52-3.99-3.33-3.72-2.71-4.4-1.91-5-.95-5.59.26-5.29 1.37-4.27.9-2.12 1.41-3.03 5.55-6.8 3.18-2.51 3.44-1.91.83-.36 6.68-1.93 6.54-.26 4.17.71 4.1 1.42 5.51 3.22 4.65 4.36 3.78 5.54 2.51 6.26-.51.88-.03.01-7.12 1.11Zm-308.24 41.91.79-2.97-.43-2.26-1.32-2.26-19.75-24.87-.18-.49.28-.42 10.8-8.31.78.12.02.03 2.82 4.13 15.28 20.13 4.69 8.08.67 2.04.32 3.14-.38 4.11-.17 1.35-1.44 5.06-2.19 3.45-2.93 2.82-3.81 2.35-4.26 1.63-4.75.82-6.94.26-2.86.04-.1-.01-.33-.64 2.94-7.52 2.21-7.43.31-.46.55.11.31.19 2.26 1.11 2.08.14 1.8-.47 1.62-1.16 1.31-1.84Zm341.49-17.79 11.9-1.71 10.99-3.24.81.22 11.03 11.73.2.27-.02.86-.73.48-26.23 2.66-.37.16-.14.4.42 32.05.1 1.1.24 1.27.01.11-.56.41-11.53-3.56-.57-.09-.41.05-.93-.05-.41-.26-.31-.42-.09-.47-.05-28.01-.57-2.16-1.7 1.45-10.98 15.75-.56.09-10.5-7.71-.21-.3.11-.34 5.67-7.87 24.26-35.3 1.25-.2.04.04 4.69 3.66 5.35 3.19.05.03.19 1.02-10.67 14.26.14.42.09.01Zm-274.12 503.77-22.83-9.91-13.63-7.19-11.08-6.59-10.6-7.1-18.31-14.12-16.97-15.74-15.71-17.42-14.1-18.72-10.3-16.7-10.53-20.69-8.33-20.33-7.52-23.95-5.22-23.52-2.31-15.63-1.38-15.06-.17-9.76.6-11.72 3.1-28.49 3.27-17.63 4.38-16.91 5.58-16.48 6.57-15.36 10.18-19.29 11.7-18.23 9.91-13.16 10.79-12.54 10.45-10.84 10.82-10.15 11.18-9.48 11.56-8.79 13.26-9.27 13.39-8.24 14.63-7.45 16.14-6.82 18.94-6.75 14.25-4.22 14.28-3.25 14.3-2.3 14.32-1.33 24.3-.59 23.99 1.15 9.68 1.22 13.04 2.37 2.36.46 9.74 2.15 20.76 6.01 19.86 7.45 18.96 8.89 18.06 10.32 6.12 3.96 7.4 5.1 13.93 10.53 13.34 11.36 12.76 12.18 12.16 13.01 8.78 10.6 8.19 11.28 7.6 11.95 7 12.62 8.01 17.14 6.77 18.05 5.53 18.97 4.29 19.87 2.01 16.41.5 6.18 1.01 15.03-.13 10.77-1.28 15.53-2.64 21.8-2.1 11.64-2.66 11.34-3.21 11.05-3.77 10.74-8.3 19.96-9.04 18.22-9.69 16.29-10.51 14.66-2.28 2.9-10.18 12.36-16.88 16.97-18.17 15.3-10.69 7.81-11.08 7.28-11.49 6.77-11.88 6.25-16.6 7.43-17.51 6.3-18.85 5.31-20.3 4.35-17.33 2.55-19.75 1.61-18.21.04-7.98-.24-4.32-.51-3.56-.26-2.7-.1-14.05-2-14.1-2.66-19.42-5.02-20.1-6.98Zm-130.5674-437.8013-2.8812.0567-2.6927-1.0707-2.0941-2.0351-1.1769-2.6897-.0803-2.9348 1.0283-2.733 1.9805-2.1153 2.6312-1.1755 2.8812-.0567 2.6927 1.0707 2.0941 2.0351 1.1769 2.6897.0803 2.9348-1.0283 2.733-1.9805 2.1153-2.6312 1.1755Zm462.5274-7.2387a7.53 7.53 0 0 1-7.53 7.53 7.53 7.53 0 0 1-7.53-7.53 7.53 7.53 0 0 1 7.53-7.53 7.53 7.53 0 0 1 7.53 7.53Z"/><path d="m-65.80067993 100.99799438 6.66-12.88 7.58-12.96 8.5-13.04 9.42-13.12 2.78-2.17 3.06-.35 2.91 1.05 2.26 2.15 1.09 2.94-.05 1.67-2.29 4.39-9.02 12.33-8.22 12.79-7.57 13.48-6.73 13.86-5.94 14.34-5.09 14.65-4.23 14.9-3.37 15.12-4.28 27.41-1.57 19.93-.09 24.53 1.57 19.59 4.93 29.71 7.23 27.89 7.1 20.53 9.44 20.89 1.07 3.25-.2 3.1-.9 1.92-1.55 1.76-.96.68-2.13.73-2.22-.09-2.06-.84-1.64-1.55-.37-.58-5.81-11.38-5.19-12.11-6.2-17.15-5.25-17.25-4.28-17.36-3.33-17.47-2.36-20.31-.63-6.32-.47-6.18-.01-22.96 1.41-21.28 2.63-20.59 1.18-7.03 3.92-18 5.18-17.77 6.42-17.54 7.67-17.31Zm574.63 36.13-8.07-20.18-9.53-19.48-10.86-18.51-12.03-17.25-.44-.58-3.16-4.69-.78-3.54.71-2.31 1.9-2.46 1.15-.88 1.97-.65 2.07.1 1.98.8 1.66 1.47 14.13 19.15 12.31 20.3 10.53 21.47 8.48 22.12.58 2.93-.46 2.33-1.12 1.75-1.43 1.21-2.43.76-3.01-.23-2.65-1.3-1.5-2.33Zm-10.97 211.82.64-1.51 5.85-14.83 6.38-20.51 5.23-20.45 3.81-20.86.6-5.54 1.72-21.49.16-20.57-.41-12.96-2.39-24.79-3.53-18.63-.22-3.27.9-3.59 2.23-2.94 2.15-.79 2.7.05 1.58.49 2.71 2.68 1.68 4.79 4.44 26.35 2.06 25.62.02 23.45-1.55 23-1.82 14.31-2.54 14.42-3.26 14.31-3.95 14.21-4.67 14.1-5.44 13.91-7.38 16.61-2.79 4.99-3.09 2.53-3.39.56-1.99-.5-2.08-1.96-1.39-4.04.2-2.26.87-2.31 5.96-12.58Zm-544.96 39.24 2.58-3.1 2.12-.88 2.58-.2 1.8.55.88.89 15.43 21.65 14.61 18.16 1.75 3.22.01 3.38-.93 1.99-1.69 1.72-1.94.97-2.27.37-1.93-.3-1.64-1-.28-.3-21.39-27.29-9.52-14.41-.78-2.34.61-3.08Zm528.864 16.3421a6.11 6.11 0 0 1-8.4821 1.6487l-.4311-.2907a6.11 6.11 0 0 1-1.6488-8.4821l6.934-10.2801a6.11 6.11 0 0 1 8.4821-1.6487l.4311.2907a6.11 6.11 0 0 1 1.6488 8.4821l-6.934 10.2801Zm-23.4511 30.2177a6.02 6.02 0 0 1-8.4799.7568l-.3989-.3336a6.02 6.02 0 0 1-.7568-8.4798l7.2098-8.623a6.02 6.02 0 0 1 8.4799-.7568l.3989.3336a6.02 6.02 0 0 1 .7568 8.4798l-7.2098 8.623Zm-447.0377 29.5693-2.8832-.831-2.3552-1.9465-1.4686-2.7659-.3586-3.1641.8062-3.0806 1.8481-2.5281 2.6088-1.5908 2.9721-.4112 2.8832.831 2.3552 1.9465 1.4686 2.7659.3586 3.1641-.8062 3.0806-1.8481 2.5281-2.6088 1.5908-2.9721.4112Zm419.1747-.044-2.9547-.5077-2.5475-1.6506-1.7524-2.5422-.6906-3.0469.4763-3.0876 1.5709-2.6584 2.4261-1.8243 2.9121-.7125 2.9547.5077 2.5475 1.6506 1.7524 2.5422.6906 3.0469-.4763 3.0876-1.5709 2.6584-2.4261 1.8243-2.9121.7125Zm-390.2205 24.565-2.7068-.7255-2.2352-1.7889-1.4234-2.5798-.3948-2.9781.6938-2.923 1.6768-2.4228 2.4045-1.5538 2.7663-.4483 2.7068.7255 2.2352 1.7889 1.4234 2.5798.3948 2.9781-.6938 2.923-1.6768 2.4228-2.4045 1.5538-2.7663.4483Zm361.7378-.06-2.8696-.3045-2.5527-1.4381-1.847-2.3526-.8601-2.9091.2576-3.0226 1.3362-2.676 2.2113-1.922 2.7499-.8753 2.8696.3045 2.5527 1.4381 1.847 2.3526.8601 2.9091-.2576 3.0226-1.3362 2.676-2.2113 1.922-2.7499.8753Zm-47.1272 20.1099-12.39-24.75.16-.47 6.12-3.3 4.15-2.98 1.03.16.04.07 23.08 46.09-.36 1.02-.03.01-3.92 1.94-3.39 2.42-.55.27-.58-.07-31.26-11.64-.09-.02-.23.36 9.38 22.08-.34.9-10.34 4.74h-.01l-1.18-.45-20.87-48-.24-1.02.01-.42.23-.49.52-.06 8.63 2.23 8.68 2.92 7.21 2.63 16.1 6.29.48-.32-.04-.14Zm-271.18-18.62 6.17-10.74.96-.3 39.21 18.75.34.33v.66l-5.33 10.7-.95.35-12.34-5.05-.95.36-16.64 33.65-.28.3-.69.05-11.03-4.99-.36-1.01 16.88-33.95-.33-.99-14.34-7.09-.32-1.03Zm194.76 29.07-.45.28-.05.52 1.46 6.61.94.61h.01l15.48-3.57.42.04.21.37 3.02 10.84-.27.55-.02.01-17.62 4.85-.04.01-.18.52 2.49 5.57.2.3.35.03 22.06-6.15.35.01.19.29 3.22 12.05-.36.64-18.45 4.75-18.52 3.86-.77-.16-.44-.66-9.38-48.53-.49-3.31.66-.92 33.79-7.25.47.29 3.24 11.53v.01l-.48.81-21.04 5.2Zm-101.1849 33.6873-4.2891 3.1058-4.8216 2.2011-5.1687 1.2117-5.3173.1758-5.2616-.8669-5.0035-1.8762-4.5533-2.8134-3.928-3.6426-3.1519-4.3316-2.2545-4.8544-1.2705-5.1905-.2378-5.3272.8042-5.2591 1.8152-4.9889 2.7564-4.527 3.5918-3.8912 4.2891-3.1058 4.8216-2.2011 5.1687-1.2117 5.3173-.1758 5.2616.8669 5.0035 1.8762 4.5533 2.8134 3.928 3.6426 3.1519 4.3316 2.2545 4.8544 1.2705 5.1905.2378 5.3272-.8042 5.2591-1.8152 4.9889-2.7564 4.527-3.5918 3.8912Zm42.6949-22.2973.45-.85 1.16-1.93 12.15-15.3 1-.83 1.27-.28 13.85-.42 1.33.28-.53 1.26-19.43 23.06-.32.78.36.76 24.38 25.72.39.78-.84.26-17.77-.2-2.02-.99-.04-.06-6.96-8.29-7.48-7.89-1.19-.62-.37 1.29.24 16.56-.38.38-12.98-.02-.41-.4-.34-51.73.5-.5 12.77.01.37.12.12.37.02 18.5.05.19.65-.01Z"/></g><path fill="#0b0817" d="m215.19932007-87.62200562.73-.74 7.55-.04 2.38.44 2.02 1.28 1.36 1.92.49 2.27v.96l-.46 2.28-1.34 1.93-2.01 1.3-2.38.46-7.55.04-.73-.72-.06-11.38Zm57.74 24.21 7.01-10.14.53.03.03.09 2.26 11.91-.36.36-9.27-1.77-.2-.48Zm169.03 391.09-6.77 13.66-7.52 13.06-8.26 12.45-9 11.86-9.92 11.46-10.7 10.83-11.46 10.21-12.23 9.58-19.49 12.95-20.25 10.76-14.24 6.02-15.84 5.58-14.66 4.15-15.07 3.19-15.47 2.21-15.88 1.25-29.69.42-5.95-.52-5.22-.49-6.29-.69-3.99-.45-3.13-.3-12.58-2.37-14.91-3.95-14.56-4.69-13.84-5.29-13.42-6.04-12.52-6.54-12.05-7.27-11.27-7.82-10.74-8.54-16.8-15.6-15.09-16.71-13.1-17.46-11.04-18.09-6.54-12.9-5.74-13.11-4.93-13.34-4.13-13.55-3.18-13.1-2.45-13.3-2.75-22.26-.48-13.51.82-16.24 2.17-16.65 3.97-19.56 6.17-21.48 8.31-20.73 10.4-19.9 12.17-18.43 15.2-18.64 9.74-10.33 10.8-10.03 11.97-9.83 13.27-9.7 19.37-12.14 19.6-9.71 23.98-9.31 13.25-4.15 12.8-2.88 26.38-3.75 11.29-.78 10.65-.1 23.79 1.42 21.55 3.12 23.42 5.78 18.68 6.47 12.95 5.69 12.55 6.28 12.14 6.89 11.74 7.48 14.29 10.34 13.65 11.3 12.5 11.88 11.42 12.54 10.33 13.21 9.24 13.87 9.26 16.73 7.82 17.61 6.4 18.48 4.96 19.35 3.71 21.85 1.39 19.4-.55 21.45-2.18 20.74-2.34 12.39-4.06 16.37-4.88 15.29-6.94 16.66Zm-270.52 204.82a12.74 12.74 0 0 1-12.74 12.74 12.74 12.74 0 0 1-12.74-12.74 12.74 12.74 0 0 1 12.74-12.74 12.74 12.74 0 0 1 12.74 12.74Z"/><g fill="none" stroke-width="5" clip-path="url(#a)" transform="translate(-292.79067993 -286.96200562)"><path stroke="#fffceb" d="m650.9 348.65-3.49-1.82-2.66-.34-10.98 2.24-10.03 2.45-9.86 2.98-15.09 5.38-5.57 2.48-5.57 2.69-9.15 4.48-8.88 5.2-8.63 5.9-8.37 6.61-3.01 3.07-2.56 3.72-.32.4-.37.25-1.11.92-3.56 4.72-4.13 3.99-.32.35-.16.31-.63 1.14-.52.49-2.79 3.13-.09.16-1.74 2.14-2.13 2.69-.71 1.68-.32.78-1.39 1.88-1.13 1.37-2.94 4.38-.3.48-.53 1.24-.87 1.75-.84 1.72-.51 1.23-.13.2-.8 1.47-.14.33-3.7 7.59-6.07 13.58-2.89 6.62-2.67 6.84-.52 1.55-.97 2.07-1.63 3.83-1.44 3.96-.68 1.51-3.29 9.28-1.78 4.08-1.47 3.04-.13.24-.04.04-.26.19-.34.31-.13.44-.93 3.94-.07 3.9.13.43.33.34 5.6 4.5 1.23.91 1.67.68.39.17.33.29.89 1.38 1.44 1.78 1.95.28" vector-effect="non-scaling-stroke"/><path stroke="#d9cfb5" d="m658.19 414.29-.19 2.49-.35.94-.71 1.44-.2 1.32-.65 3-2.22 6.78-1.42 4.56-5.74 13.67-7.08 12.83-8.84 12.53-10.31 11.62-13.66 12.89-22.2 16.51-14.43 9.42-15.18 8.71-10.36 4.38-6.73 1.98-1.28.16.88-.94 1.92-1.29 4.68-1.96 1.33-.84.63-1.45 2.8-14.12 2.87-11.89 1.73-9.06 2.74-14.97-.13-.97-1.58-.44" vector-effect="non-scaling-stroke"/><path stroke="#fffceb" d="m512.78 399.84-11.51 2.05-11.02 2.88-9.49 1.41-9.25 1.25-10.3 1.75-8.9 1.9-10.78 4.02-9.75 4.84-8.56 5.41-10.68 9.99-4.69 4.66-2.47 2.67-1.59 2.12-8.85 12.45-.37.73.56 2.73" vector-effect="non-scaling-stroke"/><path stroke="#7de5ab" d="m461.88 476.84-.07.33-1.5.34-1.22-.01-.56.07-13.85 3.18-6.1 2.13-5.88 2.76-5.85 3.53-5.49 4.1-5.11 4.63-4.63 5.08-4.1 5.46-3.53 5.79-3.6 7.94-2.11 7.82v.02l-.72.44-8.76-1.69-8.02-.09-12.46 2.36-6.22 1.92-5.57 2.46-6.33 3.65-5.75 4.08-5.18 4.5-4.62 4.94-6.82 8.87-5.95 9.36-7.15 14.57-5.3 15.63-.6 5.11-.34 4.71" vector-effect="non-scaling-stroke"/><path stroke="#e9fde5" d="m302.18 590.86 1.9-2.25 1.79-3.72.79-4.4.91-3.75 3.42-5.51.17-1.75.04-.48.2-.43 2.01-3.11 2.21-2.92 4.4-5.52 11.79-13.97 7.68-7.7 8.46-6.53 11.77-6.56 5.39-2.03 4.22-1.53 3.52-.76.66-.04 2.92-.94 1.21-1.68.33-2.74.6-3.89 3.42-9.49 4.78-8.57 3.58-4.75 4.08-4.41.48-.96-.64-.83" vector-effect="non-scaling-stroke"/><path stroke="#1aa372" d="m377.02 646.16-5.63 2.89-5.64 2.1-5.65 1.29-5.67.49-5.06-.24-4.63-1.04-3.95-2.01-2.55-2.2-2.16-2.78-3.47-7.5-1.17-6.25.14-6.65.33-5.26" vector-effect="non-scaling-stroke"/><path stroke="#d9cfb5" d="m649.19 496.86-3.35 3.68-5.53 5.88-20.85 20.64-20.6 21.55-5.7 4.57" vector-effect="non-scaling-stroke"/><path stroke="#d8d2c8" d="m537.05 501.68-5.31 3.13-3.09 3.61-6.76 11.19-4.91 7.32-.6.89-3.81 7.3" vector-effect="non-scaling-stroke"/><path stroke="#ffa19a" d="m484.3 521.89-1.63 1.33-1.34.87-2.99 2.09-8.65 6.46-27.34 17.77-24.87 17.57-9.72 8.29-7.92 9.54-5.53 9.55-4.1 10.53" vector-effect="non-scaling-stroke"/><path stroke="#ff6238" d="m489.94 526.42-5.95 7.76-4.64 4.68-11.2 9.54-.29.49.55.15 2.31-.53.83-.51 1.39-1.01.67-.08.45.5.02.25-.23.96-.52.87-4.22 5.67-3.2 5.36-4.05 8.83-4.27 11.14-1.76 6.51-.69 6.03.17 6.19.11.32.31.2.43.07.6-.1 5.85-2.27 4.38-1.43 6.22-2.24 16.85-8.67 8.38-5.21 8.32-6.26.8-1.45-.55-1.55-.15-.15-2.43-2.08" vector-effect="non-scaling-stroke"/><path stroke="#da3233" d="m504.43 568.4 3.08-.46 3.97-2.04 10.65-7.53 2.05-.86v2.23l-.87 4.27-.21 3.98.02.17.5.66.82.04.55-.13.77.1.11.05.29.95m-70.43 99.22.98.02.41-.18.41-.14.44.1 1.58.3 1.43-.75 5.28-5.6 4.47-6.12 1.88-3.14 2.67-5.66 2.24-6.68 6.83-22.41 7.62-21.71.01-.04-.46-.75-.25-.01-.28.1-.39.23-4.38 3.5-4.02 3.44-17.49 10.99-15.4 7.92" vector-effect="non-scaling-stroke"/><path stroke="#f13635" d="m449.31 622.46-11.22 3.73-.47.23-.35.3-.55.45-.46.19-.79-.57.03-.18.48-1.48 1.09-4.23 2.61-25.49" vector-effect="non-scaling-stroke"/><path stroke="#da3233" d="m439.68 595.41 3.34-10.81 4.04-9.06 4.1-6.36 6.05-7.43.28-.41.17-.44.24-.53.43-.43.2-.23.07-.24.06-.29-.05-.49-.47-.09-2.43.77-16.28 10.28-10.71 6.37-3.62 2.25-19.14 12.54-8.23 7.15-7.52 7.93" vector-effect="non-scaling-stroke"/><path stroke="#cc2433" d="m439.68 595.41-1.33 5.59-.09.76-.64.75-.08.05-.6-.33-.25-.75-.68-.72-.41-.41-.2-.51-.26-1.25-.01-.06-.61-.79-1-.11-2.79.19-.31-.07-1.9-.41-1.94.37m22.73 24.75v.22l-.31.61-.15.85.06.54-.38.43-.1.08.15.62 2.15.33 1.08-.3.51-.16.47-.02 1.96-.08 1.54-.33 2.63-.66.52.01.44.28 1.27 1.99.26 1.58-.7.96-1.81.48-1.82.72-3.27 1.43-10.2 3.83-10.21 5.03-8.19 5.23-7.69 6.35-11.54 11.68-8.67 10.91-12.12 20.03" vector-effect="non-scaling-stroke"/><path stroke="#da5035" d="m491.61 545.27-1.76 6.87-.83 6.79v.08l.39.86.89.3 1.81-.6.07-.12.67-.4.74.25 10.84 9.1" vector-effect="non-scaling-stroke"/><path stroke="#7de5ab" d="m574.89 557.89 2.83 7.12 1.28 7-.12 11.74-2.06 11.96-2.53 7.82-5.5 10.53-7.68 9.65-5.95 5.25-6.54 3.89-.77.74.18 1.05 3.76 8.82 1.41 5.8.71 5.94-.46 13.71-.42 3.1-1.85 8.07-2.91 7.91-3.97 7.74-5.03 7.56-9.01 10.63-10.16 9.2-12.57 8.5-13.97 6.74" vector-effect="non-scaling-stroke"/><path stroke="#1aa372" d="m485.09 707.74-14.38 5.68-3.8 1.44-5.19 1.24-5.42.51-5.65-.21-5.88-.95-4.12-1.47-3.13-2.38-1.78-2.56-1.16-3.15-.53-3.73.11-4.32" vector-effect="non-scaling-stroke"/></g><path fill="#fff9d8" d="m180.08932007 61.39799438 5.98-1.65 4.44-2.93 2.1-2.5 1.59-2.96 1.91-7.93.19-.43.46-.16 2.4-.05.83.73 1.78 7.37 1.67 3.05 2.2 2.59 4.3 2.87 5.59 1.65.53.21.38.49.36 1.44-.3 1.71-.34.51-.6.3-5.48 1.55-3.85 2.21-2.59 2.77-2.84 5.22-1.24 4.55-.79.66-1.6-.02-.56-.18-.29-.52-1.1-3.94-1.58-3.51-1.91-2.81-2.37-2.37-4.3-2.57-5.37-1.46-.81-.69-.13-1.35.4-1.2.94-.65Zm72.1977-1.6728-1.6416.0016-1.5284-.6529-1.1824-1.2079-.6565-1.5791-.0306-1.7099.5999-1.5803 1.1392-1.2101 1.505-.6558 1.6416-.0016 1.5284.6529 1.1824 1.2079.6565 1.5791.0306 1.7099-.5999 1.5803-1.1392 1.2101-1.505.6558Zm105.8223 1.9628 5.44 18.84 1.66 7.86 1.01 8.65.19 13.18-1.01 17.11-.19 2.49-.35.94-.71 1.44-.2 1.32-.65 3-2.22 6.78-1.42 4.56-5.74 13.67-7.08 12.83-8.84 12.53-10.31 11.62-13.66 12.89-22.2 16.51-14.43 9.42-15.18 8.71-10.36 4.38-6.73 1.98-1.28.16.88-.94 1.92-1.29 4.68-1.96 1.33-.84.63-1.45 2.8-14.12 2.87-11.89 1.73-9.06 2.74-14.97-.13-.97-1.58-.44-5.37-4.36-1.6-.69-1.73.24-9.99 4.88-21.01 10.98-.68.44-.95 1.35-7.92 18.65-1.74 3.58-1.95-.28-1.44-1.78-.89-1.38-.33-.29-.39-.17-1.67-.68-1.23-.91-5.6-4.5-.33-.34-.13-.43.07-3.9.93-3.94.13-.44.34-.31.26-.19.04-.04.13-.24 1.47-3.04 1.78-4.08 3.29-9.28.68-1.51 1.44-3.96 1.63-3.83.97-2.07.52-1.55 2.67-6.84 2.89-6.62 6.07-13.58 3.7-7.59.14-.33.8-1.47.13-.2.51-1.23.84-1.72.87-1.75.53-1.24.3-.48 2.94-4.38 1.13-1.37 1.39-1.88.32-.78.71-1.68 2.13-2.69 1.74-2.14.09-.16 2.79-3.13.52-.49.63-1.14.16-.31.32-.35 4.13-3.99 3.56-4.72 1.11-.92.37-.25.32-.4 2.56-3.72 3.01-3.07 8.37-6.61 8.63-5.9 8.88-5.2 9.15-4.48 5.57-2.69 5.57-2.48 15.09-5.38 9.86-2.98 10.03-2.45 10.98-2.24 2.66.34 3.49 1.82Zm-229.29 13.76 1.51 2.03 2.79 2.11 1.05.72 1.17 1.68-.48 1.6-1.47 1.25-2.49 1.75-3.43 4.53-.24.33-1.13.4-.99-.69-2.96-4.15-4.29-3.49-.24-.18-.58-1.32.65-1.3 1.71-1.25 3.73-3.37 1.75-2.82 1.04-.68 1.2.34.16.16 1.54 2.35Zm-30.85 34.17a4.93 4.93 0 0 1-4.93 4.93 4.93 4.93 0 0 1-4.93-4.93 4.93 4.93 0 0 1 4.93-4.93 4.93 4.93 0 0 1 4.93 4.93Zm122.02 3.26-16.62 28.95-25.89 36.89-21.55-15.04-.4-.2-.52-.07-15.88.08-6.65.36-6.99 1.25-14.49 4.62-8.66 4.02-.56-2.73.37-.73 8.85-12.45 1.59-2.12 2.47-2.67 4.69-4.66 10.68-9.99 8.56-5.41 9.75-4.84 10.78-4.02 8.9-1.9 10.3-1.75 9.25-1.25 9.49-1.41 11.02-2.88 11.51-2.05Zm-160.3 47.67-2.33-5.04-3.92-3.78-2.79-1.43-3.12-.83-2.27-.93-.33-.29-.56-1.56.9-1.39.47-.2 6.17-2.28 4.11-3.36.06-.08 2.22-3.37 1.54-3.6.92-4.18.16-.45.33-.36 1.19-.43 1.15.25.37.29.2.43 1.26 4.7 1.57 3.68 1.99 2.98 2.59 2.43 3.36 1.79 4.2.99 1.63.76.44 2.05-.5 1.18-1.18.55-5.32 1.5-4.14 2.74-3.38 4.84-1.73 6.59-.27.78-1.01.8-1.41.25-1.09-.33-.51-1.02-.97-4.67Zm345.38 29.89 3.15 1.69.26.25.38 1.48-.91 1.22-1.13.59-3.09 1.78-1.91 1.79-1.4 2.74-1.04 2.42-.45.55-1.91.48-1.51-1.28-1.15-2.71-.39-.77-2.43-2.71-4.23-2.5-1.45-.76-.25-.18-.28-.9.55-.76 5.03-2.71 1.87-1.39 2.7-4.63.28-.66 1.07-1.24 1.39-.22 1.09.57.66 1.25 1.34 3.52 2.01 2.21 1.75.88Zm-366.5101 14.9999a1.25 1.25 0 0 1-1.7674.0371l-6.4525-6.1878a1.25 1.25 0 0 1-.037-1.7674l5.7171-5.9617a1.25 1.25 0 0 1 1.7674-.0371l6.4525 6.1878a1.25 1.25 0 0 1 .037 1.7674l-5.7171 5.9617Zm317.8401 4.4601.28 3.12 1 8.87 3.71 23.66 1.16 11.08-.01 9.89-.72 13.01-1.09 7.98-2.6 8.61-3.03 7.06-3.65 6.75-4.27 6.38-4.83 5.94-5.29 5.34-5.79 4.78-6 4-6.41 3.37-.51.09.14-.5.73-1.55 2.25-6.96 1.56-6.95.88-6.94.21-6.92-1.38-12.6-3.65-12.56-2.28-4.73-2.88-3.47-1.14-1.02-5.09-4.16-7.33-5.25 5.7-4.57 20.6-21.55 20.85-20.64 5.53-5.88 3.35-3.68Zm42.93 25.79.96-.91.87-.15.52.14.38.35 2.5 2.9 2.82 2.37.26.21.88 2.01-.93 1.99-1.79 1.65-3.68 4.23-.96.52-1.01-.41-.14-.19-2.17-2.97-4.82-4.48-.09-.08.1-1.11 3.83-3.09 2.47-2.98Zm-3.08 55.61.18.25 2.13 1.99 1.17.92.66 1.18-.74 1.12-3.33 3.09-2.44 3.49-.93.68-1.12-.29-.19-.2-1.06-1.46-3.34-3.52-3.13-1.58-.06-.03-.14-.85 2.45-2.59 1.68-1.45 2.09-2.48 1.36-1.81.1-.1 1.17-.39 1.08.61 2.41 3.42Zm-26.92 40.14 2.35-3.42.3-.57 1.09-.8 1.29.36.25.28 3.1 3.99 3.5 3.5.54 1.19-.52 1.19-.13.11-4.39 4.22-1.82 2.74-1.13.78-1.32-.41-.24-.29-2.88-3.68-4.87-3.98-.16-1.17.1-.09 4.94-3.95Zm-19.6776 27.9212-.6773 1.424-1.214 1.0548-1.5658.525-1.6792-.0847-1.5371-.6816-1.1609-1.1746-.608-1.4888.0375-1.5765.6773-1.424 1.214-1.0548 1.5658-.525 1.6792.0847 1.5371.6816 1.1609 1.1746.608 1.4888-.0375 1.5765Zm-27.6324 28.0588-2.38 1.85-1.29 2.01-.76 2.49-1.11 1.6-2.21.45-.56-.5-.32-.56-.21-.67-.88-2.65-1.46-2.09-2.28-1.68-2.99-1.01-.19-.05-.93-.86.03-1.28.35-.56 2.93-1.66 3.32-1.83 1.08-1.83.26-.78 1.35-3.09 1.48-1.17 1.07-.05.42.17.3.35 1.65 3.73.39.89 2.12 2.41 3.53 1.87.95.67.4.99-.29.93-.2.26-2.17 1.13-1.4.52Z"/><path fill="#25ce89" d="m122.03932007 33.26799438 13.14-5.77 14.72-5.55 15.06-4.73 12.2-2.84 13.21-1.93 12.73-1.42 9.9-.78 10.6-.13 24.46 1.75 9.27 1.42 10.19 2.24 6.9 1.81 14.92 4.58 14.7 5.41 14.46 6.24 14.23 7.08.3.17 1.14.9.1.14-.4.83-14.74 2.84-7.68 2.27-1.69.32-1.68-.34-13.97-5.66-12.87-4.46-14.53-3.98-17.85-3.37-17.81-1.44-16.75-.23-12.77.4-11.41 1.08-10.28 1.85-16.72 4.32-14.56 4.78-20.44 8.8-19.23 10.72-13.5 9.2-12.83 10.24-12.16 11.3-11.51 12.36-8.26 10.23-7.52 10.76-6.9 11.5-6.11 11.96-5.33 12.44-4.51 12.81-3.68 13.13-2.84 13.39-.06.35-1.47 10.37-.81 10.78.08 26.69.2 1.94.2 2.72-.54 1.95-.03.05-9.04 14.77-2.49 3.08-.33.18-.34-.06-.4-.55-.28-2.14-1.51-8.18-.84-5.65-.8-5.46-.62-4.23-.59-16.3.58-15.75 1.73-14.97 2.86-14.15 7.17-25.72 3.61-9.93 4.01-9.09 5.76-11.03 6.35-10.6 7.07-10.44 7.62-10.02 8.47-9.98 9-9.55 9.78-9.4 10.26-8.97 14.11-10.4 16.09-9.85 13.5-7.1Zm292.32 278.11 8.01-21.87 2.93-10.53 2.22-10.26 2.35-14.58 1.2-11.87.27-18.23-1.53-15.54-4.73-24.34-3.66-13.19-4.92-13.46-6.29-13.92-7.57-14.21-8.74-13.49-11.91-15.09-.95-2.33-1.38-11.55-2.47-11.84.04-.87.83.26 2.23 1.72 8.06 7.44 7.41 7.7 6.78 7.97 6.14 8.24 6.73 10.24 6.12 10.48 5.52 10.74 4.91 10.99 6.05 16.42 4.78 16.94 2.24 10.85 1.28 8.81 1.62 21.23-.27 20.17-1.86 17.47-3.53 19.52-2.51 10.14-3.22 10.15-7.13 18.22-7.55 15.39-7 11.77-7.57 11.18-8.15 10.6-8.72 10-10.32 10.39-12.28 11.03-16.32 12.55-18.12 11.2-19.18 9.37-19.81 7.38-18.64 5.41-15.17 3.07-1.1-.12.59-.92 9.13-9.3 8.58-10.31.71-.76 2.43-1.24 9.4-2.72 9.7-3.46 20.8-9.43 14.63-8.18 13.62-9.14 12.63-10.1 11.63-11.06 8.38-9.29 7.77-9.88 8.03-11.39 6.68-10.57 5.53-10.03 4.64-9.97Zm-245.27-121.5 11.29 8.45.35.47-.06.56-5.9 15.19-.21.84.56 2.59 2.21 2.46.04.83-.07.06-49.6 32.25-14.43 10.29-12.55 11.2-4.87 5.49-4.37 6.17-3.87 6.86-3.36 7.55-5.16 14.15-3.94 13.21-2.77 12.52-1.7 12.17.24.71.69.3.11-.01 6.81-1.54 8.58-3 1.16-.44.65-.04-.1.64-4.59 9.39-5.63 2.89-5.64 2.1-5.65 1.29-5.67.49-5.06-.24-4.63-1.04-3.95-2.01-2.55-2.2-2.16-2.78-3.47-7.5-1.17-6.25.14-6.65.33-5.26.68-1.13 2.89-4.45 27.82-37.06 4.04-5 4.17-5.19 2.63-4.12.81-2.52-.06-2.63-.92-2.38-1.76-1.83-2.42-.9-3.69.26-2.16 1.11-1.92 1.85-1.51 1.87-16.54 21.05-22.3 29.76-8.29 11.93-.73.06-.07-.11-4.09-8.74.34-4.71.6-5.11 5.3-15.63 7.15-14.57 5.95-9.36 6.82-8.87 4.62-4.94 5.18-4.5 5.75-4.08 6.33-3.65 5.57-2.46 6.22-1.92 12.46-2.36 8.02.09 8.76 1.69.72-.44v-.02l2.11-7.82 3.6-7.94 3.53-5.79 4.1-5.46 4.63-5.08 5.11-4.63 5.49-4.1 5.85-3.53 5.88-2.76 6.1-2.13 13.85-3.18.56-.07 1.22.01 1.5-.34.07-.33Zm113.01 81.05 2.83 7.12 1.28 7-.12 11.74-2.06 11.96-2.53 7.82-5.5 10.53-7.68 9.65-5.95 5.25-6.54 3.89-.77.74.18 1.05 3.76 8.82 1.41 5.8.71 5.94-.46 13.71-.42 3.1-1.85 8.07-2.91 7.91-3.97 7.74-5.03 7.56-9.01 10.63-10.16 9.2-12.57 8.5-13.97 6.74-14.06-.51-.26-.36.03-.07 2.85-3.86 11.22-12.69 16.14-18.58 15.41-18.75 2.79-2.99 4.54-5.27 1.79-4.59-.58-4.02-2.56-3.03-2.31-.92-3.23.04-3.17 1.77-3.37 3.95-2.05 2.62-31.65 36.64-14.38 5.68-3.8 1.44-5.19 1.24-5.42.51-5.65-.21-5.88-.95-4.12-1.47-3.13-2.38-1.78-2.56-1.16-3.15-.53-3.73.11-4.32 14.55-2.12 13.67-4.28 7.49-3.45 7.19-4.17 6.91-4.88 6.61-5.61 6.45-6.5 5.6-6.8 4.73-7.11 3.88-7.4 6.28-15.28 5.64-13.94 16.29-40.31 4.06-9.66 1.05-.32.09.07 2.07 1.63 1.53.53 2.84-.97 18.98-12.86.41-.13.4.17 4.01 3.44Z"/><path fill="#ff4435" d="m191.509 234.928 5.64 4.53-5.95 7.76-4.64 4.68-11.2 9.54-.29.49.55.15 2.31-.53.83-.51 1.39-1.01.67-.08.45.5.02.25-.23.96-.52.87-4.22 5.67-3.2 5.36-4.05 8.83-4.27 11.14-1.76 6.51-.69 6.03.17 6.19.11.32.31.2.43.07.6-.1 5.85-2.27 4.38-1.43 6.22-2.24 16.85-8.67 8.38-5.21 8.32-6.26.8-1.45-.55-1.55-.15-.15-2.43-2.08 3.08-.46 3.97-2.04 10.65-7.53 2.05-.86v2.23l-.87 4.27-.21 3.98.02.17.5.66.82.04.55-.13.77.1.11.05.29.95-4.73 11.02-7.21 17.04-13.36 32.81-.68 1.65-4.24 9.76-3.82 6.81-6.69 8.62-7.94 7.6-8.93 6.22-9.3 4.46-14.69 5.15-.32-.24.02-.08.19-.35.4-.41 4.25-3.39 3.76-3.81 2.86-3.64.98.02.41-.18.41-.14.44.1 1.58.3 1.43-.75 5.28-5.6 4.47-6.12 1.88-3.14 2.67-5.66 2.24-6.68 6.83-22.41 7.62-21.71.01-.04-.46-.75-.25-.01-.28.1-.39.23-4.38 3.5-4.02 3.44-17.49 10.99-15.4 7.92-11.22 3.73-.47.23-.35.3-.55.45-.46.19-.79-.57.03-.18.48-1.48 1.09-4.23 2.61-25.49 3.34-10.81 4.04-9.06 4.1-6.36 6.05-7.43.28-.41.17-.44.24-.53.43-.43.2-.23.07-.24.06-.29-.05-.49-.47-.09-2.43.77-16.28 10.28-10.71 6.37-3.62 2.25-19.14 12.54-8.23 7.15-7.52 7.93 4.1-10.53 5.53-9.55 7.92-9.54 9.72-8.29 24.87-17.57 27.34-17.77 8.65-6.46 2.99-2.09 1.34-.87 1.63-1.33Z"/><path fill="#0f775a" d="m39.11932007 332.03799438-.33 5.26-.14 6.65 1.17 6.25 3.47 7.5 2.16 2.78 2.55 2.2 3.95 2.01 4.63 1.04 5.06.24 5.67-.49 5.65-1.29 5.64-2.1 5.63-2.89-6.04 17.67-3.12 9.97-1.99 9.65-.41.6-.72.04-.18-.11-6.67-5.67-6.71-6.55-15.36-17.55-6.11-8.3-6.87-11.15-1.06-1.78-.25-1.09.42-1.04 9.96-11.85Zm102.25 78.84-.11 4.32.53 3.73 1.16 3.15 1.78 2.56 3.13 2.38 4.12 1.47 5.88.95 5.65.21 5.42-.51 5.19-1.24 3.8-1.44 14.38-5.68-3.72 5.36-4.09 4.68-14.02 15.19-1.26.41-13.5-3.54-13.23-4.29-18.08-7.24-17.56-8.71-1.57-1.15-.32-.83.41-.8.08-.06 23.07-15.71.64-.36.73-.26.69.5v.1l-.74 3.32-1.43 3.27-.09.24.2.76.73.29 12.13-1.07Z"/><path fill="#b52030" d="m198.81932007 258.30799438 13.94 10.38 1.89.65 1.91-.57 8.95-6.12 1.36-.4 1.34.47 10.09 7.65.23.92-5.16 11.58-.29-.95-.11-.05-.77-.1-.55.13-.82-.04-.5-.66-.02-.17.21-3.98.87-4.27v-2.23l-2.05.86-10.65 7.53-3.97 2.04-3.08.46-10.84-9.1-.74-.25-.67.4-.07.12-1.81.6-.89-.3-.39-.86v-.08l.83-6.79 1.76-6.87Zm-51.93 50.14-1.33 5.59-.09.76-.64.75-.08.05-.6-.33-.25-.75-.68-.72-.41-.41-.2-.51-.26-1.25-.01-.06-.61-.79-1-.11-2.79.19-.31-.07-1.9-.41-1.94.37-.2-.51-.9-.22-10.81 2.09-9.87 3.92-8.59 5.51-7.72 7.2-.42.29-.44.06-.62-.04 3.2-10.12 7.52-7.93 8.23-7.15 19.14-12.54 3.62-2.25 10.71-6.37 16.28-10.28 2.43-.77.47.09.05.49-.06.29-.07.24-.2.23-.43.43-.24.53-.17.44-.28.41-6.05 7.43-4.1 6.36-4.04 9.06-3.34 10.81Zm16.05 73.64 4.28-8.12 1.16-3.68.53-3.73-.05-5.76-.82-4.79-.22-.31-.35.13-4.8 4.95-3.15 3.46-11.25 10-11.76 8.37-36.3 21.65-7.81 3.88 12.12-20.03 8.67-10.91 11.54-11.68 7.69-6.35 8.19-5.23 10.21-5.03 10.2-3.83 3.27-1.43 1.82-.72 1.81-.48.7-.96-.26-1.58-1.27-1.99-.44-.28-.52-.01-2.63.66-1.54.33-1.96.08-.47.02-.51.16-1.08.3-2.15-.33-.15-.62.1-.08.38-.43-.06-.54.15-.85.31-.61v-.22l15.4-7.92 17.49-10.99 4.02-3.44 4.38-3.5.39-.23.28-.1.25.01.46.75-.01.04-7.62 21.71-6.83 22.41-2.24 6.68-2.67 5.66-1.88 3.14-4.47 6.12-5.28 5.6-1.43.75-1.58-.3-.44-.1-.41.14-.41.18-.98-.02Z"/><path fill="#d4fccc" d="m169.08932007 189.87799438-.07.33-1.5.34-1.22-.01-.56.07-13.85 3.18-6.1 2.13-5.88 2.76-5.85 3.53-5.49 4.1-5.11 4.63-4.63 5.08-4.1 5.46-3.53 5.79-3.6 7.94-2.11 7.82v.02l-.72.44-8.76-1.69-8.02-.09-12.46 2.36-6.22 1.92-5.57 2.46-6.33 3.65-5.75 4.08-5.18 4.5-4.62 4.94-6.82 8.87-5.95 9.36-7.15 14.57-5.3 15.63-.6 5.11-.34 4.71-3.99-10.36-2.32-9.61 1.9-2.25 1.79-3.72.79-4.4.91-3.75 3.42-5.51.17-1.75.04-.48.2-.43 2.01-3.11 2.21-2.92 4.4-5.52 11.79-13.97 7.68-7.7 8.46-6.53 11.77-6.56 5.39-2.03 4.22-1.53 3.52-.76.66-.04 2.92-.94 1.21-1.68.33-2.74.6-3.89 3.42-9.49 4.78-8.57 3.58-4.75 4.08-4.41.48-.96-.64-.83 10.75-6.94 10.48-4.27 7.98-1.86 8.05-1.08 12.26-.15 1.46.49 16.63 11.01Zm113.01 81.05 15.81 11.68 2.28 1.63 3.32 2.84 1.23 2.83 1.67 6.07 1.28 4.81.98 7.27.09 7.24-1.06 8.63-2.35 8.58-5 10.99-6.77 9.42-8.17 7.59-9.8 6.14-.36.66.44 7.43-.17 7.22-.8 7.03-1.43 6.86-2.12 6.83-2.8 6.69-3.48 6.58-4.19 6.49-5.34 6.89-5.9 6.3-10.38 8.69-11.76 7.26-1.32.31-25.23-.49 13.97-6.74 12.57-8.5 10.16-9.2 9.01-10.63 5.03-7.56 3.97-7.74 2.91-7.91 1.85-8.07.42-3.1.46-13.71-.71-5.94-1.41-5.8-3.76-8.82-.18-1.05.77-.74 6.54-3.89 5.95-5.25 7.68-9.65 5.5-10.53 2.53-7.82 2.06-11.96.12-11.74-1.28-7-2.83-7.12Z"/><path fill="#b2a591" d="m365.39932007 127.32799438.05 3.34.08 1.31-.2 4.52-.31 3.53-.23 3.02-2.92 14.43-4.8 13.43-6.86 12.79-8.81 11.9-7.96 8.88-15.81 15.24-18.14 14.65-.53.4-26.9 19.26-17.54 11.75-.89-.04-18.16-15.08-.01-.8.06-.05 11.47-7.03 1.21-.95 1.32-2.41.57-3.85.51-3.62.81-2.95 3.07-10.05 4.7-14.37 2.54-9.95 1.58.44.13.97-2.74 14.97-1.73 9.06-2.87 11.89-2.8 14.12-.63 1.45-1.33.84-4.68 1.96-1.92 1.29-.88.94 1.28-.16 6.73-1.98 10.36-4.38 15.18-8.71 14.43-9.42 22.2-16.51 13.66-12.89 10.31-11.62 8.84-12.53 7.08-12.83 5.74-13.67 1.42-4.56 2.22-6.78.65-3 .2-1.32.71-1.44.35-.94.19-2.49Zm-162.03 14.5-4.2 9.46-4.3 9.43-9.35 23.55-.26.31-.39-.13-7.39-5.73 25.89-36.89Zm153.03 68.07-3.35 3.68-5.53 5.88-20.85 20.64-20.6 21.55-5.7 4.57-10.09-7.34v-.36l9.6-7.19 12.4-9.39 16.34-13.86 13.55-13.02 12.54-13.99.73-.84.42-.27.16.48.38 9.46Zm-112.14 4.82-3 7.21-2 7.37-.67 1.34-1 1.08-17.81 16.44 3.81-7.3.6-.89 4.91-7.32 6.76-11.19 3.09-3.61 5.31-3.13Z"/><path fill="#fefefe" d="m358.10932007 61.68799438-3.49-1.82-2.66-.34-10.98 2.24-10.03 2.45-9.86 2.98-15.09 5.38-5.57 2.48-5.57 2.69-9.15 4.48-8.88 5.2-8.63 5.9-8.37 6.61-3.01 3.07-2.56 3.72-.32.4-.37.25-1.11.92-3.56 4.72-4.13 3.99-.32.35-.16.31-.63 1.14-.52.49-2.79 3.13-.09.16-1.74 2.14-2.13 2.69-.71 1.68-.32.78-1.39 1.88-1.13 1.37-2.94 4.38-.3.48-.53 1.24-.87 1.75-.84 1.72-.51 1.23-.13.2-.8 1.47-.14.33-3.7 7.59-6.07 13.58-2.89 6.62-2.67 6.84-.52 1.55-.97 2.07-1.63 3.83-1.44 3.96-.68 1.51-3.29 9.28-1.78 4.08-1.47 3.04-.13.24-.04.04-.26.19-.34.31-.13.44-.93 3.94-.07 3.9.13.43.33.34 5.6 4.5 1.23.91 1.67.68.39.17.33.29.89 1.38 1.44 1.78 1.95.28-.33 1.37-.27.23-.34-.12-19.46-15.25-.38-.6.36-.61.25-.31.13-.69v-.62l.11-.62 6.73-21.63 7.76-20.55 8.79-19.46 9.83-18.37 10.98-16.58 6.5-8.31 6.73-7.49 4.19-4.15 11.54-9.71 12.73-8.44 13.94-7.18 15.14-5.9 20.71-5.74 9.28-1.71 14.62-1.1 5.56-.22.39.1.24.34 1.65 5.31Zm-138.12 51.19-11.51 2.05-11.02 2.88-9.49 1.41-9.25 1.25-10.3 1.75-8.9 1.9-10.78 4.02-9.75 4.84-8.56 5.41-10.68 9.99-4.69 4.66-2.47 2.67-1.59 2.12-8.85 12.45-.37.73.56 2.73-8.16 5.13-1.52.77.27-1.68 5.58-12.46 7.8-13.14 9.95-12.26 9.79-8.82 11.62-7.44 12.75-5.64 13.93-3.89 13.64-2.36 12.58-1.3 3.33-.43 3.17-.5 3.94-.27 4.27-.31 17.22-1.27.49.16-.13.49-2.87 4.36Zm-118.51 79.8.64.83-.48.96-4.08 4.41-3.58 4.75-4.78 8.57-3.42 9.49-.6 3.89-.33 2.74-1.21 1.68-2.92.94-.66.04-3.52.76-4.22 1.53-5.39 2.03-11.77 6.56-8.46 6.53-7.68 7.7-11.79 13.97-4.4 5.52-2.21 2.92-2.01 3.11-.2.43-.04.48-.17 1.75-3.42 5.51-.91 3.75-.79 4.4-1.79 3.72-1.9 2.25-.76-2.08.11-1.8.19-.46 3.25-9.1.07-.25 2.64-7.58 6.81-14.06 5.99-9.26 6.97-8.71 8.62-8.31 7.24-5.4 7.49-4.49 7.73-3.58 7.99-2.67 4.62-1.1.43-.22.21-.4 3.33-9.72 3.96-7.01 5.13-6.47 10.07-8.55Zm142.78 22.04-5.31 3.13-3.09 3.61-6.76 11.19-4.91 7.32-.6.89-3.81 7.3-3.77 4.21-.35.23-.46-.04-.61-.51-.01-.82 1.64-4.3 1.99-3.82 3.91-7.91 8.19-17.7.47-.77 3.7-2.87 1.26-.74 11.28-5.86.63-.08-.1.63-3.29 6.91Zm-52.75 20.21-1.63 1.33-1.34.87-2.99 2.09-8.65 6.46-27.34 17.77-24.87 17.57-9.72 8.29-7.92 9.54-5.53 9.55-4.1 10.53-3.2 10.12-1.35 2.79-.6.5-.12-.76 1.08-8.36 3.28-12.48 5.23-12.13 4.41-7.12 5.76-6.98 7.14-6.79 8.23-6.31 28.49-19.2 30.62-19.6.46-.19.47-.02.07.01 2.12.76 2 1.76Z"/><path fill="#ff7f3a" d="m197.149 239.458 6.08 4.37.43 1.41-4.84 13.07-1.76 6.87-.83 6.79v.08l.39.86.89.3 1.81-.6.07-.12.67-.4.74.25 10.84 9.1 2.43 2.08.15.15.55 1.55-.8 1.45-8.32 6.26-8.38 5.21-16.85 8.67-6.22 2.24-4.38 1.43-5.85 2.27-.6.1-.43-.07-.31-.2-.11-.32-.17-6.19.69-6.03 1.76-6.51 4.27-11.14 4.05-8.83 3.2-5.36 4.22-5.67.52-.87.23-.96-.02-.25-.45-.5-.67.08-1.39 1.01-.83.51-2.31.53-.55-.15.29-.49 11.2-9.54 4.64-4.68 5.95-7.76Z"/><path fill="#e22735" d="m146.889 308.448-2.61 25.49-1.09 4.23-.48 1.48-.03.18.79.57.46-.19.55-.45.35-.3.47-.23 11.22-3.73v.22l-.31.61-.15.85.06.54-.38.43-.1.08.15.62 2.15.33 1.08-.3.51-.16.47-.02 1.96-.08 1.54-.33 2.63-.66.52.01.44.28 1.27 1.99.26 1.58-.7.96-1.81.48-1.82.72-3.27 1.43-10.2 3.83-10.21 5.03-8.19 5.23-7.69 6.35-11.54 11.68-8.67 10.91-12.12 20.03-4.79 2.81-.74.15-.19-.73 1.54-10.86 3.3-14.16 3.94-13.32 4.58-12.47 5.22-11.63 6.13-11.07 6.98-10.13 7.47-8.7 7.95-7.28 1.94-.37 1.9.41.31.07 2.79-.19 1 .11.61.79.01.06.26 1.25.2.51.41.41.68.72.25.75.6.33.08-.05.64-.75.09-.76 1.33-5.59Z"/><path fill="#0b0817" d="m285.68 187.254-7.245-1.871-6.741-3.264-5.976-4.531-4.983-5.624-3.797-6.501-2.466-7.127-1.039-7.481.426-7.547 1.875-7.321 3.253-6.817 4.506-6.048 5.585-5.048 6.45-3.854 7.066-2.512 7.412-1.073 7.472.407 7.246 1.871 6.741 3.264 5.976 4.531 4.982 5.624 3.797 6.501 2.466 7.127 1.04 7.481-.426 7.546-1.876 7.322-3.253 6.816-4.505 6.049-5.585 5.048-6.45 3.854-7.067 2.512-7.411 1.073-7.473-.407Z"/><g fill="none" stroke-width="5" clip-path="url(#b)" transform="translate(-292.79067993 -286.96200562)"><path stroke="#92e6c4" d="m592.77 413.67-1.59 1.62-3.61 1.42-4.01.6-.22.06-4.47 1.58-4.29 2.19-3.67 2.61-2.37 2.69-2.03 3.9-1.23 3.94-2.89 11.05" vector-effect="non-scaling-stroke"/></g><path fill="#25ce89" d="m299.979 126.708 5.9 3.21 4.78 4.73 2.63 4.35 1.65 4.81.57 6.23-1.05 6.16-2.62 5.67-4 4.8-3.52 2.69-3.95 1.99-4.25 1.23-4.41.43-6.93-1-6.34-2.97-5.21-4.68-3.63-5.99 2.89-11.05 1.23-3.94 2.03-3.9 2.37-2.69 3.67-2.61 4.29-2.19 4.47-1.58.22-.06 4.01-.6 3.61-1.42 1.59-1.62Z"/><path fill="#fefefe" d="m299.979 126.708-1.59 1.62-3.61 1.42-4.01.6-.22.06-4.47 1.58-4.29 2.19-3.67 2.61-2.37 2.69-2.03 3.9-1.23 3.94-2.89 11.05-1.53-5.22-.3-5.43.93-5.36 2.12-5.01 3.68-4.91 4.8-3.81 5.61-2.46 6.06-.96 4.58.32 4.43 1.18Z"/><path fill="#fefefe" d="m285.973 135.647.33.993-.29 1.301-2.176 2.719-3.118 1.553-1.333.008-.9-.533-.33-.992.29-1.301 2.176-2.719 3.118-1.553 1.333-.008.9.532Z"/></svg>