<svg xmlns="http://www.w3.org/2000/svg" viewBox="1581.05 293.82 1024 1024"><defs><radialGradient id="_258" cx="2099.9" cy="817.77" r="484.84" data-name="258" gradientUnits="userSpaceOnUse"><stop offset=".53" stop-color="#fff"/><stop offset=".57" stop-color="#fbfdfe"/><stop offset=".6" stop-color="#f0f8fb"/><stop offset=".64" stop-color="#ddeff7"/><stop offset=".67" stop-color="#c2e3f1"/><stop offset=".7" stop-color="#a1d4ea"/><stop offset=".73" stop-color="#79c2e2"/><stop offset=".76" stop-color="#71b3d2"/><stop offset=".84" stop-color="#557f99"/><stop offset=".91" stop-color="#415970"/><stop offset=".97" stop-color="#354257"/><stop offset="1" stop-color="#313a4e"/></radialGradient><radialGradient id="_126" cx="2028.93" cy="536.03" r="614.57" data-name="126" gradientUnits="userSpaceOnUse"><stop offset=".21" stop-color="#eab655"/><stop offset="1" stop-color="#83706a"/></radialGradient><radialGradient id="_125" cx="2028.93" cy="536.03" r="614.57" data-name="125" gradientUnits="userSpaceOnUse"><stop offset="0" stop-color="#eab655"/><stop offset="1" stop-color="#83706a"/></radialGradient><radialGradient id="_113" cx="2095.66" cy="887.7" r="286.54" data-name="113" gradientUnits="userSpaceOnUse"><stop offset=".28" stop-color="#92ca8b"/><stop offset=".93" stop-color="#253851"/></radialGradient><linearGradient id="_109" x1="1910.4" x2="2274.76" y1="517.2" y2="1137.26" data-name="109" gradientUnits="userSpaceOnUse"><stop offset="0" stop-color="#efefef"/><stop offset="1" stop-color="#807f80"/></linearGradient><linearGradient id="_133" x1="1845.05" x2="2254.26" y1="607.88" y2="911.94" data-name="133" gradientUnits="userSpaceOnUse"><stop offset="0" stop-color="#efefef"/><stop offset=".44" stop-color="#95c85d"/><stop offset="1" stop-color="#52b44a"/></linearGradient><linearGradient id="_11" x1="2176.68" x2="2322.86" y1="877.27" y2="910.72" data-name="11" gradientUnits="userSpaceOnUse"><stop offset=".41" stop-color="#eaf1bf"/><stop offset="1" stop-color="#95c85d"/></linearGradient><linearGradient id="_12" x1="1873.28" x2="2029.05" y1="914.69" y2="883.78" data-name="12" gradientUnits="userSpaceOnUse"><stop offset="0" stop-color="#95c85d"/><stop offset="1" stop-color="#eaf1bf"/></linearGradient><clipPath id="clippath"><path d="M2377.19 829.53c0-156.71-127.04-283.76-283.76-283.76s-283.76 127.04-283.76 283.76c0 24.64 3.15 48.55 9.05 71.35l550.14-2.95c5.42-21.91 8.32-44.81 8.32-68.39Z" class="cls-11"/></clipPath><style>.cls-3{fill:#74bc49}.cls-7{fill:#881c21}.cls-9{fill:#fff}.cls-11{fill:none}.cls-19{fill:#231815}.cls-21{fill:#221714}.cls-27{fill:#db4231}</style></defs><g id="object-0"><path id="BG" fill="url(#_258)" d="M1581.05 293.82h1024v1024h-1024z"/><g id="_레이어_8" data-name="레이어 8"><path d="M2244.9 1217.79s39.18-2.07 43.33-42.95c0 0 .94 41.91 38.71 41.82 0 0-38.52 4.62-38.52 43.04 0 0-2.26-42.01-43.51-41.91Zm-376.57-46.17s.44 12.22 13.16 13.73c0 0-13.07.07-13.24 11.84 0 0-1.23-12.03-13.21-12.24 0 0 13.11-.48 13.3-13.34Zm620.32-226.37s.44 12.22 13.16 13.73c0 0-13.07.07-13.24 11.84 0 0-1.23-12.03-13.21-12.24 0 0 13.11-.48 13.3-13.34Zm-801.51-294.26s.18 5.14 5.38 5.78c0 0-5.34.03-5.42 4.99 0 0-.5-5.06-5.4-5.15 0 0 5.36-.2 5.44-5.62Zm32.56 268.07s.18 5.14 5.38 5.78c0 0-5.34.03-5.42 4.99 0 0-.5-5.06-5.4-5.15 0 0 5.36-.2 5.44-5.62Zm609.28 242.41s.18 5.14 5.38 5.78c0 0-5.34.03-5.42 4.99 0 0-.5-5.06-5.4-5.15 0 0 5.36-.2 5.44-5.62Zm-577.45-550.48s.2 5.94 6.21 6.68c0 0-6.18.04-6.26 5.76 0 0-.58-5.85-6.24-5.95 0 0 6.19-.24 6.29-6.49Zm-52.92 366.62s.42 10.86 12.33 12.21c0 0-12.24.05-12.39 10.51 0 0-1.16-10.69-12.38-10.88 0 0 12.27-.42 12.44-11.84Zm661.23-448.47s.26 7.53 7.87 8.46c0 0-7.82.05-7.93 7.3 0 0-.73-7.41-7.9-7.53 0 0 7.84-.3 7.96-8.22Zm-580.55 559.9s.26 7.53 7.87 8.46c0 0-7.82.05-7.93 7.3 0 0-.73-7.41-7.9-7.53 0 0 7.84-.3 7.96-8.22Zm650.32-560.66s.18 5.14 5.38 5.78c0 0-5.34.03-5.42 4.99 0 0-.5-5.06-5.4-5.15 0 0 5.36-.2 5.44-5.62Zm-5.41 71.99s.18 5.14 5.38 5.78c0 0-5.34.03-5.42 4.99 0 0-.5-5.06-5.4-5.15 0 0 5.36-.2 5.44-5.62Zm69.82 157.93s.18 5.14 5.38 5.78c0 0-5.34.03-5.42 4.99 0 0-.5-5.06-5.4-5.15 0 0 5.36-.2 5.44-5.62Zm13.23-194.12s.18 5.14 5.38 5.78c0 0-5.34.03-5.42 4.99 0 0-.5-5.06-5.4-5.15 0 0 5.36-.2 5.44-5.62Zm-13.23 143.47s.18 5.14 5.38 5.78c0 0-5.34.03-5.42 4.99 0 0-.5-5.06-5.4-5.15 0 0 5.36-.2 5.44-5.62Zm-20.62 167.59s.38 10.43 11.42 11.72c0 0-11.34.06-11.48 10.1 0 0-1.07-10.26-11.46-10.44 0 0 11.37-.41 11.53-11.37Zm-279.5-435.16s.18 5.14 5.38 5.78c0 0-5.34.03-5.42 4.99 0 0-.5-5.06-5.4-5.15 0 0 5.36-.2 5.44-5.62Zm-488.52 306.15s.18 5.14 5.38 5.78c0 0-5.34.03-5.42 4.99 0 0-.5-5.06-5.4-5.15 0 0 5.36-.2 5.44-5.62Zm119.95-217.46s.18 5.14 5.38 5.78c0 0-5.34.03-5.42 4.99 0 0-.5-5.06-5.4-5.15 0 0 5.36-.2 5.44-5.62Zm-38.69-3.23s.47 13.65 14.26 15.33c0 0-14.18.09-14.37 13.23 0 0-1.33-13.43-14.32-13.65 0 0 14.22-.54 14.43-14.9Zm647.2 116.55s.47 13.65 14.26 15.33c0 0-14.18.09-14.37 13.23 0 0-1.33-13.43-14.32-13.65 0 0 14.22-.54 14.43-14.9Zm-162.31-186.01s35.16-2.03 38.88-42.16c0 0 .85 41.14 34.74 41.05 0 0-34.57 4.53-34.57 42.25 0 0-2.03-41.24-39.05-41.14Zm-631.37 364s31.14-1.81 34.43-37.57c0 0 .75 36.66 30.76 36.58 0 0-30.61 4.04-30.61 37.65 0 0-1.8-36.75-34.58-36.66Z" class="cls-9"/><path fill="none" stroke="#fff" stroke-linecap="round" stroke-linejoin="round" stroke-width="8" d="M1698.56 933.58s36.67 152.32 161.37 237.7m634.06-458.24s-36.67-152.32-161.37-237.7" opacity=".3"/></g><g id="_원판" data-name="원판"><circle cx="2093.05" cy="828.03" r="361.22" fill="url(#_109)"/><ellipse cx="2086.46" cy="815.1" fill="#383640" rx="334.34" ry="332.64"/><ellipse cx="2095.72" cy="838.8" fill="#fafdf9" rx="340.32" ry="335.58"/><circle cx="2093.44" cy="828.03" r="340.32" fill="#382f3b"/><path d="M2093.44 497.72c44.6 0 87.85 8.73 128.57 25.95 39.33 16.64 74.66 40.45 105 70.79 30.34 30.34 54.16 65.67 70.79 105 17.22 40.72 25.95 83.97 25.95 128.57s-8.73 87.85-25.95 128.57c-16.64 39.33-40.45 74.66-70.79 105-30.34 30.34-65.67 54.16-105 70.79-40.72 17.22-83.97 25.95-128.57 25.95s-87.85-8.73-128.57-25.95c-39.33-16.64-74.66-40.45-105-70.79-30.34-30.34-54.16-65.67-70.79-105-17.22-40.72-25.95-83.97-25.95-128.57s8.73-87.85 25.95-128.57c16.64-39.33 40.45-74.66 70.79-105 30.34-30.34 65.67-54.16 105-70.79 40.72-17.22 83.97-25.95 128.57-25.95m0-10c-187.95 0-340.32 152.36-340.32 340.32s152.36 340.32 340.32 340.32 340.32-152.36 340.32-340.32-152.36-340.32-340.32-340.32Z" class="cls-19"/><path fill="url(#_126)" d="m2311.1 619.54 8.09-6.21c-1.91-2.02-3.85-4.01-5.82-5.99-13.16-13.16-27.3-24.99-42.24-35.43l-5.23 8.77c16.32 11.45 31.47 24.47 45.21 38.85Z"/><path fill="url(#_125)" d="M1956.5 1095.32c-1.45 3.05-2.92 6.16-4.36 9.2 8.34 4.26 16.87 8.13 25.56 11.61.95-2.96 2.01-6.28 3.12-9.7-8.29-3.36-16.42-7.06-24.33-11.12Zm32.72 14.38c-1.02 3.13-2.06 6.38-3.11 9.66 6.72 2.47 13.54 4.7 20.43 6.69.67-3.07 1.42-6.46 2.17-9.9-6.59-1.94-13.1-4.08-19.5-6.45Zm-62.51-31.91-5.56 8.55c7.49 5 15.17 9.64 23.03 13.95 1.35-2.87 2.85-6.03 4.37-9.22-7.48-4.12-14.76-8.56-21.84-13.28Zm-24.97-18.58-6.15 8.09c5.9 4.88 11.95 9.52 18.15 13.93l5.54-8.53c-6.02-4.28-11.87-8.78-17.55-13.48Zm356.69-483.58 5.22-8.76c-19.6-12.87-40.49-23.4-62.35-31.47l-3.53 9.5c21.47 7.96 41.79 18.31 60.65 30.72Zm-165 552.68c-2.64 0-5.26-.04-7.88-.1l-.26 10c2.71.07 5.42.11 8.14.11s5.52-.04 8.27-.11l-.26-10c-2.66.07-5.34.11-8.02.11Zm-36.38-2.21-.56 10.03c6.56.77 13.16 1.34 19.81 1.7l.26-10.01c-6.56-.36-13.07-.94-19.51-1.72Zm-39.65-7.53c-.74 3.37-1.48 6.73-2.16 9.86 10.61 2.73 21.38 4.93 32.3 6.53l.56-10.07c-10.42-1.58-20.66-3.7-30.7-6.32Zm-222.17-332.43-10-.93c-1.66 12.37-2.59 24.91-2.77 37.57h10c.18-12.41 1.12-24.63 2.77-36.64Zm6.51-33.34-10.17-.94c-2 8.05-3.66 16.2-5.01 24.44l10.03.93c1.39-8.26 3.1-16.41 5.15-24.43Zm149.84-190.96-5.68-8.52c-7.77 4.2-15.37 8.75-22.79 13.62l6.22 8.1c7.21-4.71 14.63-9.11 22.25-13.2Zm-29.72 18.24-6.22-8.09c-14.9 10.43-29.01 22.23-42.14 35.36-1.98 1.98-3.92 3.98-5.84 6.01l8.42 5.87c13.9-14.51 29.24-27.63 45.78-39.15Zm72.31-36.99-4.06-9.33c-12.38 4.35-24.47 9.47-36.2 15.37l5.71 8.56c11.14-5.55 22.68-10.44 34.55-14.59Zm-201.71 288.69h-10c.24 17 1.82 33.79 4.73 50.23l9.98-1.25c-2.87-15.93-4.46-32.3-4.7-48.98Zm6.45 57.83-10.02 1.25c1.89 9.15 4.17 18.18 6.87 27.08l9.52-3.53c-2.46-8.13-4.59-16.4-6.37-24.8Zm467.79 183.69 6.03 8.21c5.98-4.24 11.84-8.7 17.55-13.38l-7.35-7.14c-5.27 4.28-10.68 8.39-16.23 12.31Zm127.71-250.52h10c-.17-12.28-1.05-24.44-2.62-36.44l-9.89 1.62c1.5 11.42 2.34 23.04 2.51 34.82Zm-3.83-43.73 9.91-1.62c-1.57-9.83-3.61-19.55-6.11-29.12l-9.88 2.11c2.48 9.37 4.51 18.93 6.08 28.63Zm3.83 52.73c-.25 16.77-1.85 33.21-4.75 49.22l9.87 1.87c3-16.71 4.64-33.79 4.89-51.09h-10Zm-154.21 258.24 4.61 9.1c6.98-3.9 13.82-8.07 20.5-12.52l-6.04-8.23c-6.2 4.11-12.56 7.99-19.07 11.64Zm140.96-174.15c2.91.76 6.27 1.61 9.82 2.49 2.67-8.76 4.93-17.65 6.82-26.66l-9.89-1.87c-1.87 8.83-4.12 17.51-6.75 26.04Zm-2.79 8.57c-2.35 6.87-4.93 13.63-7.76 20.26 2.49 1.14 5.53 2.54 9.23 4.24 3.07-7.22 5.87-14.56 8.37-22.01-1.12-.28-2.26-.56-3.4-.85-2.39-.6-4.54-1.15-6.44-1.65Zm-267.93 203.38.26 10.01c7.35-.4 14.66-1.05 21.91-1.95l-1.7-9.89c-6.75.84-13.58 1.45-20.46 1.84ZM1869.9 625.89l-8.38-5.85c-32.01 35.73-54.94 77.67-67.62 123l10.24.95c12.81-44.42 35.59-84.65 65.76-118.1Zm269.92 498.84 1.7 9.89c10.87-1.68 21.59-3.92 32.14-6.72l-3.22-9.59c-10.02 2.65-20.23 4.81-30.62 6.42Zm39.3-8.87 3.22 9.6c8.09-2.4 16.07-5.12 23.92-8.17l-4.32-9.23c-7.47 2.9-15.08 5.5-22.82 7.8Zm202.94-374.12 9.92-2.12c-12.86-44.04-35.45-84.79-66.68-119.64l-8.07 6.19c29.53 32.83 51.95 72.16 64.83 115.56Zm-171.76 362.95 4.31 9.2c7.56-3.2 14.98-6.7 22.27-10.49l-4.6-9.09c-7.17 3.74-14.49 7.22-21.98 10.38Zm-416.4-361.65-4.16-.39m-.83 8.96 2.66.25"/></g><g id="_레이어_7" clip-path="url(#clippath)" data-name="레이어 7"><path fill="url(#_133)" d="M2373.2 828.03c0-154.51-125.25-279.76-279.76-279.76s-279.76 125.25-279.76 279.76c0 24.3 3.1 47.87 8.92 76.14l542.4-2.91c5.35-27.39 8.2-49.97 8.2-73.23Z"/><path fill="url(#_113)" d="M2093.44 1083.8c-68.32 0-132.55-26.6-180.86-74.91s-74.91-112.54-74.91-180.86 26.6-132.55 74.91-180.86 112.54-74.91 180.86-74.91 132.55 26.6 180.86 74.91 74.91 112.54 74.91 180.86-26.6 132.55-74.91 180.86-112.54 74.91-180.86 74.91Z"/><path d="M2093.44 577.26c33.86 0 66.7 6.63 97.61 19.7 29.86 12.63 56.68 30.71 79.71 53.75 23.03 23.03 41.12 49.85 53.75 79.71 13.07 30.91 19.7 63.75 19.7 97.61s-6.63 66.7-19.7 97.61c-12.63 29.86-30.71 56.68-53.75 79.71-23.03 23.03-49.85 41.12-79.71 53.75-30.91 13.07-63.75 19.7-97.61 19.7s-66.7-6.63-97.61-19.7c-29.86-12.63-56.68-30.71-79.71-53.75-23.03-23.03-41.12-49.85-53.75-79.71-13.07-30.91-19.7-63.75-19.7-97.61s6.63-66.7 19.7-97.61c12.63-29.86 30.71-56.68 53.75-79.71 23.03-23.03 49.85-41.12 79.71-53.75 30.91-13.07 63.75-19.7 97.61-19.7m0-10c-144.02 0-260.77 116.75-260.77 260.77s116.75 260.77 260.77 260.77 260.77-116.75 260.77-260.77-116.75-260.77-260.77-260.77Z" class="cls-19"/><path fill="none" stroke="#040000" stroke-linecap="square" stroke-miterlimit="10" stroke-width="11" d="M2365 895.46c5.35-21.6 8.2-44.18 8.2-67.43 0-154.51-125.25-279.76-279.76-279.76s-279.76 125.25-279.76 279.76c0 24.3 3.1 47.87 8.92 70.34"/><path fill="url(#_11)" d="M2273.62 845c-20.74 0-38.45 13.45-45.51 32.42-4.5.75-8.36 3.09-10.54 6.87-1.53 2.66-2.02 5.68-1.63 8.72-1.29-1.09-2.69-2.09-4.21-2.97-12.92-7.46-29.06-3.69-36.05 8.41-6.99 12.1-2.18 27.96 10.74 35.42 12.92 7.46 29.06 3.69 36.05-8.41 3.33-5.77 3.98-12.39 2.35-18.55.46.33.94.65 1.43.95 5.24 22.14 24.46 38.56 47.38 38.56 26.95 0 48.8-22.71 48.8-50.71s-21.85-50.71-48.8-50.71Z"/><path fill="url(#_12)" d="M1995.76 884.17c-8.94 0-17.05 3.56-23 9.33.11-.68.19-1.38.19-2.08 0-5.49-3.44-10.34-8.69-13.25-5.29-22.95-30.43-36.77-56.18-30.87-25.77 5.9-42.39 29.32-37.13 52.3 5.26 22.98 30.42 36.83 56.19 30.92 14.79-3.39 26.55-12.55 32.91-24.08 1.99-.62 3.83-1.47 5.46-2.53-1.79 4.07-2.79 8.56-2.79 13.28 0 18.24 14.79 33.03 33.03 33.03s33.03-14.79 33.03-33.03-14.79-33.03-33.03-33.03Z"/><path fill="#ea512c" d="m2098.47 901.85 63.08-.74s-12.26-65.96-34.88-104.46l-24.08-.87.02-.42-5.8.21-5.8-.21.02.42-24.08.87c-22.62 38.5-34.88 104.46-34.88 104.46l63.08.74v.04l1.65-.02 1.65.02v-.04Z"/><path fill="#f3c52d" d="m2098.15 901.37 50.91-.73s-11.89-64.99-30.15-102.94l-17.43-.86v-.41l-4.66.21-4.68-.21v.41l-17.42.86c-18.25 37.94-30.15 102.94-30.15 102.94l50.91.73v.04l1.33-.02 1.33.02v-.04Z"/><path fill="#efec62" d="m2097.97 901.37 31.01-.73s-4.96-63.24-13.06-102.94l-15.07-.86v-.41l-4.03.21-4.04-.21v.41l-15.06.86c-10.02 39.1-14.06 102.94-14.06 102.94l32.01.73v.04l1.15-.02 1.15.02v-.04Z"/><path fill="#feffff" d="m2079.05 795.36-4.92 108h44.54l-3.54-109.21-36.08 1.21z"/></g><g id="_로켓" data-name="로켓"><path d="M1889.98 706.63s26.94-1.42 29.78-29.53c0 0 .65 28.81 26.61 28.75 0 0-26.48 3.17-26.48 29.59 0 0-1.55-28.88-29.91-28.81Zm69.24-72.71s.44 12.22 13.16 13.73c0 0-13.07.07-13.24 11.84 0 0-1.23-12.03-13.21-12.24 0 0 13.11-.48 13.3-13.34Zm261.08 1.32s.44 12.22 13.16 13.73c0 0-13.07.07-13.24 11.84 0 0-1.23-12.03-13.21-12.24 0 0 13.11-.48 13.3-13.34ZM1882.69 784.6s.47 13.65 14.26 15.33c0 0-14.18.09-14.37 13.23 0 0-1.33-13.43-14.32-13.65 0 0 14.22-.54 14.43-14.9Zm424.49-3.52s.47 13.65 14.26 15.33c0 0-14.18.09-14.37 13.23 0 0-1.33-13.43-14.32-13.65 0 0 14.22-.54 14.43-14.9Zm-73.72-82.63s31.14-1.81 34.43-37.57c0 0 .75 36.66 30.76 36.58 0 0-30.61 4.04-30.61 37.65 0 0-1.8-36.75-34.58-36.66Z" class="cls-9"/><path d="M2151.65 532.8c-7.25 1.35-26.17 4.25-54.43 4.25-26.26 0-47.36-2.51-57.29-3.94-7.24 20.78-12.2 44.63-12.2 71.03 0 97.84 22.07 132.03 22.07 132.03h92.1s22.07-34.18 22.07-132.03c0-26.53-5.01-50.49-12.31-71.34Z" class="cls-27"/><path d="M2136.56 535.6s14.83 18.37 15.45 74.31-21.3 100.66-21.3 100.66l-16.06 28.49h22.45s17.09-46.27 20.55-83.91 2.39-88.34-10.79-121.06l-10.29 1.51Z" class="cls-7"/><circle cx="2096.57" cy="603.23" r="44.81" fill="#d9dcdd"/><path d="M2147.56 521.99c-20.13-49.47-51.65-78.69-51.71-78.74-.06.06-31.65 29.34-51.78 78.92 11.03 1.44 30.11 3.38 53.16 3.38s41.23-2.09 50.34-3.55Z" class="cls-27"/><path fill="#f0f5f9" d="M2048.92 747.61s-.97 11.57 12.18 11.57h72.02c12.58 0 9.27-11.57 9.27-11.57h-93.47Z"/><path fill="#f2f4f2" d="M2060.7 769.92s-11.41 18.65 3.23 18.65h62.62c16.59 0 4.28-18.65 4.28-18.65h-70.13Z"/><path d="M2037.65 740.49s-14.24-27.45-18.39-65.01c0 0-35.09 23.7-43.64 66.82s14.89 76.4 16.96 75.88-8.55-45.32 45.06-77.7Zm116.77 0s14.24-27.45 18.39-65.01c0 0 35.09 23.7 43.64 66.82 8.55 43.12-14.89 76.4-16.96 75.88s8.55-45.32-45.06-77.7Z" class="cls-27"/><circle cx="2096.57" cy="603.23" r="27.06" fill="#31b5e2"/><path fill="#fefefe" d="M2095.54 442.12s2.29 6.95-.56 10.06-12.35 13.6-24.6 36.93c-11.71 22.29-15.33 35.78-15.33 35.78l-14.19-1.86 3.21-14.24 31.69-50.18 20.07-16.49"/><path d="M2097.76 450.84s9.72 6.4 25.88 32.84c13.99 22.88 18.37 37.63 30.6 40.93l-24.76 2.37s1.81-12.17-11.65-40.99c-13.11-28.06-20.72-33.73-20.07-35.16Z" class="cls-7"/><path d="M2153.56 534.16s-8.15 5.48-45.96 6.9-56.37-1.47-56.37-1.47-16.77 34.12-16.77 85.66c0 63.37 21.41 112.88 21.41 112.88h-8.91s-21.24-35.61-21.5-96.09 1.42-91.29 6.47-102.82 13.08-9.84 13.08-9.84l108.63.91-.08 3.87Z" class="cls-9"/><path fill="#c5e6ea" d="M2083.54 578.31s13.07-4.55 16.96 2.91 1.33 11.98-8.24 21.04c-10.47 9.91-15.6 8.29-16.04 11.2-.41 2.71 10.73 15.07 20.18 14.29 12.56-1.04 24.22-8.83 24.99-20.55 2.24-33.88 3.56 2.24 2.24 6.45-1.08 3.47-11.35 25.51-31.1 20.05-18.58-5.14-22.72-11.68-25.77-21.99-3.12-10.54.71-26.22 16.77-33.41Z"/><path d="M2023.13 684.24s-23.91 14.85-34.88 44.46-5.78 66.82 5.87 92.89-9.32-4.32-9.32-4.32-17.09-30.73-17.01-54.56 8.63-47.57 22.27-64.4 29.87-26.5 29.87-26.5l3.19 12.43Z" class="cls-9"/><path d="M2036.94 732.5s-21.76 2.24-37.55 29.87-6.04 58.96-6.04 58.96l3.71-3.13s11.83-45.82 11.91-46.07 26.16-23.78 26.16-23.78l7.77-6.52-5.96-9.32Z" class="cls-7"/><path fill="#84859b" d="m2059.38 767.55-4.23 9.36h84.52l-6.99-11.78-73.3 2.42z"/><path fill="#818599" d="m2139.67 762.02 6.82-8.93-1.89-9.2h-12.1s.26 15.8-14.94 17.35l22.1.78Z"/><path d="M2155.04 729.13s37.04 15.88 47.14 48.78c0 0 4.13-7.49 4.58-19.73.6-16.45-3.27-27.62-1.81-27.93 3.02-.65 18.3 60.52-.26 86.68l-7.17 6.39-3.45-11.65s1.04-23.48-10.1-38.5-34.9-29.78-34.9-29.78l5.98-14.24Z" class="cls-7"/><path d="M2142.39 747.61s3.31 11.57-9.27 11.57h-72.02c-13.15 0-12.18-11.57-12.18-11.57h93.47m0-13h-93.47c-6.76 0-12.39 5.18-12.95 11.92-.15 1.74-.53 10.77 6.13 18.01 3.21 3.49 9.11 7.64 19 7.64h72.02c10.1 0 15.63-4.53 18.5-8.33 6.17-8.18 3.81-17.94 3.28-19.81-1.59-5.58-6.7-9.43-12.5-9.43Z" class="cls-21"/><path d="M2130.83 772.86s12.31 15.72-4.28 15.72h-62.62c-14.64 0-3.23-15.72-3.23-15.72h70.13m0-13h-70.13c-4.16 0-8.07 1.99-10.52 5.36-3.22 4.43-10.12 15.87-4.77 26.37 1.9 3.73 6.83 9.98 18.52 9.98h62.62c12.81 0 17.95-6.63 19.87-10.58 5.38-11.05-2.74-22.82-5.36-26.16-2.46-3.15-6.24-4.98-10.23-4.98Zm-111.57-84.37c4.14 37.55 18.39 65.01 18.39 65.01-53.61 32.37-42.99 77.18-45.06 77.7h-.05c-2.38 0-25.39-33.1-16.91-75.89 8.55-43.12 43.64-66.82 43.64-66.82m-.01-13c-2.55 0-5.09.75-7.28 2.23-1.61 1.09-39.64 27.24-49.12 75.07-8.31 41.91 9.92 75.5 17.64 84.9 1.46 1.78 5.35 6.51 12.02 6.51 1.08 0 2.16-.13 3.21-.4 4.54-1.13 9.58-5.07 10.1-12.72.07-1.06.07-2.14.07-3.5-.02-10.86-.06-39.7 38.45-62.96 5.87-3.54 7.98-11.03 4.82-17.12-.12-.24-13.2-25.98-17.01-60.45-.5-4.53-3.33-8.46-7.46-10.37-1.74-.81-3.6-1.2-5.46-1.2Zm153.55 13s35.09 23.7 43.64 66.82c8.48 42.79-14.53 75.89-16.91 75.89h-.05c-2.07-.52 8.55-45.32-45.06-77.7 0 0 14.24-27.45 18.39-65.01m-.01-13c-1.86 0-3.72.4-5.46 1.2-4.13 1.91-6.96 5.85-7.46 10.37-3.8 34.47-16.88 60.21-17.02 60.47-3.13 6.08-1.02 13.56 4.83 17.1 38.51 23.26 38.47 52.1 38.45 62.96 0 1.36 0 2.44.07 3.5.52 7.64 5.57 11.58 10.11 12.72 1.04.26 2.12.39 3.2.39 6.67 0 10.56-4.73 12.02-6.51 7.72-9.41 25.95-42.99 17.64-84.9-9.48-47.82-47.5-73.98-49.12-75.07-2.18-1.48-4.72-2.23-7.28-2.23Zm-76.24-86.33c14.95 0 27.06 12.12 27.06 27.06s-12.12 27.06-27.06 27.06-27.06-12.12-27.06-27.06 12.12-27.06 27.06-27.06m0-8c-19.33 0-35.06 15.73-35.06 35.06s15.73 35.06 35.06 35.06 35.06-15.73 35.06-35.06-15.73-35.06-35.06-35.06Z" class="cls-21"/><ellipse cx="2086.74" cy="589.68" class="cls-9" rx="16.9" ry="10.79" transform="rotate(-35.87 2086.43884632 589.6872478)"/><path d="M2051.77 620.22s.43 3.88 5.61 10.62 3.5 2.59 0-11.4 1.48-41.42 16.12-50.36c16.65-10.17 29.6-7.53 35.04-6.23s21.32.13.76-6.35-46.21 2.85-50.61 13.86-13.94 18.65-6.91 49.86Z" class="cls-9"/><path fill="#f8f9fd" d="M2080.17 652.51s24.74 10.37 46.49-2.89c12.95-7.9 23.44-29.31 17.94-33.37s-13.67 17.54-29.94 24.43c-18.95 8.03-41.1 1-34.49 11.83Z"/><path d="M2096.57 558.42c24.75 0 44.81 20.06 44.81 44.81s-20.06 44.81-44.81 44.81-44.81-20.06-44.81-44.81 20.06-44.81 44.81-44.81m0-8c-29.12 0-52.81 23.69-52.81 52.81s23.69 52.81 52.81 52.81 52.81-23.69 52.81-52.81-23.69-52.81-52.81-52.81Z" class="cls-21"/><path d="M2163.92 528.51c-.72-2.06-3.51-9.43-4.32-11.42-20.56-50.52-52.22-80.85-54.8-83.27-1.05-1-2.26-1.82-3.61-2.43-.44-.2-.88-.37-1.34-.52h-.02c-1.04-.34-2.11-.53-3.18-.6h-.01c-.26-.02-.52-.02-.79-.02-1.51 0-3.03.26-4.49.8-1.71.63-3.23 1.59-4.5 2.81-2.79 2.62-34.36 32.98-54.84 83.42-.82 2.01-3.63 9.47-4.36 11.56-8.58 24.61-12.93 49.95-12.93 75.31 0 41.7 3.86 77.38 11.47 106.04 5.87 22.12 12 31.99 12.68 33.04 2.39 3.71 6.51 5.95 10.92 5.95h92.1c4.41 0 8.53-2.24 10.92-5.95.68-1.05 6.8-10.91 12.68-33.04 7.61-28.66 11.47-64.34 11.47-106.04 0-25.47-4.39-50.91-13.04-75.63Zm-68.08-85.26c.06.06 30.91 28.67 51.06 77.19-7.97 1.34-25.11 3.61-49.69 3.61-23.03 0-41.9-1.98-52.53-3.4 20.15-48.65 51.09-77.34 51.15-77.4Zm46.05 292.92h-92.1s-22.07-34.18-22.07-132.03c0-25.88 4.78-49.31 11.78-69.8.91.34 1.87.58 2.86.71 12.16 1.59 31.54 3.49 54.85 3.49s41.8-2.02 52.39-3.71c.86-.14 1.69-.37 2.5-.68 7.04 20.53 11.85 44.03 11.85 69.98 0 97.84-22.07 132.03-22.07 132.03Z" class="cls-21"/><path d="M2107.83 698.77c.26-12.32-11.92-22.14-11.98-22.18-.06.05-12.24 9.87-11.98 22.19.25 11.97 8.84 114.43 11.73 120.57.08.19.16.29.25.29.08 0 .17-.1.25-.29 2.89-6.14 11.48-108.6 11.73-120.57Z" class="cls-27"/><path d="M2095.84 673.79s.55 2.24.55 7.34-2.14 11.82-5.59 16.87-3.8 7.56-3.54 17.14 8.58 107.74 8.58 107.74l-4.04-2.68-12.21-119.57 3.63-14.85 12.63-12Z" class="cls-9"/><path d="m2096.38 682.08-.53 142.01 5.24-18.28 8.2-101.29s-12-13.64-12.91-22.44Z" class="cls-7"/><path d="M2095.84 676.58c.06.05 12.24 9.87 11.98 22.19-.25 11.97-8.84 114.43-11.73 120.57-.08.19-.16.29-.25.29-.08 0-.17-.1-.25-.29-2.89-6.14-11.48-108.6-11.73-120.57-.26-12.32 11.92-22.14 11.98-22.18m0-13.01c-1.72 0-3.45.34-5.09 1.04-1.23.52-2.34 1.22-3.33 2.06-2.69 2.23-16.92 14.88-16.56 32.36.14 6.56 2.39 35.58 4.93 63.38 5.07 55.65 6.77 59.76 8 62.37 2.2 4.77 6.89 7.84 12.05 7.84s9.86-3.06 12.05-7.84c1.23-2.61 2.93-6.72 8-62.37 2.53-27.8 4.79-56.82 4.93-63.38.37-17.63-14.11-30.35-16.62-32.42-.72-.6-1.5-1.13-2.35-1.57-1.86-.97-3.93-1.47-6.01-1.47Z" class="cls-21"/></g><g id="text"><path d="M1860.97 910.33h20v55.9c0 17.66-10.76 27.01-27.01 27.01s-28.65-9.82-28.65-28.3h19.88c0 7.02 3.04 10.41 8.19 10.41 4.79 0 7.6-3.04 7.6-9.12v-55.9Zm88.17 16.02h-30.29v16.61h26.78v15.44h-26.78v18.01h30.29v16.02h-50.29v-82.09h50.29v16.02Zm17.3-16.02h63.5v16.02h-21.75v66.07h-20v-66.07h-21.75v-16.02Zm114.72 52.63h-12.4v29.47h-20v-82.09h32.39c20.11 0 30.17 11.34 30.17 26.43 0 13.57-9.24 26.2-30.17 26.2Zm-1.52-15.91c7.95 0 11.34-3.98 11.34-10.29s-3.39-10.29-11.34-10.29h-10.88v20.58h10.88Zm94.95 30.87h-30.64l-4.91 14.5h-20.93l29.7-82.09h23.15l29.7 82.09h-21.17l-4.91-14.5Zm-15.32-45.49-10.06 30.05h20.23l-10.17-30.05Zm87.71-23.03c19.53 0 34.26 10.99 38.94 28.77h-21.99c-3.39-7.02-9.59-10.52-17.19-10.52-12.28 0-20.7 9.12-20.7 23.62s8.42 23.62 20.7 23.62c7.6 0 13.8-3.51 17.19-10.52h21.99c-4.68 17.78-19.41 28.65-38.94 28.65-24.21 0-41.28-17.19-41.28-41.75s17.07-41.87 41.28-41.87Zm65.95 46.77v36.25h-20v-82.09h20v36.02l27.36-36.02h23.51l-31.81 40.23 32.98 41.87h-24.44l-27.6-36.25Z" class="cls-9"/><path d="M2152.04 954.04h14.55l-7.32-21.61-7.23 21.61zm-72.4-27.57h-10.88v20.58h10.88c7.95 0 11.34-3.98 11.34-10.29s-3.39-10.29-11.34-10.29Z" class="cls-11"/><path fill="#e6e6e6" d="M1853.36 975.35c-5.15 0-8.19-3.39-8.19-10.41h-19.88c0 18.48 11.81 28.3 28.65 28.3s27.01-9.36 27.01-27.01v-12.19h-20v12.19c0 6.08-2.81 9.12-7.6 9.12Zm95.78 17.08V976.4h-30.29v-18h26.78v-4.36h-46.78v38.39h50.29zm39.05-38.39h20v38.38h-20zm80.57 38.39v-29.47h12.4c11.1 0 18.91-3.55 23.8-8.91h-56.2v38.38h20Zm70.28 0 4.91-14.51h30.64l4.91 14.51h21.17l-13.89-38.39h-20.19l2.85 8.45h-20.23l2.83-8.45h-20.05l-13.88 38.39h20.93zm107.94.58c19.53 0 34.26-10.88 38.94-28.65h-21.99c-3.39 7.02-9.59 10.52-17.19 10.52-11.47 0-19.57-7.97-20.59-20.84h-20.38c1.24 23.06 17.92 38.97 41.2 38.97Zm65.95-.58v-36.26l27.6 36.26h24.44l-30.24-38.39h-41.8v38.39h20z"/><path d="M1918.2 1052.48v7.71h-3.01v-18.35h9.06c3.87 0 6.37 1.81 6.37 5.04 0 2.25-1.17 3.78-3.32 4.37 1.1.33 2.84 1.2 2.84 4.43v.83c0 1.37-.01 2.89.22 3.68h-3.11c-.28-.8-.26-2.12-.26-3.76v-.61c0-2.5-.96-3.34-4.05-3.34h-4.73Zm0-2.42h5.31c2.7 0 3.99-.95 3.99-2.98 0-1.87-1.31-2.83-3.91-2.83h-5.39v5.82Zm29.96 1.77h-10.82v5.84h11.96l-.39 2.52h-14.61v-18.35h14.43v2.52h-11.4v4.96h10.82v2.52Zm10.12 8.36-7.89-18.35h3.34l3.95 9.54c1.46 3.55 2.05 5.24 2.39 6.3h.05c.28-.93.98-2.61 2.32-6.06l4.11-9.78h3.24l-8.02 18.35h-3.5Zm31.44-9.24c0 5.16-3.48 9.62-9.76 9.62s-9.65-4.25-9.65-9.63c0-5.08 3.78-9.5 9.75-9.5s9.65 4.43 9.65 9.51Zm-16.2-.07c0 3.83 2.25 7.21 6.57 7.21s6.42-3.34 6.42-7.09-2.2-7.07-6.59-7.07c-4.11 0-6.4 3.27-6.4 6.95Zm19.56-9.05h3.02v15.82h10.88l-.44 2.53h-13.46v-18.35Zm18.54 0v10.42c0 4.59 2.64 5.84 5.3 5.84 3.13 0 5.06-1.46 5.06-5.84v-10.42h3.03v10.43c0 5.87-3.12 8.31-8.2 8.31s-8.23-2.42-8.23-8.13v-10.61h3.03Zm22.65 2.52h-6.87v-2.52h16.78v2.52h-6.86v15.83h-3.05v-15.83Zm15.3-2.52v18.35h-3.03v-18.35h3.03Zm22.92 9.12c0 5.16-3.48 9.62-9.76 9.62s-9.65-4.25-9.65-9.63c0-5.08 3.78-9.5 9.75-9.5s9.65 4.43 9.65 9.51Zm-16.19-.07c0 3.83 2.25 7.21 6.57 7.21s6.42-3.34 6.42-7.09-2.2-7.07-6.59-7.07c-4.11 0-6.4 3.27-6.4 6.95Zm19.55 9.31v-18.35h3.62c4.37 6.25 9.36 12.68 10.42 14.64h.05c-.17-2.28-.14-5.3-.14-8.29v-6.34h2.82v18.35h-3.41c-2.49-3.44-9.37-13.15-10.63-15.28h-.05c.14 2.34.14 4.94.14 8.19v7.09h-2.82Zm19.49-2.21 12.39-13.67h-11.8v-2.47h15.72v2.35l-12.26 13.53h12.95l-.4 2.47h-16.59v-2.21Zm22.43-16.15v18.35h-3.04v-18.35h3.04Zm4.57 18.36v-18.35h3.62c4.37 6.25 9.36 12.68 10.42 14.64h.05c-.17-2.28-.14-5.3-.14-8.29v-6.34h2.82v18.35h-3.41c-2.49-3.44-9.37-13.15-10.63-15.28h-.05c.14 2.34.14 4.94.14 8.19v7.09h-2.82Zm38.67 0h-2.28c-.09-.44-.21-1.74-.23-2.52-1.21 1.84-3.01 2.9-6.57 2.9-5.83 0-9.32-3.88-9.32-9.5s3.64-9.63 9.86-9.63c5.59 0 7.98 2.89 8.62 5.59h-3.1c-.62-1.53-2.09-3.17-5.53-3.17-4.39 0-6.63 3.1-6.63 7.04 0 4.15 2.27 7.22 6.6 7.22 3.66 0 5.65-1.87 5.65-5.14v-.49h-5.6v-2.48h8.53v10.15Zm10.83-18.36h7.72c5.99 0 9.43 3.9 9.43 8.87 0 5.88-4.18 9.48-9.49 9.48h-7.66v-18.35Zm3.04 15.9h4.09c4.56 0 6.81-2.8 6.81-6.93s-2.51-6.49-6.64-6.51h-4.25v13.45Zm20.51-15.9v18.35h-3.04v-18.35h3.04Zm21.9 18.36h-2.28c-.09-.44-.21-1.74-.23-2.52-1.21 1.84-3.01 2.9-6.57 2.9-5.83 0-9.32-3.88-9.32-9.5s3.64-9.63 9.86-9.63c5.59 0 7.98 2.89 8.62 5.59h-3.1c-.62-1.53-2.09-3.17-5.53-3.17-4.39 0-6.63 3.1-6.63 7.04 0 4.15 2.27 7.22 6.6 7.22 3.66 0 5.65-1.87 5.65-5.14v-.49h-5.6v-2.48h8.53v10.15Zm6.96-18.36v18.35h-3.04v-18.35h3.04Zm9.25 2.52h-6.87v-2.52h16.78v2.52h-6.86v15.83h-3.05v-15.83Zm12.82 10.61-2.19 5.23h-3.15l7.77-18.35h3.76l8.1 18.35h-3.3l-2.29-5.23h-8.71Zm7.77-2.54c-2.12-4.86-3.12-7.2-3.54-8.48h-.03c-.39 1.24-1.57 4.3-3.31 8.48h6.88Zm8.73-10.59h3.02v15.82h10.88l-.44 2.53h-13.46v-18.35Zm-233.13 38.02v7.71h-3.01v-18.35h9.06c3.87 0 6.37 1.81 6.37 5.04 0 2.25-1.17 3.78-3.32 4.37 1.1.33 2.84 1.2 2.84 4.43v.83c0 1.37-.01 2.89.22 3.68h-3.11c-.28-.8-.26-2.12-.26-3.76v-.61c0-2.5-.96-3.34-4.05-3.34h-4.73Zm0-2.42h5.31c2.7 0 3.99-.95 3.99-2.98 0-1.87-1.31-2.83-3.91-2.83h-5.39v5.82Zm29.97 1.77h-10.82v5.84h11.96l-.39 2.52h-14.61v-18.35h14.43v2.52h-11.4v4.96h10.82v2.52Zm7.94 8.36-5.58-18.35h3.2c1.29 4.45 3.84 12.85 4.24 15.5h.03c.52-2.79 3.18-11.09 4.58-15.5h2.99c1.27 4.1 4.05 13.24 4.47 15.41h.04c.57-2.89 3.17-11.16 4.48-15.41h3.06l-5.96 18.35h-3.31c-1.28-4.14-3.96-12.85-4.45-15.13h-.03c-.48 2.53-3.03 10.49-4.5 15.13h-3.26Zm25.41-5.23-2.19 5.23h-3.15l7.77-18.35h3.76l8.1 18.35h-3.3l-2.29-5.23H2093Zm7.77-2.53c-2.12-4.86-3.12-7.2-3.54-8.48h-.03c-.39 1.24-1.57 4.3-3.31 8.48h6.88Zm11.76.05v7.71h-3.01v-18.35h9.06c3.87 0 6.37 1.81 6.37 5.04 0 2.25-1.17 3.78-3.32 4.37 1.1.33 2.84 1.2 2.84 4.43v.83c0 1.37-.01 2.89.22 3.68h-3.11c-.28-.8-.26-2.12-.26-3.76v-.61c0-2.5-.96-3.34-4.05-3.34h-4.73Zm0-2.42h5.31c2.7 0 3.99-.95 3.99-2.98 0-1.87-1.31-2.83-3.91-2.83h-5.39v5.82Zm16.11-8.23h7.72c5.99 0 9.43 3.9 9.43 8.87 0 5.88-4.18 9.48-9.49 9.48h-7.66v-18.35Zm3.03 15.9h4.09c4.56 0 6.81-2.8 6.81-6.93s-2.51-6.49-6.64-6.51h-4.25v13.45Zm19.09-2.92c.63 2.01 2.13 3.41 5.61 3.41s4.68-1.27 4.68-2.86c0-1.68-.97-2.69-5.5-3.45-5.72-.97-7-2.78-7-5.27 0-3.33 3.17-5.18 7.25-5.18 6.05 0 7.53 3.15 7.73 5.07h-3.06c-.35-1.17-1.08-2.72-4.75-2.72-2.52 0-4.07.85-4.07 2.53 0 1.39.75 2.24 4.75 2.93 6.71 1.16 7.78 3.22 7.78 5.79 0 2.99-2.37 5.5-8.04 5.5-5.27 0-7.86-2.39-8.45-5.75h3.08Zm-152.17-76.84h19.11v4.82h-6.54v19.88h-6.02v-19.88h-6.54v-4.82Zm52.68 24.95c-7 0-12.7-5.24-12.7-12.67s5.7-12.63 12.7-12.63 12.63 5.21 12.63 12.63-5.63 12.67-12.63 12.67Zm0-5.49c3.94 0 6.51-2.85 6.51-7.18s-2.57-7.18-6.51-7.18-6.54 2.78-6.54 7.18 2.53 7.18 6.54 7.18Zm40.85-5.66v10.91h-6.02v-24.7h6.02v10.84l8.23-10.84h7.07l-9.57 12.1 9.92 12.6h-7.35l-8.3-10.91Zm52.51-8.98h-9.11v5h8.06v4.64h-8.06v5.42h9.11v4.82h-15.13v-24.7h15.13v4.82Zm44.86-4.82v24.7h-6.02l-10.06-15.24v15.24h-6.02v-24.7h6.02l10.06 15.31v-15.31h6.02Z" class="cls-9"/><rect width="44.27" height="3.79" x="1931.9" y="1014.78" class="cls-3" rx="1.9" ry="1.9"/><rect width="44.27" height="3.79" x="2211.32" y="1014.78" class="cls-3" rx="1.9" ry="1.9"/></g></g></svg>