<?xml version="1.0" encoding="utf-8" standalone="yes"?>
<!DOCTYPE svg PUBLIC "-//W3C//DTD SVG 1.1//EN" "http://www.w3.org/Graphics/SVG/1.1/DTD/svg11.dtd">
<svg width="820" height="626" viewBox="0 0 820 626" style="fill:none;stroke:none;fill-rule:evenodd;clip-rule:evenodd;stroke-linecap:round;stroke-linejoin:round;stroke-miterlimit:1.5;" version="1.1" xmlns="http://www.w3.org/2000/svg" xmlns:xlink="http://www.w3.org/1999/xlink"><style id="fontImports"></style><g id="items" style="isolation: isolate"><g id="blend" style="mix-blend-mode:normal"><g id="g-root-0.cu_sy_zkp1xeo69p1i-fill" data-item-order="999619844" data-item-id="0.cu_sy_zkp1xeo69p1i" data-item-class="Part Indexed_0 Fill Stroke" data-item-index="0" data-renderer-id="0" transform="translate(4, 242)"><g id="0.cu_sy_zkp1xeo69p1i-fill" stroke="none" fill="#505050"><g><path d="M 235.3 186.2L 248.4 161.8L 231.2 151.6L 217.7 176.7ZM 231.2 151.6L 185.9 222L 204.1 230.7L 248.4 161.8ZM 204.1 230.7L 247.9 101.4L 229.5 93.4L 185.9 222ZM 229.5 93.4L 151.6 238.7L 169.8 247L 247.9 101.4ZM 169.8 247L 239.8 67.4L 221.6 59L 151.6 238.7ZM 221.6 59L 125.4 238.8L 143.5 247.3L 239.8 67.4ZM 143.5 247.3L 225.5 50.3L 207.3 41.9L 125.4 238.8ZM 207.3 41.9L 105.4 241.4L 123.6 249.6L 225.5 50.3ZM 123.6 249.6L 209.1 33.8L 190.7 25.8L 105.4 241.4ZM 190.7 25.8L 87.2 240.9L 105.6 248.8L 209.1 33.8ZM 105.6 248.8L 189.7 27.1L 171.5 18.9L 87.2 240.9ZM 171.5 18.9L 60.7 227.4L 78.9 235.9L 189.7 27.1ZM 78.9 235.9L 165.8 23.2L 147.5 14.9L 60.7 227.4ZM 147.5 14.9L 45.8 217.9L 64.1 226.1L 165.8 23.2ZM 64.1 226.1L 146.4 16.5L 128.2 8.1L 45.8 217.9ZM 128.2 8.1L 26.2 199L 44.4 207.4L 146.4 16.5ZM 44.4 207.4L 116.1 22.6L 97.9 14.3L 26.2 199ZM 97.9 14.3L 17.3 169.1L 35.6 177.3L 116.1 22.6ZM 35.6 177.3L 91 30.3L 72.9 21.6L 17.3 169.1ZM 72.9 21.6L 6.3 134.9L 24.3 143.8L 91 30.3ZM 24.3 143.8L 61.3 51.9L 42.8 44.4L 6.3 134.9Z" fill-rule="nonzero"></path></g></g></g><g id="g-root-5.cu_sy_m9v0n6o69ngr-fill" data-item-order="999619846" data-item-id="5.cu_sy_m9v0n6o69ngr" data-item-class="Part Indexed Fill Stroke" data-item-index="5" data-renderer-id="0" transform="translate(203.37451171875, 416)"><g id="5.cu_sy_m9v0n6o69ngr-fill" stroke="none" fill="#562d69"><g><path d="M 603.125488 201.1L 607.925488 191.9L 592.825488 177.6L 585.325488 191.9ZM 592.825488 177.6L 568.625488 191.6L 586.525488 204.3L 607.925488 191.9ZM 586.525488 204.3L 603.125488 118.7L 584.025488 112.1L 568.625488 191.6ZM 584.025488 112.1L 545.325488 188.2L 564.325488 194.8L 603.125488 118.7ZM 564.325488 194.8L 582.325488 104.5L 563.125488 98.4L 545.325488 188.2ZM 563.125488 98.4L 522.925488 187.1L 542.025488 193.4L 582.325488 104.5ZM 542.025488 193.4L 561.225488 104L 542.125488 97.6L 522.925488 187.1ZM 542.125488 97.6L 499.925488 189.7L 518.925488 196.2L 561.225488 104ZM 518.925488 196.2L 539.325488 108.2L 520.425488 100.8L 499.925488 189.7ZM 520.425488 100.8L 469.825488 188.9L 488.325488 197L 539.325488 108.2ZM 488.325488 197L 516.225488 106.6L 497.725488 99L 469.825488 188.9ZM 497.725488 99L 450.825488 190.2L 469.625488 197.4L 516.225488 106.6ZM 469.625488 197.4L 494.325488 102.7L 475.425488 95.9L 450.825488 190.2ZM 475.425488 95.9L 432.925488 188.3L 451.925488 194.8L 494.325488 102.7ZM 451.925488 194.8L 471.925488 106.5L 452.925488 99.9L 432.925488 188.3ZM 452.925488 99.9L 407.425488 193.5L 426.025488 200.8L 471.925488 106.5ZM 426.025488 200.8L 453.725488 108.6L 435.225488 100.7L 407.425488 193.5ZM 435.225488 100.7L 385.425488 188.8L 404.425488 195.8L 453.725488 108.6ZM 404.425488 195.8L 421.525488 106.2L 402.325488 100.2L 385.425488 188.8ZM 402.325488 100.2L 363.525488 187.7L 382.725488 193.7L 421.525488 106.2ZM 382.725488 193.7L 399.825488 105L 380.525488 99.3L 363.525488 187.7ZM 380.525488 99.3L 341.225488 194.9L 360.525488 200.7L 399.825488 105ZM 360.525488 200.7L 379.825488 101L 360.725488 94.2L 341.225488 194.9ZM 360.725488 94.2L 311.425488 187.7L 330.125488 195.1L 379.825488 101ZM 330.125488 195.1L 354.825488 106.6L 335.925488 100.1L 311.425488 187.7ZM 335.925488 100.1L 296.825488 195.6L 316.125488 201.2L 354.825488 106.6ZM 316.125488 201.2L 332.725488 104.5L 313.525488 98.6L 296.825488 195.6ZM 313.525488 98.6L 272.025488 189L 291.325488 195.1L 332.725488 104.5ZM 291.325488 195.1L 308.525488 102L 289.225488 96.1L 272.025488 189ZM 289.225488 96.1L 248.425488 187.8L 267.325488 194.6L 308.525488 102ZM 267.325488 194.6L 291.925488 106.9L 273.225488 99.4L 248.425488 187.8ZM 273.225488 99.4L 224.125488 192.2L 242.925488 199.5L 291.925488 106.9ZM 242.925488 199.5L 266.525488 109.3L 247.825488 101.8L 224.125488 192.2ZM 247.825488 101.8L 200.625488 187.8L 219.425488 195.1L 266.525488 109.3ZM 219.425488 195.1L 242.325488 100.4L 223.325488 93.9L 200.625488 187.8ZM 223.325488 93.9L 182.025488 187.2L 201.125488 193.4L 242.325488 100.4ZM 201.125488 193.4L 220.625488 101.6L 201.725488 94.7L 182.025488 187.2ZM 201.725488 94.7L 159.425488 173.5L 178.325488 180.5L 220.625488 101.6ZM 178.325488 180.5L 194.325488 107.7L 175.425488 100.5L 159.425488 173.5ZM 175.425488 100.5L 140.125488 163.3L 158.525488 171.4L 194.325488 107.7ZM 158.525488 171.4L 182.225488 97.7L 164.025488 88.9L 140.125488 163.3ZM 164.025488 88.9L 123.925488 149.2L 142.725488 157.1L 182.225488 97.7ZM 142.725488 157.1L 157.625488 87.2L 138.825488 79.3L 123.925488 149.2ZM 138.825488 79.3L 105.225488 130L 123.725488 138.4L 157.625488 87.2ZM 123.725488 138.4L 140.825488 76.6L 122.825488 66.9L 105.225488 130ZM 122.825488 66.9L 83.525488 112.9L 101.725488 122.4L 140.825488 76.6ZM 101.725488 122.4L 118.625488 58.5L 100.025488 50.6L 83.525488 112.9ZM 100.025488 50.6L 71.825488 97.8L 91.025488 104.6L 118.625488 58.5ZM 91.025488 104.6L 98.425488 53.2L 79.425488 44.7L 71.825488 97.8ZM 79.425488 44.7L 50.825488 78.8L 69.025488 88.3L 98.425488 53.2ZM 69.025488 88.3L 81.425488 42.4L 63.425488 32.6L 50.825488 78.8ZM 63.425488 32.6L 33.225488 66.5L 51.925488 75.6L 81.425488 42.4ZM 51.925488 75.6L 61.025488 23.9L 42.125488 15.7L 33.225488 66.5ZM 42.125488 15.7L 13.325488 53.8L 32.825488 61.2L 61.025488 23.9ZM 32.825488 61.2L 34.825488 37.8L 14.925488 36.1L 13.325488 53.8Z" fill-rule="nonzero"></path></g></g></g><g id="g-root-4.cu_sy_m9v0n6o69ngq-fill" data-item-order="999619848" data-item-id="4.cu_sy_m9v0n6o69ngq" data-item-class="Part Indexed Fill Stroke" data-item-index="4" data-renderer-id="0" transform="translate(231.1923828125, 380)"><g id="4.cu_sy_m9v0n6o69ngq-fill" stroke="none" fill="#392c6c"><g><path d="M 577.507617 140.6L 578.907617 133.8L 561.907617 117.2L 557.907617 136.6ZM 561.907617 117.2L 537.307617 123L 555.407617 139.3L 578.907617 133.8ZM 555.407617 139.3L 567.807617 41L 548.207617 36.7L 537.307617 123ZM 548.207617 36.7L 518.307617 130.5L 537.907617 134.8L 567.807617 41ZM 537.907617 134.8L 549.307617 45.3L 529.707617 40.7L 518.307617 130.5ZM 529.707617 40.7L 498.607617 128.9L 518.207617 133.4L 549.307617 45.3ZM 518.207617 133.4L 528.207617 48.3L 508.607617 43.7L 498.607617 128.9ZM 508.607617 43.7L 476.407617 135.1L 495.907617 139.9L 528.207617 48.3ZM 495.907617 139.9L 508.907617 48.4L 489.607617 42.7L 476.407617 135.1ZM 489.607617 42.7L 449.207617 130.4L 468.607617 136L 508.907617 48.4ZM 468.607617 136L 481.307617 42.6L 461.807617 37.9L 449.207617 130.4ZM 461.807617 37.9L 428.007617 134.4L 447.507617 139.3L 481.307617 42.6ZM 447.507617 139.3L 462.107617 43.7L 442.707617 38L 428.007617 134.4ZM 442.707617 38L 402.407617 128.1L 421.507617 134.4L 462.107617 43.7ZM 421.507617 134.4L 440.207617 46.7L 421.007617 40.8L 402.407617 128.1ZM 421.007617 40.8L 385.007617 129.4L 404.407617 134.9L 440.207617 46.7ZM 404.407617 134.9L 419.007617 44.4L 399.707617 38.7L 385.007617 129.4ZM 399.707617 38.7L 361.107617 127.7L 380.207617 133.9L 419.007617 44.4ZM 380.207617 133.9L 400.407617 41.5L 381.407617 35.2L 361.107617 127.7ZM 381.407617 35.2L 337.807617 131.8L 356.907617 138L 400.407617 41.5ZM 356.907617 138L 375.707617 45.2L 356.507617 39.4L 337.807617 131.8ZM 356.507617 39.4L 320.507617 128.8L 339.807617 134.3L 375.707617 45.2ZM 339.807617 134.3L 354.707617 47.9L 335.307617 42.2L 320.507617 128.8ZM 335.307617 42.2L 296.607617 133L 315.807617 138.8L 354.707617 47.9ZM 315.807617 138.8L 333.507617 46.1L 314.307617 39.9L 296.607617 133ZM 314.307617 39.9L 271.407617 131.5L 290.507617 137.9L 333.507617 46.1ZM 290.507617 137.9L 311.407617 41.7L 292.207617 35.7L 271.407617 131.5ZM 292.207617 35.7L 253.507617 130.1L 272.807617 135.8L 311.407617 41.7ZM 272.807617 135.8L 290.907617 43.6L 271.607617 37.8L 253.507617 130.1ZM 271.607617 37.8L 231.407617 135.9L 250.607617 141.8L 290.907617 43.6ZM 250.607617 141.8L 271.107617 44.7L 252.007617 38.4L 231.407617 135.9ZM 252.007617 38.4L 210.307617 128.5L 229.407617 134.7L 271.107617 44.7ZM 229.407617 134.7L 247.007617 44.3L 227.707617 38.8L 210.307617 128.5ZM 227.707617 38.8L 193.107617 129.7L 212.707617 134.4L 247.007617 44.3ZM 212.707617 134.4L 222.207617 47.3L 202.607617 42.1L 193.107617 129.7ZM 202.607617 42.1L 162.407617 134.3L 181.707617 140L 222.207617 47.3ZM 181.707617 140L 197.307617 45.5L 177.907617 40L 162.407617 134.3ZM 177.907617 40L 142.107617 127.4L 161.507617 132.8L 197.307617 45.5ZM 161.507617 132.8L 175.107617 41.7L 155.707617 36.4L 142.107617 127.4ZM 155.707617 36.4L 121.507617 119.5L 140.607617 125.7L 175.107617 41.7ZM 140.607617 125.7L 161.407617 40.3L 142.607617 33.2L 121.507617 119.5ZM 142.607617 33.2L 104.807617 104.8L 124.207617 110.8L 161.407617 40.3ZM 124.207617 110.8L 132.307617 35.9L 112.707617 31L 104.807617 104.8ZM 112.707617 31L 85.507617 98.4L 105.007617 103.5L 132.307617 35.9ZM 105.007617 103.5L 113.907617 36.5L 94.507617 30L 85.507617 98.4ZM 94.507617 30L 64.607617 82.2L 83.507617 89.5L 113.907617 36.5ZM 83.507617 89.5L 96.907617 28L 78.007617 20.7L 64.607617 82.2ZM 78.007617 20.7L 49.707617 69.6L 69.507617 75.4L 96.907617 28ZM 69.507617 75.4L 72.007617 24.6L 52.407617 16.9L 49.707617 69.6ZM 52.407617 16.9L 22.107617 53L 41.007617 61.5L 72.007617 24.6ZM 41.007617 61.5L 46.907617 21.7L 27.807617 14.5L 22.107617 53ZM 27.807617 14.5L 6.607617 46.9L 28.307617 50.2L 46.907617 21.7ZM 28.307617 50.2L 24.307617 35.9L 5.007617 41.3L 6.607617 46.9Z" fill-rule="nonzero"></path></g></g></g><g id="g-root-3.cu_sy_m9v0n6o69ngp-fill" data-item-order="999619850" data-item-id="3.cu_sy_m9v0n6o69ngp" data-item-class="Part Indexed Fill Stroke" data-item-index="3" data-renderer-id="0" transform="translate(242.65869140625, 314)"><g id="3.cu_sy_m9v0n6o69ngp-fill" stroke="none" fill="#224754"><g><path d="M 568.741309 9.5L 568.141309 9L 547.541309 17.6L 555.641309 24.6ZM 547.541309 17.6L 541.441309 101.1L 561.541309 100.3L 568.141309 9ZM 561.541309 100.3L 547.741309 12.4L 527.541309 12.5L 541.441309 101.1ZM 527.541309 12.5L 513.641309 107.4L 533.841309 108L 547.741309 12.4ZM 533.841309 108L 525.141309 9.2L 505.041309 8.5L 513.641309 107.4ZM 505.041309 8.5L 489.541309 104.7L 509.641309 105.3L 525.141309 9.2ZM 509.641309 105.3L 500.741309 10.7L 480.641309 10.8L 489.541309 104.7ZM 480.641309 10.8L 472.341309 106.5L 492.441309 106.5L 500.741309 10.7ZM 492.441309 106.5L 483.441309 11.1L 463.341309 10.5L 472.341309 106.5ZM 463.341309 10.5L 449.641309 100.4L 469.841309 100.9L 483.441309 11.1ZM 469.841309 100.9L 461.141309 15L 440.941309 14.2L 449.641309 100.4ZM 440.941309 14.2L 423.741309 106L 443.941309 106.8L 461.141309 15ZM 443.941309 106.8L 434.241309 14.2L 414.141309 13.9L 423.741309 106ZM 414.141309 13.9L 402.741309 100.5L 422.841309 100.9L 434.241309 14.2ZM 422.841309 100.9L 414.941309 14.2L 394.841309 13.4L 402.741309 100.5ZM 394.841309 13.4L 379.241309 105.2L 399.341309 106.3L 414.941309 14.2ZM 399.341309 106.3L 393.641309 8.8L 373.541309 8.1L 379.241309 105.2ZM 373.541309 8.1L 361.241309 106.9L 381.341309 107L 393.641309 8.8ZM 381.341309 107L 369.941309 8.8L 349.741309 8.9L 361.241309 106.9ZM 349.741309 8.9L 340.041309 103.7L 360.141309 103.6L 369.941309 8.8ZM 360.141309 103.6L 350.241309 11.7L 330.041309 11.4L 340.041309 103.7ZM 330.041309 11.4L 317.341309 101.9L 337.541309 102.3L 350.241309 11.7ZM 337.541309 102.3L 328.641309 11.9L 308.541309 11.5L 317.341309 101.9ZM 308.541309 11.5L 295.341309 107.3L 315.541309 107.3L 328.641309 11.9ZM 315.541309 107.3L 302.441309 14L 282.241309 14.2L 295.341309 107.3ZM 282.241309 14.2L 271.141309 107.8L 291.241309 108L 302.441309 14ZM 291.241309 108L 281.641309 12.9L 261.541309 12.6L 271.141309 107.8ZM 261.541309 12.6L 249.141309 103.7L 269.341309 103.5L 281.641309 12.9ZM 269.341309 103.5L 254.341309 7.5L 234.241309 8.6L 249.141309 103.7ZM 234.241309 8.6L 229.941309 104.9L 249.941309 104.5L 254.341309 7.5ZM 249.941309 104.5L 242.041309 16.3L 221.841309 15.3L 229.941309 104.9ZM 221.841309 15.3L 205.241309 103.9L 225.441309 104.9L 242.041309 16.3ZM 225.441309 104.9L 217.441309 16.2L 197.241309 15.6L 205.241309 103.9ZM 197.241309 15.6L 183.841309 101.8L 203.941309 102.6L 217.441309 16.2ZM 203.941309 102.6L 197.041309 10.7L 176.941309 10L 183.841309 101.8ZM 176.941309 10L 162.841309 105.5L 183.041309 105.5L 197.041309 10.7ZM 183.041309 105.5L 169.241309 12.3L 149.141309 13.2L 162.841309 105.5ZM 149.141309 13.2L 144.141309 102.1L 164.241309 101.8L 169.241309 12.3ZM 164.241309 101.8L 155.741309 8.9L 135.541309 7.6L 144.141309 102.1ZM 135.541309 7.6L 114.741309 102.7L 134.841309 104.6L 155.741309 8.9ZM 134.841309 104.6L 132.041309 18.1L 111.941309 16.4L 114.741309 102.7ZM 111.941309 16.4L 95.741309 92L 115.941309 93.1L 132.041309 18.1ZM 115.941309 93.1L 108.641309 21.1L 88.341309 20L 95.741309 92ZM 88.341309 20L 73.141309 89L 93.341309 90.2L 108.641309 21.1ZM 93.341309 90.2L 87.141309 28.3L 66.841309 26.1L 73.141309 89ZM 66.841309 26.1L 46.841309 87.4L 66.841309 90.4L 87.141309 28.3ZM 66.841309 90.4L 65.541309 32.7L 45.441309 29.9L 46.841309 87.4ZM 45.441309 29.9L 28.341309 83.6L 48.941309 84.6L 65.541309 32.7ZM 48.941309 84.6L 39.041309 38L 18.341309 36.8L 28.341309 83.6ZM 18.341309 36.8L 6.341309 72.7L 25.741309 77.8L 39.041309 38ZM 25.741309 77.8L 27.541309 68L 7.941309 64.3L 6.341309 72.7Z" fill-rule="nonzero"></path></g></g></g><g id="g-root-2.cu_sy_v5i0w2o69mo0-fill" data-item-order="999619852" data-item-id="2.cu_sy_v5i0w2o69mo0" data-item-class="Part Indexed Fill Stroke" data-item-index="2" data-renderer-id="0" transform="translate(231.1923828125, 218)"><g id="2.cu_sy_v5i0w2o69mo0-fill" stroke="none" fill="#404b29"><g><path d="M 578.507617 7.4L 578.907617 7.7L 558.207617 17.4L 566.807617 23.6ZM 558.207617 17.4L 552.007617 105.8L 572.107617 104.4L 578.907617 7.7ZM 572.107617 104.4L 552.807617 12.7L 532.707617 14.3L 552.007617 105.8ZM 532.707617 14.3L 528.307617 108L 548.307617 107.3L 552.807617 12.7ZM 548.307617 107.3L 536.907617 9L 516.907617 9.5L 528.307617 108ZM 516.907617 9.5L 510.607617 101.2L 530.807617 99.4L 536.907617 9ZM 530.807617 99.4L 509.107617 11.7L 489.107617 14L 510.607617 101.2ZM 489.107617 14L 487.907617 104.1L 507.907617 103.2L 509.107617 11.7ZM 507.907617 103.2L 498.307617 8.6L 478.207617 8.8L 487.907617 104.1ZM 478.207617 8.8L 471.207617 101.1L 491.407617 99.9L 498.307617 8.6ZM 491.407617 99.9L 474.307617 10.8L 454.007617 11L 471.207617 101.1ZM 454.007617 11L 438.307617 104.7L 458.507617 105.4L 474.307617 10.8ZM 458.507617 105.4L 450.107617 15.7L 430.007617 16.2L 438.307617 104.7ZM 430.007617 16.2L 426.007617 103.2L 446.107617 102L 450.107617 15.7ZM 446.107617 102L 431.307617 13.9L 411.107617 14.3L 426.007617 103.2ZM 411.107617 14.3L 400.207617 103.9L 420.407617 103.5L 431.307617 13.9ZM 420.407617 103.5L 405.507617 14.2L 385.307617 14.8L 400.207617 103.9ZM 385.307617 14.8L 375.807617 105.8L 395.907617 105.8L 405.507617 14.2ZM 395.907617 105.8L 385.807617 10.7L 365.707617 10.6L 375.807617 105.8ZM 365.707617 10.6L 353.907617 107.1L 374.107617 106.8L 385.807617 10.7ZM 374.107617 106.8L 360.007617 10.8L 340.007617 12.2L 353.907617 107.1ZM 340.007617 12.2L 339.207617 104.8L 359.207617 103.3L 360.007617 10.8ZM 359.207617 103.3L 344.307617 9L 324.107617 9.4L 339.207617 104.8ZM 324.107617 9.4L 313.207617 102L 333.307617 102.2L 344.307617 9ZM 333.307617 102.2L 323.707617 9L 303.607617 8.8L 313.207617 102ZM 303.607617 8.8L 292.107617 101.1L 312.407617 100.3L 323.707617 9ZM 312.407617 100.3L 293.607617 11.8L 273.507617 13.3L 292.107617 101.1ZM 273.507617 13.3L 267.907617 105.2L 288.007617 104.4L 293.607617 11.8ZM 288.007617 104.4L 275.207617 11.6L 255.107617 12.1L 267.907617 105.2ZM 255.107617 12.1L 247.107617 108.5L 267.207617 108.1L 275.207617 11.6ZM 267.207617 108.1L 255.107617 10.7L 235.007617 10.9L 247.107617 108.5ZM 235.007617 10.9L 225.707617 101.3L 245.907617 100.6L 255.107617 10.7ZM 245.907617 100.6L 230.507617 13.5L 210.307617 14.2L 225.707617 101.3ZM 210.307617 14.2L 200.407617 107.2L 220.507617 107.3L 230.507617 13.5ZM 220.507617 107.3L 210.907617 9.3L 190.807617 9.4L 200.407617 107.2ZM 190.807617 9.4L 182.807617 100.8L 203.007617 99.7L 210.907617 9.3ZM 203.007617 99.7L 185.207617 9.7L 165.107617 11.2L 182.807617 100.8ZM 165.107617 11.2L 160.807617 101.6L 180.807617 100.3L 185.207617 9.7ZM 180.807617 100.3L 164.607617 9.5L 144.407617 10.6L 160.807617 101.6ZM 144.407617 10.6L 138.607617 102.6L 158.707617 101L 164.607617 9.5ZM 158.707617 101L 141.107617 23.6L 121.107617 25.9L 138.607617 102.6ZM 121.107617 25.9L 121.007617 109.3L 141.007617 107.8L 141.107617 23.6ZM 141.007617 107.8L 130.007617 36.2L 109.807617 36.4L 121.007617 109.3ZM 109.807617 36.4L 98.907617 118.6L 119.207617 117.8L 130.007617 36.2ZM 119.207617 117.8L 104.807617 50.4L 84.507617 50.8L 98.907617 118.6ZM 84.507617 50.8L 71.807617 123.5L 91.907617 124.7L 104.807617 50.4ZM 91.907617 124.7L 88.807617 60.3L 68.707617 58.1L 71.807617 123.5ZM 68.707617 58.1L 49.307617 128.2L 69.507617 130.4L 88.807617 60.3ZM 69.507617 130.4L 66.507617 77.4L 46.407617 74.6L 49.307617 128.2ZM 46.407617 74.6L 27.707617 130.2L 48.107617 132.3L 66.507617 77.4ZM 48.107617 132.3L 42.407617 86.7L 21.707617 82.6L 27.707617 130.2ZM 21.707617 82.6L 7.907617 107.2L 31.607617 105.8L 42.407617 86.7ZM 31.607617 105.8L 21.907617 92.4L 5.707617 104.2L 7.907617 107.2Z" fill-rule="nonzero"></path></g></g></g><g id="g-root-1.cu_sy_qpoirmo69mof-fill" data-item-order="999619854" data-item-id="1.cu_sy_qpoirmo69mof" data-item-class="Part Indexed Indexed_1 Fill Stroke" data-item-index="1" data-renderer-id="0" transform="translate(203.37451171875, 122)"><g id="1.cu_sy_qpoirmo69mof-fill" stroke="none" fill="#2b503e"><g><path d="M 611.625488 18.9L 607.325488 10.7L 587.225488 15.5L 593.925488 28.3ZM 587.225488 15.5L 585.425488 109.7L 605.425488 108L 607.325488 10.7ZM 605.425488 108L 587.625488 15.3L 567.525488 16.9L 585.425488 109.7ZM 567.525488 16.9L 564.425488 106.5L 584.525488 104.6L 587.625488 15.3ZM 584.525488 104.6L 562.725488 7L 542.825488 9.7L 564.425488 106.5ZM 542.825488 9.7L 547.725488 105.6L 567.525488 102.1L 562.725488 7ZM 567.525488 102.1L 540.925488 13.6L 521.025488 16.6L 547.725488 105.6ZM 521.025488 16.6L 521.925488 101.6L 541.925488 98.5L 540.925488 13.6ZM 541.925488 98.5L 516.125488 14L 496.125488 17L 521.925488 101.6ZM 496.125488 17L 496.525488 106.3L 516.525488 103.7L 516.125488 14ZM 516.525488 103.7L 493.125488 13.5L 473.125488 16.1L 496.525488 106.3ZM 473.125488 16.1L 473.325488 109.5L 493.325488 107L 493.125488 13.5ZM 493.325488 107L 468.225488 8.9L 448.325488 11.8L 473.325488 109.5ZM 448.325488 11.8L 452.525488 103.2L 472.425488 100.1L 468.225488 8.9ZM 472.425488 100.1L 449.125488 13.8L 429.125488 16.3L 452.525488 103.2ZM 429.125488 16.3L 428.225488 102.4L 448.225488 99.8L 449.125488 13.8ZM 448.225488 99.8L 423.325488 7.4L 403.425488 10.5L 428.225488 102.4ZM 403.425488 10.5L 407.425488 106.1L 427.325488 103.5L 423.325488 7.4ZM 427.325488 103.5L 407.425488 14.4L 387.425488 16.3L 407.425488 106.1ZM 387.425488 16.3L 384.225488 107.6L 404.225488 105.9L 407.425488 14.4ZM 404.225488 105.9L 383.225488 7.8L 363.125488 9.7L 384.225488 107.6ZM 363.125488 9.7L 360.625488 103.7L 380.725488 101.7L 383.225488 7.8ZM 380.725488 101.7L 358.725488 8.6L 338.725488 10.8L 360.625488 103.7ZM 338.725488 10.8L 337.625488 107.1L 357.725488 104.5L 358.725488 8.6ZM 357.725488 104.5L 332.425488 12.4L 312.625488 15.8L 337.625488 107.1ZM 312.625488 15.8L 319.125488 106.5L 338.925488 102.7L 332.425488 12.4ZM 338.925488 102.7L 310.825488 13.2L 291.025488 17L 319.125488 106.5ZM 291.025488 17L 298.225488 105.3L 318.025488 101.8L 310.825488 13.2ZM 318.025488 101.8L 292.225488 8.8L 272.025488 10.8L 298.225488 105.3ZM 272.025488 10.8L 264.925488 105.5L 285.025488 104.6L 292.225488 8.8ZM 285.025488 104.6L 268.625488 10L 248.625488 11.6L 264.925488 105.5ZM 248.625488 11.6L 247.225488 107.7L 267.225488 106.1L 268.625488 10ZM 267.225488 106.1L 250.725488 10L 230.525488 11L 247.225488 107.7ZM 230.525488 11L 223.525488 103.3L 243.825488 101.2L 250.725488 10ZM 243.825488 101.2L 217.225488 10L 197.325488 13.3L 223.525488 103.3ZM 197.325488 13.3L 201.425488 108.8L 221.325488 106.6L 217.225488 10ZM 221.325488 106.6L 204.125488 12.5L 184.125488 14.1L 201.425488 108.8ZM 184.125488 14.1L 181.925488 102.8L 201.925488 100.7L 204.125488 12.5ZM 201.925488 100.7L 182.625488 19.1L 162.525488 20.9L 181.925488 102.8ZM 162.525488 20.9L 157.725488 108.8L 177.925488 107.3L 182.625488 19.1ZM 177.925488 107.3L 163.825488 40.8L 143.725488 42.6L 157.725488 108.8ZM 143.725488 42.6L 140.525488 129.1L 160.625488 126.6L 163.825488 40.8ZM 160.625488 126.6L 139.725488 54.1L 119.725488 57L 140.525488 129.1ZM 119.725488 57L 119.725488 138.9L 139.725488 137.3L 139.725488 54.1ZM 139.725488 137.3L 129.125488 69.8L 109.025488 70.8L 119.725488 138.9ZM 109.025488 70.8L 104.425488 148.4L 124.625488 145.3L 129.125488 69.8ZM 124.625488 145.3L 103.725488 89.6L 83.325488 92.3L 104.425488 148.4ZM 83.325488 92.3L 76.925488 164.8L 97.025488 164.1L 103.725488 89.6ZM 97.025488 164.1L 87.925488 108.5L 67.825488 109.3L 76.925488 164.8ZM 67.825488 109.3L 62.725488 173.5L 82.925488 171.6L 87.925488 108.5ZM 82.925488 171.6L 69.125488 121L 48.625488 121.9L 62.725488 173.5ZM 48.625488 121.9L 36.325488 190.1L 56.725488 189.9L 69.125488 121ZM 56.725488 189.9L 46.425488 138.3L 25.625488 136.5L 36.325488 190.1ZM 25.625488 136.5L 12.425488 170.6L 32.325488 174.7L 46.425488 138.3ZM 32.325488 174.7L 33.125488 151L 13.125488 150.2L 12.425488 170.6Z" fill-rule="nonzero"></path></g></g></g><g id="g-root-tx_unpackin_1hbz2f6o69mo7-fill" data-item-order="1000000000" data-item-id="tx_unpackin_1hbz2f6o69mo7" data-item-class="Label Stroke Title" data-item-index="none" data-renderer-id="0" transform="translate(118, 2)"><g id="tx_unpackin_1hbz2f6o69mo7-fill" stroke="none" fill="#FFFFFF"><g><text style="font: bold 25px Arial, Helvetica, sans-serif; white-space: pre;" font-weight="bold" font-size="25" font-family="Arial, Helvetica, sans-serif"><tspan x="45.43" y="54" dominant-baseline="ideographic">Solving Digital Engagement and Rewards</tspan></text></g></g></g><g id="g-root-1_dg3fnmo6cfm4-fill" data-item-order="1000000000" data-item-id="1_dg3fnmo6cfm4" data-item-class="Icon Stroke Indexed Indexed_1 InsideFill InsideColorFill" data-item-index="1" data-renderer-id="0" transform="translate(412, 146)"></g><g id="g-root-tx_userbene_1cw5kaqo69ngh-fill" data-item-order="1000000000" data-item-id="tx_userbene_1cw5kaqo69ngh" data-item-class="Label Stroke Indexed Indexed_1 InsideFill InsideColorFill" data-item-index="1" data-renderer-id="0" transform="translate(472, 158)"><g id="tx_userbene_1cw5kaqo69ngh-fill" stroke="none" fill="#FFFFFF"><g><text style="font: 20px Arial, Helvetica, sans-serif; white-space: pre;" font-weight="20px" font-size="Arial," font-family="Helvetica, sans-serif"><tspan x="12" y="33" dominant-baseline="ideographic">User Benefits</tspan></text></g></g></g><g id="g-root-hand_1hi7taao6che1-fill" data-item-order="1000000000" data-item-id="hand_1hi7taao6che1" data-item-class="Icon Stroke Indexed InsideFill InsideColorFill" data-item-index="2" data-renderer-id="0" transform="translate(412, 242)"></g><g id="g-root-tx_servicep_140ik1uo69o96-fill" data-item-order="1000000000" data-item-id="tx_servicep_140ik1uo69o96" data-item-class="Label Stroke Indexed InsideFill InsideColorFill" data-item-index="2" data-renderer-id="0" transform="translate(472, 254)"><g id="tx_servicep_140ik1uo69o96-fill" stroke="none" fill="#FFFFFF"><g><text style="font: 20px Arial, Helvetica, sans-serif; white-space: pre;" font-weight="20px" font-size="Arial," font-family="Helvetica, sans-serif"><tspan x="12" y="33" dominant-baseline="ideographic">Service Provider Benefits</tspan></text></g></g></g><g id="g-root-tx_jetpackt_1cw5kaqo69ngg-fill" data-item-order="1000000000" data-item-id="tx_jetpackt_1cw5kaqo69ngg" data-item-class="Label Stroke InsideFill ColorFillGray ColorStrokeGray" data-item-index="none" data-renderer-id="0" transform="translate(46, 338)"><g id="tx_jetpackt_1cw5kaqo69ngg-fill" stroke="none" fill="#FFFFFF"><g><text style="font: bold 20px Arial, Helvetica, sans-serif; white-space: pre;" font-weight="bold" font-size="20" font-family="Arial, Helvetica, sans-serif"><tspan x="15.93" y="33" dominant-baseline="ideographic">JetPack Token </tspan><tspan x="49.64" y="57" dominant-baseline="ideographic">System</tspan></text></g></g></g><g id="g-root-2_1hi7taao6che2-fill" data-item-order="1000000000" data-item-id="2_1hi7taao6che2" data-item-class="Icon Stroke Indexed InsideFill InsideColorFill" data-item-index="3" data-renderer-id="0" transform="translate(412, 338)"></g><g id="g-root-tx_fairness_140ik1uo69o97-fill" data-item-order="1000000000" data-item-id="tx_fairness_140ik1uo69o97" data-item-class="Label Stroke Indexed InsideFill InsideColorFill" data-item-index="3" data-renderer-id="0" transform="translate(472, 350)"><g id="tx_fairness_140ik1uo69o97-fill" stroke="none" fill="#FFFFFF"><g><text style="font: 20px Arial, Helvetica, sans-serif; white-space: pre;" font-weight="20px" font-size="Arial," font-family="Helvetica, sans-serif"><tspan x="12" y="33" dominant-baseline="ideographic">Fairness</tspan></text></g></g></g><g id="g-root-eye_1d2eb5uo6ci6b-fill" data-item-order="1000000000" data-item-id="eye_1d2eb5uo6ci6b" data-item-class="Icon Stroke Indexed InsideFill InsideColorFill" data-item-index="4" data-renderer-id="0" transform="translate(412, 434)"></g><g id="g-root-tx_transpar_zkp1xeo69p1g-fill" data-item-order="1000000000" data-item-id="tx_transpar_zkp1xeo69p1g" data-item-class="Label Stroke Indexed InsideFill InsideColorFill" data-item-index="4" data-renderer-id="0" transform="translate(472, 446)"><g id="tx_transpar_zkp1xeo69p1g-fill" stroke="none" fill="#FFFFFF"><g><text style="font: 20px Arial, Helvetica, sans-serif; white-space: pre;" font-weight="20px" font-size="Arial," font-family="Helvetica, sans-serif"><tspan x="12" y="33" dominant-baseline="ideographic">Transparency</tspan></text></g></g></g><g id="g-root-2_1d2eb5uo6ci6c-fill" data-item-order="1000000000" data-item-id="2_1d2eb5uo6ci6c" data-item-class="Icon Stroke Indexed InsideFill InsideColorFill" data-item-index="5" data-renderer-id="0" transform="translate(412, 530)"></g><g id="g-root-tx_efficien_zkp1xeo69p1h-fill" data-item-order="1000000000" data-item-id="tx_efficien_zkp1xeo69p1h" data-item-class="Label Stroke Indexed InsideFill InsideColorFill" data-item-index="5" data-renderer-id="0" transform="translate(472, 542)"><g id="tx_efficien_zkp1xeo69p1h-fill" stroke="none" fill="#FFFFFF"><g><text style="font: 20px Arial, Helvetica, sans-serif; white-space: pre;" font-weight="20px" font-size="Arial," font-family="Helvetica, sans-serif"><tspan x="12" y="33" dominant-baseline="ideographic">Efficiency</tspan></text></g></g></g><g id="g-root-0.cu_sy_zkp1xeo69p1i-stroke" data-item-order="999619844" data-item-id="0.cu_sy_zkp1xeo69p1i" data-item-class="Part Indexed_0 Fill Stroke" data-item-index="0" data-renderer-id="0" transform="translate(4, 242)"><g id="0.cu_sy_zkp1xeo69p1i-stroke" fill="none" stroke-linecap="round" stroke-linejoin="round" stroke-miterlimit="4" stroke="#FFFFFF" stroke-width="4"><g><path d="M 250 130C 251.1 151 243.7 170.3 235.1 187.9C 225.6 207.4 208.2 221.1 190.6 233.6C 173.8 245.5 152.1 248.5 130 250C 114.1 251.1 98.8 246.7 84.8 241.2C 71.5 236 60.4 227 49 218.6C 35.9 208.8 27.4 194 20.4 178.9C 13.5 164.1 8.6 147.4 10 130C 11.1 116.7 13.5 104.2 16.2 91.9C 18.8 79.8 25.9 69.2 33 59.3C 39.9 49.8 47.7 40.7 57.6 34.3C 67.3 28 77.1 21.6 88.2 17.5C 101.2 12.6 115.3 9.7 130 10C 146.4 10.3 162.1 13 176.2 19.2C 190.2 25.4 204.3 32.6 213.9 44.2C 224.5 57.1 236.1 69.7 241.6 85.7C 246.3 99.7 251.1 114.4 250 130M 250 130C 250 196.2742 196.2742 250 130 250C 63.7258 250 10 196.2742 10 130C 10 63.7258 63.7258 10 130 10C 196.2742 10 250 63.7258 250 130Z"></path></g></g></g><g id="g-root-5.cu_sy_m9v0n6o69ngr-stroke" data-item-order="999619846" data-item-id="5.cu_sy_m9v0n6o69ngr" data-item-class="Part Indexed Fill Stroke" data-item-index="5" data-renderer-id="0" transform="translate(203.37451171875, 416)"><g id="5.cu_sy_m9v0n6o69ngr-stroke" fill="none" stroke-linecap="round" stroke-linejoin="round" stroke-miterlimit="4" stroke="#FFFFFF" stroke-width="4"><g><path d="M 602.625488 100C 589.825488 100.1 577.025488 99.3 564.225488 100C 549.325488 100.8 534.325488 101.4 519.425488 100C 505.525488 98.7 491.425488 100.8 477.525488 100C 463.925488 99.3 450.325488 100.5 436.725488 100C 421.625488 99.5 406.525488 100.6 391.425488 100C 377.525488 99.4 363.625488 100.4 349.825488 100C 335.325488 99.6 320.725488 98.3 306.425488 100C 293.225488 101.6 279.725488 102 266.625488 100C 252.425488 97.8 237.925488 101.4 223.625488 100C 210.025488 98.7 196.125488 98.1 182.625488 100C 156.925488 86 131.925488 70.6 108.025488 53.7C 85.525488 37.7 61.625488 24 37.825488 10C 31.925488 24.2 21.525488 36.1 10.025488 46C 25.225488 59.5 41.825488 71.5 56.025488 86C 67.925488 98.2 80.925488 109.3 94.625488 119.5C 111.125488 131.8 125.625488 146.6 141.225488 160.1C 155.125488 172 167.725488 185.5 182.625488 196C 210.625488 195.4 238.725488 196.4 266.725488 196C 296.725488 195.6 326.625488 194.7 356.525488 196C 384.125488 197.2 411.825488 196.6 439.425488 196C 464.025488 195.4 488.725488 195.5 513.425488 196C 543.125488 196.6 572.925488 196.3 602.625488 196C 601.325488 178.6 603.725488 161.1 602.625488 143.8C 601.725488 129.2 601.925488 114.6 602.625488 100M 602.6252 100L 182.6253 100L 37.8178 10C 30.8929 23.7192 21.4116 35.9279 10 46L 182.6253 196L 602.6252 196L 602.6252 100Z"></path></g></g></g><g id="g-root-4.cu_sy_m9v0n6o69ngq-stroke" data-item-order="999619848" data-item-id="4.cu_sy_m9v0n6o69ngq" data-item-class="Part Indexed Fill Stroke" data-item-index="4" data-renderer-id="0" transform="translate(231.1923828125, 380)"><g id="4.cu_sy_m9v0n6o69ngq-stroke" fill="none" stroke-linecap="round" stroke-linejoin="round" stroke-miterlimit="4" stroke="#FFFFFF" stroke-width="4"><g><path d="M 574.807617 40C 544.407617 40.6 513.807617 41.8 483.507617 40C 454.207617 38.3 424.707617 41 395.407617 40C 369.507617 39.1 343.607617 41.3 317.807617 40C 292.007617 38.7 266.107617 39.5 240.307617 40C 211.807617 40.6 183.307617 40.8 154.807617 40C 132.507617 35.9 110.107617 31.7 88.407617 25.1C 66.607617 18.3 43.807617 15 21.507617 10C 18.007617 22.5 16.707617 35.5 10.007617 46C 24.907617 56.9 41.707617 64.8 57.007617 75.2C 74.107617 86.9 92.207617 97.4 110.007617 108.1C 125.007617 117.2 139.807617 126.7 154.807617 136C 179.407617 134.7 204.107617 136 228.707617 136C 253.807617 136 278.907617 134.5 304.007617 136C 327.807617 137.4 351.607617 136 375.507617 136C 396.607617 136 417.807617 134.6 439.007617 136C 460.707617 137.5 482.507617 136.7 504.207617 136C 527.707617 135.2 551.307617 134.9 574.807617 136C 574.507617 118.7 574.407617 101.4 574.807617 84.2C 575.107617 69.4 576.007617 54.7 574.807617 40M 574.8075 40L 154.8075 40L 21.4665 10C 19.5456 22.7701 15.6123 34.8811 10 46L 154.8075 136L 574.8075 136L 574.8075 40Z"></path></g></g></g><g id="g-root-3.cu_sy_m9v0n6o69ngp-stroke" data-item-order="999619850" data-item-id="3.cu_sy_m9v0n6o69ngp" data-item-class="Part Indexed Fill Stroke" data-item-index="3" data-renderer-id="0" transform="translate(242.65869140625, 314)"><g id="3.cu_sy_m9v0n6o69ngp-stroke" fill="none" stroke-linecap="round" stroke-linejoin="round" stroke-miterlimit="4" stroke="#FFFFFF" stroke-width="4"><g><path d="M 563.341309 10C 544.541309 9.9 525.641309 8.8 506.941309 10C 485.041309 11.4 463.141309 9.5 441.341309 10C 421.341309 10.5 401.241309 11.6 381.341309 10C 360.941309 8.4 340.341309 12 320.041309 10C 301.041309 8.1 281.741309 9.6 262.641309 10C 241.941309 10.4 221.241309 9 200.541309 10C 181.441309 10.9 162.341309 10.5 143.341309 10C 120.941309 15.7 98.241309 19.7 75.741309 25.2C 53.941309 30.6 32.141309 36.2 10.041309 40C 9.541309 45.9 11.741309 51.9 11.341309 58C 10.941309 64.1 10.041309 70.1 10.041309 76C 34.441309 79.8 58.541309 85.3 82.241309 92.3C 102.341309 98.1 123.041309 101.1 143.341309 106C 160.341309 104.7 177.441309 104.5 194.441309 106C 210.041309 107.4 225.841309 105.7 241.641309 106C 256.641309 106.3 271.641309 106.4 286.641309 106C 301.641309 105.6 316.741309 105 331.741309 106C 347.141309 107 362.641309 106.4 378.141309 106C 393.041309 105.7 408.041309 107.7 422.841309 106C 439.141309 104.1 455.741309 104.6 472.141309 106C 488.141309 107.3 504.241309 105.1 520.241309 106C 534.641309 106.8 549.041309 104.9 563.341309 106C 564.341309 88.8 565.041309 71.4 563.341309 54.3C 561.941309 39.6 562.741309 24.7 563.341309 10M 563.3409 10L 143.341 10L 10 40C 10.8832 45.8715 11.341 51.8823 11.341 58C 11.341 64.1177 10.8832 70.1285 10 76L 143.341 106L 563.3409 106L 563.3409 10Z"></path></g></g></g><g id="g-root-2.cu_sy_v5i0w2o69mo0-stroke" data-item-order="999619852" data-item-id="2.cu_sy_v5i0w2o69mo0" data-item-class="Part Indexed Fill Stroke" data-item-index="2" data-renderer-id="0" transform="translate(231.1923828125, 218)"><g id="2.cu_sy_v5i0w2o69mo0-stroke" fill="none" stroke-linecap="round" stroke-linejoin="round" stroke-miterlimit="4" stroke="#FFFFFF" stroke-width="4"><g><path d="M 574.807617 10C 560.907617 8.9 546.907617 10.2 532.907617 10C 521.007617 9.8 509.007617 9.3 497.107617 10C 483.807617 10.8 470.307617 9.4 457.007617 10C 445.307617 10.5 433.507617 10 421.807617 10C 409.907617 10 398.007617 8.9 386.107617 10C 372.807617 11.3 359.407617 9.3 346.107617 10C 333.707617 10.6 321.307617 9.1 309.007617 10C 295.707617 10.9 282.307617 10.5 269.007617 10C 256.307617 9.5 243.607617 10.6 230.907617 10C 218.907617 9.5 206.707617 8.3 194.807617 10C 181.607617 11.8 168.107617 9.8 154.807617 10C 145.507617 15 137.707617 22.5 128.007617 26.7C 118.007617 30.9 109.307617 37.7 100.307617 43.9C 90.307617 50.7 80.007617 57.2 69.407617 63.1C 59.707617 68.5 49.607617 73.6 41.007617 80.7C 31.607617 88.5 19.307617 92.1 10.007617 100C 14.607617 111.6 19.207617 123.3 21.507617 136C 45.307617 130.2 69.507617 125.6 93.407617 119.8C 113.807617 114.9 134.007617 108.8 154.807617 106C 178.407617 106.6 202.007617 104.5 225.507617 106C 246.807617 107.4 268.307617 108 289.507617 106C 311.807617 103.9 334.307617 105.1 356.707617 106C 380.707617 106.9 404.807617 104.3 428.707617 106C 455.207617 107.8 482.007617 104.4 508.507617 106C 530.607617 107.3 552.707617 105.4 574.807617 106C 573.807617 74 574.307617 42 574.807617 10M 574.8075 10L 154.8075 10L 10 100C 15.6123 111.1189 19.5456 123.2299 21.4665 136L 154.8075 106L 574.8075 106L 574.8075 10Z"></path></g></g></g><g id="g-root-1.cu_sy_qpoirmo69mof-stroke" data-item-order="999619854" data-item-id="1.cu_sy_qpoirmo69mof" data-item-class="Part Indexed Indexed_1 Fill Stroke" data-item-index="1" data-renderer-id="0" transform="translate(203.37451171875, 122)"><g id="1.cu_sy_qpoirmo69mof-stroke" fill="none" stroke-linecap="round" stroke-linejoin="round" stroke-miterlimit="4" stroke="#FFFFFF" stroke-width="4"><g><path d="M 182.625488 10C 207.625488 9.3 232.725488 8.6 257.725488 10C 278.725488 11.2 299.725488 9.7 320.725488 10C 343.325488 10.3 366.025488 10.3 388.625488 10C 413.625488 9.6 438.625488 10.3 463.625488 10C 487.225488 9.7 510.725488 9 534.225488 10C 557.025488 11 579.825488 9.6 602.625488 10C 602.625488 42 604.325488 74.1 602.625488 106C 584.525488 105.7 566.425488 105.4 548.325488 106C 531.125488 106.6 514.025488 106 496.825488 106C 478.425488 106 460.025488 105.1 441.625488 106C 423.525488 106.9 405.225488 107.8 387.225488 106C 369.525488 104.2 351.625488 107.1 333.925488 106C 316.825488 104.9 299.625488 107.4 282.625488 106C 267.025488 104.8 251.225488 107.5 235.625488 106C 218.025488 104.4 200.125488 108 182.625488 106C 161.725488 120.8 139.525488 133.5 117.425488 146.5C 90.525488 162.4 64.225488 179.3 37.825488 196C 29.225488 183.3 20.325488 171.2 10.025488 160C 21.325488 150.5 31.225488 139.2 43.525488 130.9C 55.025488 123 63.725488 111.5 75.125488 103.4C 88.825488 93.8 99.225488 80.1 112.925488 70.5C 124.525488 62.5 134.625488 52.5 144.825488 42.8C 156.925488 31.4 170.825488 21.8 182.625488 10M 182.6253 10L 602.6252 10L 602.6252 106L 182.6253 106L 37.8178 196C 30.8929 182.2808 21.4116 170.0721 10 160L 182.6253 10Z"></path></g></g></g><g id="g-root-tx_unpackin_1hbz2f6o69mo7-stroke" data-item-order="1000000000" data-item-id="tx_unpackin_1hbz2f6o69mo7" data-item-class="Label Stroke Title" data-item-index="none" data-renderer-id="0" transform="translate(118, 2)"></g><g id="g-root-1_dg3fnmo6cfm4-stroke" data-item-order="1000000000" data-item-id="1_dg3fnmo6cfm4" data-item-class="Icon Stroke Indexed Indexed_1 InsideFill InsideColorFill" data-item-index="1" data-renderer-id="0" transform="translate(412, 146)"><g id="1_dg3fnmo6cfm4-stroke" fill="none" stroke-linecap="round" stroke-linejoin="round" stroke-miterlimit="4" stroke="#FFFFFF" stroke-width="2"><g><path d="M 41.400002 34.799999C 41.799999 38 44 40 47 40.599998C 50.200001 41.200001 52.400002 38 52.799999 34.799999C 53.200001 31.6 50.200001 29 47 29C 44 29.200001 41.599998 31.6 41.400002 34.799999M 57 52C 56.799999 48.799999 55 45.599998 52 44.599998C 49 43.799999 45.799999 42.599998 43 44.200001M 54.400002 56.599998C 48.599998 56.200001 42.599998 55.799999 36.799999 56.599998C 35 56.799999 33.200001 55.400002 32.799999 53.599998C 32.200001 50.799999 31.799999 48.200001 30.799999 45.599998C 30.6 45.200001 30.799999 45 31 44.599998C 31.200001 44.400002 31.4 44.400002 31.799999 44.200001C 35 43.799999 38.400002 43.599998 41.599998 44.200001C 42.400002 44.400002 43.599998 45 43.599998 45.799999C 43.400002 49.599998 45.200001 53 46.200001 56.599998M 22.4 34.799999C 22.200001 38 25 40 28 40.599998C 31.200001 41 33.200001 38 33.799999 34.799999C 34.400002 31.799999 31.200001 29.200001 28 29C 24.799999 29 22.200001 31.6 22.4 34.799999M 36.799999 56.599998C 30.200001 56.200001 23.6 57.400002 17 56.599998C 15.2 56.400002 13.8 55.200001 13 53.599998C 11.8 51 10.6 48.200001 11 45.599998C 11 45.200001 11.2 45 11.2 44.599998C 11.4 44.400002 11.8 44.200001 12 44.200001C 15 45.200001 18.6 45.200001 21.6 44.200001C 22.4 44 23.6 45 23.6 45.799999C 23.200001 49.599998 26.200001 53 26.200001 56.599998M 42.799999 22C 39.599998 17.799999 32.400002 18 29 21.799999M 48.200001 15.4C 43.599998 7.6 30.6 9.6 23.6 15.4M 17.4 50.599998C 17.200001 51.200001 17.799999 51.799999 18.4 51.599998C 18.799999 51.599998 19.6 51.200001 19.4 50.599998C 19.200001 50.200001 19 49.599998 18.4 49.599998C 17.799999 49.599998 17.4 50 17.4 50.599998M 36.799999 50.599998C 37 51.200001 37.200001 51.599998 37.799999 51.599998C 38.400002 51.799999 38.799999 51.200001 38.799999 50.599998C 39 50.200001 38.400002 49.799999 37.799999 49.599998C 37.200001 49.400002 36.599998 50.200001 36.799999 50.599998M 24.6 30.200001C 25 33.799999 30 36.200001 33.799999 34.799999M 43.599998 30.200001C 44.400002 33.799999 48.799999 34.200001 52.799999 34.799999M 41.346001 34.812C 41.346001 37.976593 43.911411 40.542 47.076 40.542C 50.240593 40.542 52.806 37.976593 52.806 34.812C 52.806 31.647409 50.240593 29.082001 47.076 29.082001C 43.911411 29.082001 41.346001 31.647409 41.346001 34.812M 57 52C 56.554337 48.907349 54.692848 46.199055 51.965225 44.674862C 49.237598 43.150669 45.955456 42.984715 43.087997 44.225998M 54.428001 56.630001L 36.781998 56.630001C 34.891235 56.633366 33.241371 55.348122 32.782001 53.514004L 30.799999 45.563999C 30.723698 45.256424 30.793226 44.930843 30.988514 44.681271C 31.1838 44.431694 31.483101 44.285904 31.799999 44.285999L 41.507999 44.285999C 42.453384 44.284321 43.278316 44.926941 43.508003 45.844002L 46.200001 56.630001M 22.316 34.812C 22.316002 37.976593 24.881409 40.542 28.046001 40.542C 31.210592 40.542 33.776001 37.976593 33.776001 34.812C 33.776001 31.647409 31.210592 29.082001 28.046001 29.082001C 24.881409 29.082001 22.316002 31.647409 22.316002 34.812M 36.781998 56.630001L 17.01 56.630001C 15.119234 56.633366 13.469368 55.348122 13.01 53.514004L 11.032 45.563999C 10.954863 45.25634 11.024067 44.930298 11.219528 44.6805C 11.414989 44.430698 11.714819 44.285118 12.032 44.285999L 21.543999 44.285999C 22.48963 44.2836 23.314953 44.926525 23.543999 45.843998L 26.24 56.630001M 42.756001 21.9C 38.71048 18.830032 33.11552 18.830032 29.07 21.9M 48.256001 15.484L 48.256001 15.484C 40.939629 10.001996 30.884369 10.001996 23.568001 15.484L 23.568001 15.484M 17.322001 50.664001C 17.321968 51.231773 17.782228 51.692059 18.35 51.692059C 18.917772 51.692059 19.378033 51.231773 19.378 50.664001C 19.378033 50.09623 18.917772 49.635941 18.35 49.635941C 17.782228 49.635941 17.321968 50.09623 17.322001 50.664001M 36.781998 50.664001C 36.781967 51.231773 37.242226 51.692059 37.809998 51.692059C 38.377769 51.692059 38.838032 51.231773 38.837997 50.664001C 38.838032 50.09623 38.377769 49.635941 37.809998 49.635941C 37.242226 49.635941 36.781967 50.09623 36.781998 50.664001M 24.582001 30.261999C 25.658001 33.765999 29.74 34.812 33.781998 34.812M 43.612 30.261999C 44.688 33.765999 48.77 34.812 52.812 34.812"></path></g></g></g><g id="g-root-tx_userbene_1cw5kaqo69ngh-stroke" data-item-order="1000000000" data-item-id="tx_userbene_1cw5kaqo69ngh" data-item-class="Label Stroke Indexed Indexed_1 InsideFill InsideColorFill" data-item-index="1" data-renderer-id="0" transform="translate(472, 158)"></g><g id="g-root-hand_1hi7taao6che1-stroke" data-item-order="1000000000" data-item-id="hand_1hi7taao6che1" data-item-class="Icon Stroke Indexed InsideFill InsideColorFill" data-item-index="2" data-renderer-id="0" transform="translate(412, 242)"><g id="hand_1hi7taao6che1-stroke" fill="none" stroke-linecap="round" stroke-linejoin="round" stroke-miterlimit="4" stroke="#FFFFFF" stroke-width="2"><g><path d="M 50.400002 29.799999C 48.799999 25.799999 49.400002 20.4 45.599998 18.4C 41.799999 16.4 38.200001 13 34 13.6C 31.799999 14.6 27.200001 14.4 29 18.6C 32.599998 22.4 37.799999 17 42.799999 28C 46.400002 36.200001 37.799999 37.799999 35.599998 36.599998C 33.799999 35.799999 33.200001 33.200001 31.4 32.599998C 30 31.799999 28.4 31.4 27.200001 32.599998C 26 33.799999 26.4 35.400002 27.200001 36.799999C 30.200001 39.200001 32 42.599998 34.599998 45.200001C 35.799999 47 37.200001 48.799999 37 50.799999C 37 52 37 53.200001 37 54.400002M 48.400002 21.799999C 52 21.6 56.599998 25 57 28.799999C 57.799999 37.200001 54.400002 46.200001 57 54.400002M 18.4 25.799999C 18 27.200001 19.6 27.799999 20.799999 28.200001C 22 28.799999 23.4 27.200001 23.200001 25.799999C 23 24.4 22 23 20.799999 23.4C 19.4 23.799999 18.200001 24.4 18.4 25.799999M 27.6 32.200001C 26.799999 32 26.200001 32 25.4 31.799999C 24.6 31.6 23.6 32 23.6 33C 23.6 33.799999 23.200001 34.599998 22.799999 35.200001C 22.4 36.200001 21.799999 36.799999 20.799999 36.799999C 19.799999 36.799999 19.200001 36.200001 18.6 35.200001C 18.4 34.599998 18.200001 33.799999 18 33C 17.799999 32 17 31.799999 16 31.799999C 15.2 31.799999 14.4 32 13.6 32.400002C 12.8 32.799999 11.6 32.200001 11.2 31.4C 11 30.4 11.2 29.6 11.6 28.799999C 12 28 12.8 27.6 13.2 27C 13.8 26.200001 14 25.200001 13.2 24.799999C 12.6 24.200001 12.2 23.6 11.6 23C 11 22.200001 10.6 21 11.2 20.4C 12 19.6 12.8 18.799999 13.6 19.200001C 14.4 19.6 15.4 19.6 16 19.799999C 16.799999 20.200001 17.799999 19.6 18 18.799999C 18.200001 18 18.6 17.200001 18.6 16.4C 18.799999 15.4 19.799999 14.8 20.799999 14.8C 21.799999 15 22.4 15.6 22.799999 16.4C 23.200001 17 23.4 18 23.6 18.799999C 23.6 19.6 24.6 20.200001 25.4 19.799999C 26.200001 19.6 27 19.4 27.799999 19.200001C 28.799999 19.200001 29.799999 19.4 30.200001 20.4C 30.6 21.200001 30.799999 22.4 30 23C 29.4 23.4 28.799999 24.200001 28.200001 24.799999C 27.799999 25.4 28 26.200001 28.200001 27C 28.6 27.799999 29.6 28 30 28.799999C 30.6 29.799999 30.4 30.6 30 31.799999M 50.375999 29.836C 50.387886 25.503586 48.656437 21.348522 45.571575 18.306549C 42.486717 15.264578 38.307823 13.591463 33.975998 13.664C 31.542 13.664 27.916 14.205999 28.976 18.596001L 28.976 18.596001C 30.804001 23.549999 39.862 16.296 42.740002 28.077999C 44.880001 36.835999 37.354 38.456001 35.554001 36.655998L 31.444 32.545998C 30.272667 31.373688 28.372713 31.373068 27.200613 32.544613C 26.028515 33.71616 26.02824 35.616112 27.199999 36.788002L 34.655998 45.236C 36.156395 46.735943 36.999546 48.770443 37 50.891998L 37 54.335999M 48.400002 21.854C 51.987999 21.854 57 25.018 57 28.836L 57 54.335999M 18.33 25.827999C 18.329674 27.179119 19.424881 28.274591 20.776001 28.274591C 22.127121 28.274591 23.222328 27.179119 23.222 25.827999C 23.222328 24.476881 22.127121 23.381409 20.776001 23.381409C 19.424881 23.381409 18.329674 24.476881 18.33 25.827999M 27.504 32.278L 25.486 31.812C 24.655762 31.619625 23.818632 32.104233 23.572001 32.920002L 22.852001 35.290001C 22.576107 36.207069 21.73167 36.834846 20.774 36.834846C 19.816332 36.834846 18.971893 36.207069 18.695999 35.290001L 17.978001 32.919998C 17.731369 32.104233 16.894239 31.619625 16.064001 31.812002L 13.664 32.368C 12.730063 32.577698 11.768411 32.154816 11.291685 31.324791C 10.81496 30.494764 10.934264 29.451036 11.586 28.75L 13.264 26.950001C 13.844126 26.322929 13.844126 25.355072 13.264 24.728001L 11.586 22.908001C 10.93359 22.206741 10.814226 21.16222 11.291607 20.331854C 11.768989 19.501486 12.731706 19.079058 13.666 19.290001L 16.066 19.846001C 16.896162 20.03701 17.732237 19.55163 17.978001 18.736L 18.698 16.368C 18.978201 15.457553 19.81941 14.836298 20.771999 14.836298C 21.72459 14.836298 22.5658 15.457553 22.846001 16.368L 23.566 18.736C 23.81263 19.551914 24.649334 20.037151 25.48 19.846001L 27.879999 19.290001C 28.81501 19.076555 29.779865 19.498074 30.25856 20.32913C 30.737255 21.160185 30.617767 22.206295 29.964001 22.908001L 28.285999 24.718C 27.703934 25.344311 27.703934 26.31369 28.285999 26.940001L 29.964001 28.74C 30.749432 29.579615 30.749432 30.884386 29.964001 31.724001"></path></g></g></g><g id="g-root-tx_servicep_140ik1uo69o96-stroke" data-item-order="1000000000" data-item-id="tx_servicep_140ik1uo69o96" data-item-class="Label Stroke Indexed InsideFill InsideColorFill" data-item-index="2" data-renderer-id="0" transform="translate(472, 254)"></g><g id="g-root-tx_jetpackt_1cw5kaqo69ngg-stroke" data-item-order="1000000000" data-item-id="tx_jetpackt_1cw5kaqo69ngg" data-item-class="Label Stroke InsideFill ColorFillGray ColorStrokeGray" data-item-index="none" data-renderer-id="0" transform="translate(46, 338)"></g><g id="g-root-2_1hi7taao6che2-stroke" data-item-order="1000000000" data-item-id="2_1hi7taao6che2" data-item-class="Icon Stroke Indexed InsideFill InsideColorFill" data-item-index="3" data-renderer-id="0" transform="translate(412, 338)"><g id="2_1hi7taao6che2-stroke" fill="none" stroke-linecap="round" stroke-linejoin="round" stroke-miterlimit="4" stroke="#FFFFFF" stroke-width="2"><g><path d="M 28.857143 47.714287C 24.057142 41.885715 22.342857 34 20.285715 26.457144C 15.142858 32.285713 15.142858 40.857143 11.714286 47.714287C 11.371428 52.514286 15.485714 56.628574 20.285715 56.285713C 25.085714 55.942856 28.514286 52.514286 28.857143 47.714287M 56.285713 34C 52.857143 27.485714 48.742859 21.314285 47.714287 14.114285C 44.628574 20.628571 41.885715 27.485714 39.142857 34C 39.142857 38.799999 43.257141 41.200001 47.714287 42.57143C 52.171429 43.942856 56.971428 38.799999 56.285713 34M 15.142858 28.857143C 25.428572 19.6 40.857143 18.914286 52.857143 11.714286M 34 20.285715C 33.314285 17.542858 35.028572 14.457143 34 11.714286M 28.857143 47.714287L 20.285715 26.525715L 11.714286 47.714287C 11.714286 52.448158 15.551846 56.285713 20.285715 56.285713C 25.019585 56.285713 28.857143 52.448158 28.857143 47.714287ZM 56.285713 34L 47.714287 14.045714L 39.142857 34C 39.142857 38.733868 42.980419 42.57143 47.714287 42.57143C 52.448158 42.57143 56.285713 38.733868 56.285713 34ZM 15.142858 28.857143L 52.857143 11.714286M 34 20.285715L 34 11.714286"></path></g></g></g><g id="g-root-tx_fairness_140ik1uo69o97-stroke" data-item-order="1000000000" data-item-id="tx_fairness_140ik1uo69o97" data-item-class="Label Stroke Indexed InsideFill InsideColorFill" data-item-index="3" data-renderer-id="0" transform="translate(472, 350)"></g><g id="g-root-eye_1d2eb5uo6ci6b-stroke" data-item-order="1000000000" data-item-id="eye_1d2eb5uo6ci6b" data-item-class="Icon Stroke Indexed InsideFill InsideColorFill" data-item-index="4" data-renderer-id="0" transform="translate(412, 434)"><g id="eye_1d2eb5uo6ci6b-stroke" fill="none" stroke-linecap="round" stroke-linejoin="round" stroke-miterlimit="4" stroke="#FFFFFF" stroke-width="2"><g><path d="M 14 16C 27 13.2 40.799999 17.799999 54 16C 54 16 56 16 56 18C 55.799999 28.6 56 39.400002 56 50C 56 50 55.799999 51.200001 54 52C 41.599998 57 27.200001 50.599998 14 52C 14 52 12.2 52 12 50C 11 39.400002 9.4 28.4 12 18C 12 18 12 16.6 14 16M 18 28C 18 26.6 18 25.4 18 24C 18 22.799999 19 22.200001 20 22C 21.4 21.799999 22.6 22 24 22M 50 28C 50 26.6 50 25.4 50 24C 50 22.799999 49 21.799999 48 22C 46.599998 22.200001 45.400002 22 44 22M 18 40C 18 41.400002 17.6 42.799999 18 44C 18.200001 45 19 46.200001 20 46C 21.4 45.799999 22.799999 45.599998 24 46M 50 40C 50.400002 41.200001 50.400002 42.799999 50 44C 49.599998 45 49 46 48 46C 46.599998 46 45.200001 46.400002 44 46M 29 34C 28.799999 36.799999 31.200001 39 34 39C 36.799999 39 38 36.599998 39 34C 40 31.4 36.599998 28.200001 34 29C 31.4 29.799999 29.799999 31.4 29 34M 45.599998 33.200001C 44 32.200001 39.599998 27 34 27C 28.4 27 23.799999 31.799999 22.4 33.200001C 21.799999 33.599998 22 34.400002 22.4 35C 23.4 36.400002 28.6 42.200001 34 41C 39.400002 39.799999 44 35.799999 45.599998 34.799999C 46.200001 34.599998 46.200001 33.400002 45.599998 33M 14 16L 54 16C 54 16 56 16 56 18L 56 50C 56 50 56 52 54 52L 14 52C 14 52 12 52 12 50L 12 18C 12 18 12 16 14 16M 18 28L 18 24C 18 22.895432 18.895432 22 20 22L 24 22M 50 28L 50 24C 50 22.895432 49.104568 22 48 22L 44 22M 18 40L 18 44C 18 45.104568 18.895432 46 20 46L 24 46M 50 40L 50 44C 50 45.104568 49.104568 46 48 46L 44 46M 29 34C 29 36.761425 31.238577 39 34 39C 36.761425 39 39 36.761425 39 34C 39 31.238577 36.761425 29 34 29C 31.238577 29 29 31.238577 29 34M 45.650002 33.104C 44.355999 31.691999 39.629997 27 34 27C 28.370001 27 23.644001 31.691999 22.35 33.104C 21.878456 33.611351 21.878456 34.396648 22.35 34.903999C 23.644001 36.307999 28.370001 41 34 41C 39.629997 41 44.355999 36.307999 45.650002 34.896C 46.121548 34.388649 46.121548 33.603355 45.650002 33.096001Z"></path></g></g></g><g id="g-root-tx_transpar_zkp1xeo69p1g-stroke" data-item-order="1000000000" data-item-id="tx_transpar_zkp1xeo69p1g" data-item-class="Label Stroke Indexed InsideFill InsideColorFill" data-item-index="4" data-renderer-id="0" transform="translate(472, 446)"></g><g id="g-root-2_1d2eb5uo6ci6c-stroke" data-item-order="1000000000" data-item-id="2_1d2eb5uo6ci6c" data-item-class="Icon Stroke Indexed InsideFill InsideColorFill" data-item-index="5" data-renderer-id="0" transform="translate(412, 530)"><g id="2_1d2eb5uo6ci6c-stroke" fill="none" stroke-linecap="round" stroke-linejoin="round" stroke-miterlimit="4" stroke="#FFFFFF" stroke-width="2"><g><path d="M 56.599998 51.599998C 56.599998 54.200001 54.200001 56.400002 51.599998 56.599998C 39.799999 57.200001 28 54.599998 16.6 56.599998C 13.8 57 11.4 54.200001 11.6 51.599998C 11.6 48.799999 13.8 46.400002 16.6 46.599998C 28.200001 47.400002 40 48.200001 51.599998 46.599998C 54.200001 46.200001 56.599998 48.799999 56.599998 51.599998M 18.4 36.400002C 22.200001 36.200001 26 36.799999 29.799999 36.400002C 29.799999 39.799999 28.799999 43.200001 29.799999 46.599998C 26 45.799999 22.200001 46.799999 18.4 46.599998C 17.4 43.200001 19.4 39.599998 18.4 36.400002M 18 51.599998C 18 52 18.4 52.599998 19 52.599998C 19.6 52.599998 20 52 20 51.599998C 20 51 19.6 50.400002 19 50.599998C 18.4 50.599998 17.799999 51 18 51.599998M 28 51.599998C 28.200001 52 28.4 52.599998 29 52.599998C 29.6 52.400002 29.799999 52 30 51.599998C 30.200001 51 29.6 50.799999 29 50.599998C 28.4 50.400002 28.200001 51 28 51.599998M 38 51.599998C 38.200001 52 38.599998 52.400002 39 52.599998C 39.599998 52.599998 39.799999 52 40 51.599998C 40.200001 51 39.599998 50.599998 39 50.599998C 38.599998 50.599998 38.200001 51 38 51.599998M 48 51.599998C 48.200001 52 48.599998 52.400002 49 52.599998C 49.599998 52.599998 49.799999 52 50 51.599998C 50.200001 51 49.599998 50.400002 49 50.599998C 48.599998 50.599998 48.200001 51 48 51.599998M 24 40.400002C 24 39 24.4 37.599998 24 36.400002M 39 36.400002C 42.799999 37 46.799999 36.799999 50.599998 36.400002C 51.400002 39.599998 51.799999 43.400002 50.599998 46.599998C 46.799999 47.400002 42.799999 47 39 46.599998C 39.400002 43.200001 38.400002 39.599998 39 36.400002M 44.799999 40.400002C 44.400002 39.200001 45 37.599998 44.799999 36.400002M 54.599998 21.4C 50.400002 19.200001 48.799999 13.4 44.599998 11.4C 44.799999 13.6 44.599998 15.8 44.599998 18C 35.200001 19.6 25.6 18.799999 16 18C 15.4 20.4 15.4 22.799999 16 25.200001C 25.4 26.799999 35 25.200001 44.599998 25.200001C 44 27.200001 45.200001 29.4 44.599998 31.4C 46.599998 27.200001 51.400002 25 54.599998 21.4M 56.5 51.537998C 56.5 54.299423 54.261425 56.538002 51.5 56.538002L 16.5 56.537998C 13.738577 56.538002 11.5 54.299423 11.5 51.538002C 11.5 48.776577 13.738577 46.538002 16.5 46.538002L 51.5 46.537998C 54.261425 46.538002 56.5 48.776577 56.5 51.538002ZM 18.32 36.302002L 29.827999 36.302002L 29.827999 46.538002L 18.32 46.538002ZM 18 51.537998C 18 52.090286 18.447716 52.537998 19 52.537998C 19.552284 52.537998 20 52.090286 20 51.537998C 20 50.985714 19.552284 50.537998 19 50.537998C 18.447716 50.537998 18 50.985714 18 51.537998M 28 51.537998C 28 52.090286 28.447716 52.537998 29 52.537998C 29.552284 52.537998 30 52.090286 30 51.537998C 30 50.985714 29.552284 50.537998 29 50.537998C 28.447716 50.537998 28 50.985714 28 51.537998M 38.084 51.537998C 38.084 52.090286 38.531715 52.537998 39.084 52.537998C 39.636284 52.537998 40.084 52.090286 40.084 51.537998C 40.084 50.985714 39.636284 50.537998 39.084 50.537998C 38.531715 50.537998 38.084 50.985714 38.084 51.537998M 48.084 51.537998C 48.084 52.090286 48.531715 52.537998 49.084 52.537998C 49.636284 52.537998 50.084 52.090286 50.084 51.537998C 50.084 50.985714 49.636284 50.537998 49.084 50.537998C 48.531715 50.537998 48.084 50.985714 48.084 51.537998M 24.074001 40.388L 24.074001 36.302002M 39.084 36.302002L 50.591999 36.302002L 50.591999 46.538002L 39.084 46.538002ZM 44.838001 40.388L 44.838001 36.302002M 54.543999 21.439999L 44.563999 11.462L 44.563999 17.948L 16.048 17.948L 16.048 25.262001L 44.563999 25.262001L 44.563999 31.42L 54.543999 21.439999Z"></path></g></g></g><g id="g-root-tx_efficien_zkp1xeo69p1h-stroke" data-item-order="1000000000" data-item-id="tx_efficien_zkp1xeo69p1h" data-item-class="Label Stroke Indexed InsideFill InsideColorFill" data-item-index="5" data-renderer-id="0" transform="translate(472, 542)"></g></g></g></svg>
