<?xml version="1.0" encoding="utf-8"?>
<svg xmlns="http://www.w3.org/2000/svg" viewBox="2817.9458 333.95 220.6343 220.1042" width="150.4755pt" height="150.078pt" preserveAspectRatio="none"><defs><style>
      .cls-1 {
        fill: #060001;
      }

      .cls-2, .cls-3 {
        fill: #060001;
      }

      .cls-2, .cls-3, .cls-4, .cls-5 {
        font-family: Poppins-Bold, Poppins;
        font-weight: 700;
      }

      .cls-2, .cls-5 {
        font-size: 80.68px;
      }

      .cls-6, .cls-7, .cls-8, .cls-9 {
        fill: none;
      }

      .cls-6, .cls-8 {
        stroke: #060001;
      }

      .cls-6, .cls-9 {
        stroke-miterlimit: 10;
        stroke-width: 10px;
      }

      .cls-10 {
        letter-spacing: -.05em;
      }

      .cls-7 {
        stroke: #231815;
      }

      .cls-7, .cls-8 {
        stroke-linecap: round;
        stroke-linejoin: round;
        stroke-width: 11px;
      }

      .cls-11, .cls-4, .cls-5 {
        fill: #fff;
      }

      .cls-12 {
        fill: #fafcf7;
      }

      .cls-3, .cls-4 {
        font-size: 32px;
        letter-spacing: .2em;
      }

      .cls-13 {
        letter-spacing: .29em;
      }

      .cls-14 {
        fill: #64bb75;
      }

      .cls-15 {
        fill: #d2dbe2;
      }

      .cls-16 {
        fill: #231815;
      }

      .cls-17 {
        fill: #cfdae2;
      }

      .cls-18 {
        letter-spacing: 0em;
      }

      .cls-19 {
        fill: #2f884e;
      }

      .cls-20 {
        letter-spacing: -.07em;
      }

      .cls-21 {
        letter-spacing: .05em;
      }

      .cls-22 {
        fill: #d7e1e9;
      }

      .cls-23 {
        letter-spacing: -.03em;
      }

      .cls-24 {
        letter-spacing: -.01em;
      }

      .cls-9 {
        stroke: #060001;
      }
    </style></defs><g id="object-0"><circle class="cls-11" cx="2936.8" cy="436.52" r="91.29"/><circle class="cls-14" cx="2940.06" cy="442.07" r="88.52"/><circle class="cls-9" cx="2936.75" cy="435.24" r="91.29"/><path class="cls-14" d="M3003.68,408.26c12.58-12.58,7.19-35.88,1.56-41.51-5.63-5.63-28.93-11.02-41.51,1.56-5.76,5.76-9.14,12.91-10.06,20.01l-72.83,72.83s6.78,4.73,16.02,13.97,13.97,16.02,13.97,16.02l72.83-72.83c7.11-.92,14.25-4.29,20.01-10.06Z"/><path class="cls-12" d="M2960.73,394.88c.92-7.17,4.33-14.38,10.15-20.2,10.57-10.57,29.33-5.2,33.64,1.59.94,1.49,1.77,2.97,2.49,4.45.68-6.09-.46-11.46-2.28-15.48-7.2-5.28-28.77-9.42-40.74,2.55-5.82,5.82-9.23,13.03-10.15,20.2l-71.84,71.84c2.03,1.71,4.49,3.89,7.25,6.53l71.48-71.48Z"/><path class="cls-19" d="M3009.77,398.05c3.95-12.29-.22-26.98-4.53-31.3-.32-.32-.71-.65-1.15-.96,1.81,3.98,2.93,9.3,2.26,15.33-.61,5.47-2.69,11.52-7.1,17.67-4.5,6.28-8.73,8.74-17.73,14.19l-69.97,69.97s-6.22-5.84-11.81-10.65c-6.13-5.27-12.03-9.65-16.95-13.1l-3.65,3.65,30.25,29.74,74.27-74.27c7.11-.92,14.25-4.29,20.01-10.06,2.94-2.94,4.89-6.47,6.09-10.22Z"/><g><path class="cls-14" d="M2852.42,519.62c26.6-6.92,39.32-23.4,42.38-27.92l-14.23-14.23c-5.42,3.09-21.57,14.38-28.15,42.15Z"/><path class="cls-12" d="M2880.57,477.47l-8.02-8.02s-8.1,8.29-15.13,20.76c-7.5,13.32-5.59,28.77-5,29.41h0c6.58-27.77,22.73-39.07,28.15-42.15Z"/><path class="cls-19" d="M2894.81,491.7c-3.06,4.52-15.78,21-42.38,27.92,0,0,0,0,0,0,0,0,0,0,0,0,.59.59,16.07,2.52,29.42-5,12.48-7.03,20.76-15.13,20.76-15.13l-7.8-7.8Z"/></g><g><polygon class="cls-14" points="2931 527.39 2929.73 488.01 2981.71 436.03 2982.98 475.41 2931 527.39"/><polygon class="cls-19" points="2982.98 475.41 2981.71 436.03 2975.21 442.52 2975.53 473.32 2930.7 518.15 2931 527.39 2982.98 475.41"/></g><g><polygon class="cls-14" points="2845.31 440.28 2884.5 441.75 2935.96 390.28 2896.77 388.82 2845.31 440.28"/><polygon class="cls-12" points="2898.42 395.78 2929.31 396.94 2935.96 390.28 2896.77 388.82 2852.55 433.04 2860.85 433.35 2898.42 395.78"/><polygon class="cls-19" points="2860.85 433.35 2852.55 433.04 2845.31 440.28 2853.61 440.59 2884.5 441.75 2891.74 434.5 2860.85 433.35"/></g><path class="cls-16" d="M2984.37,360.63c.21,0,.43,0,.64,0,.21,0,.42,0,.62,0,.31,0,.61.02.92.04.19,0,.38.01.57.02.48.03.96.07,1.43.11.26.02.51.06.77.08.22.02.45.05.66.07.27.03.53.08.8.11.2.03.4.06.6.09.27.04.54.09.81.14.19.03.37.06.55.1.27.05.54.11.81.17.17.04.35.07.52.11.27.06.54.13.81.19.16.04.32.08.48.12.27.07.54.15.8.22.15.04.29.08.43.12.27.08.53.16.79.24.13.04.26.09.39.13.26.09.52.18.77.27.12.04.24.09.35.13.26.1.51.19.75.29.1.04.21.08.31.13.25.1.49.21.73.32.09.04.17.08.26.12.24.11.48.22.71.34.07.04.14.07.21.11.23.12.46.24.68.37.05.03.1.06.16.09.23.13.45.26.66.4.03.02.06.04.09.06.46.3.89.61,1.25.92.19.16.37.32.53.49.24.24.48.52.72.83.06.07.11.14.17.22.24.31.47.65.7,1.02.02.03.03.06.05.08.22.36.43.74.65,1.15.05.09.09.18.14.27.22.44.44.9.65,1.39.02.04.03.07.05.11.2.48.4.98.59,1.5.03.07.05.15.08.22.2.56.4,1.15.58,1.75,0,.02.01.04.02.06.18.61.35,1.25.51,1.9,0,.03.01.05.02.08,1.49,6.16,1.83,13.81-.38,20.72,0,0,0,0,0,0h0c-.15.46-.31.91-.48,1.36,0,.02-.02.05-.03.07-.16.43-.33.85-.52,1.27-.02.06-.05.11-.08.17-.17.39-.35.77-.55,1.15-.05.09-.1.18-.14.27-.18.34-.36.69-.56,1.02-.08.13-.16.26-.24.39-.18.3-.36.59-.55.89-.12.17-.24.34-.36.51-.17.24-.34.49-.52.73-.17.23-.36.45-.55.67-.15.18-.29.36-.44.53-.34.39-.69.77-1.07,1.14,0,0-.01.01-.02.02-5.76,5.76-12.91,9.14-20.01,10.06l-78.29,78.29s-6.73-8.25-14.19-15.74c-7.28-7.32-15.29-13.88-15.63-14.12-.02-.01-.05-.03-.06-.05-.03-.02-.05-.04-.07-.05-.02-.01-.04-.03-.04-.03l1.66-1.66.23-.23,76.4-76.4c.92-7.11,4.29-14.25,10.06-20.01.38-.38.78-.75,1.18-1.1.13-.12.27-.22.41-.34.27-.23.54-.45.82-.66.17-.13.34-.24.51-.36.26-.18.51-.37.78-.54.18-.12.37-.23.56-.35.26-.16.51-.32.77-.47.19-.11.39-.22.59-.32.26-.14.52-.28.78-.41.2-.1.41-.19.61-.29.26-.12.52-.24.79-.36.21-.09.42-.17.63-.26.27-.11.53-.21.8-.31.21-.08.43-.15.65-.22.27-.09.54-.18.81-.26.22-.07.44-.13.66-.19.28-.08.55-.15.83-.22.22-.05.44-.11.66-.16.28-.06.56-.12.84-.18.22-.04.44-.09.66-.13.28-.05.56-.09.85-.14.22-.03.45-.07.67-.1.28-.04.57-.07.85-.1.22-.02.44-.05.66-.07.29-.03.57-.05.86-.06.22-.01.44-.03.65-.04.29-.01.58-.02.87-.03.22,0,.43-.02.64-.02.08,0,.16,0,.24,0M2984.37,349.63h-.37c-.22,0-.44.01-.67.02h-.16s-.1,0-.1,0c-.34,0-.67.02-1.01.04-.23.01-.46.03-.69.04h-.15c-.39.04-.75.06-1.12.1-.24.02-.49.05-.74.08h-.13c-.37.05-.74.1-1.1.14-.27.04-.53.07-.79.11h-.09c-.37.07-.75.13-1.12.2-.3.05-.59.11-.89.17-.38.07-.75.15-1.12.24-.3.07-.59.14-.89.21-.38.09-.75.19-1.13.3-.29.08-.59.17-.9.26-.37.11-.74.23-1.11.36-.3.1-.6.2-.9.31-.37.13-.74.28-1.11.42-.3.12-.59.24-.88.36-.38.16-.75.33-1.12.5l-.07.03c-.27.12-.53.25-.8.38-.37.18-.74.38-1.11.58l-.12.06c-.24.13-.49.26-.73.4-.35.2-.7.42-1.06.64l-.06.03-.11.07c-.23.14-.46.29-.69.44-.35.23-.7.48-1.04.73l-.09.06-.09.06c-.22.15-.44.31-.65.47-.46.35-.85.67-1.16.94l-.04.04h0c-.2.16-.4.33-.59.5-.6.52-1.18,1.07-1.73,1.61-6.27,6.27-10.62,14.12-12.49,22.45l-73.96,73.96-.23.23-1.66,1.66c-2.29,2.29-3.46,5.47-3.19,8.7.27,3.21,1.93,6.13,4.54,8.01,1.42,1.14,8.32,6.94,14.44,13.08,6.99,7.03,13.4,14.86,13.46,14.94,1.97,2.41,4.86,3.87,7.97,4.03.19,0,.37.01.56.01,2.91,0,5.71-1.15,7.78-3.22l75.86-75.86c8.33-1.88,16.18-6.23,22.45-12.49.04-.04.08-.08.12-.12.5-.51,1-1.04,1.48-1.59.2-.23.39-.46.58-.7l.07-.09.1-.13c.24-.29.47-.58.7-.87.23-.31.46-.63.68-.95l.08-.12.07-.1c.16-.22.31-.44.46-.66.27-.41.54-.84.8-1.27l.04-.06c.1-.17.21-.34.31-.51.33-.57.61-1.1.8-1.46.08-.16.15-.28.21-.4.26-.51.51-1.04.77-1.62l.12-.27c.24-.54.48-1.14.71-1.74l-10.26-3.96,10.28,3.91s.01-.03.02-.05c.23-.62.45-1.25.65-1.88,3.51-10.92,1.88-21.4.6-26.68,0-.04-.02-.1-.04-.14-.2-.82-.42-1.61-.64-2.37l-.02-.08c-.24-.79-.49-1.56-.76-2.31l-.09-.25c-.27-.73-.53-1.39-.79-2-.03-.09-.07-.17-.1-.25-.28-.65-.59-1.31-.93-1.98-.06-.11-.12-.23-.18-.36-.34-.65-.65-1.21-.97-1.72-.05-.08-.1-.16-.15-.24-.39-.62-.79-1.22-1.25-1.82-.11-.15-.22-.29-.33-.43-.54-.69-1.05-1.26-1.58-1.79-.38-.38-.8-.76-1.24-1.13-.65-.55-1.4-1.1-2.25-1.66-.07-.05-.14-.09-.22-.14-.35-.22-.71-.44-1.08-.66-.07-.04-.16-.09-.25-.15-.33-.19-.68-.37-1.04-.56l-.31-.16c-.35-.17-.69-.34-1.04-.5l-.36-.17c-.34-.15-.68-.3-1.03-.44-.14-.06-.28-.12-.42-.17-.33-.13-.67-.27-1.02-.39-.15-.06-.31-.12-.47-.17-.33-.12-.67-.24-1.02-.35-.17-.06-.34-.11-.52-.17-.33-.11-.67-.21-1.02-.32-.16-.05-.33-.1-.49-.14l-.06-.02c-.34-.1-.68-.19-1.03-.28-.16-.04-.33-.08-.5-.13l-.1-.03c-.34-.09-.68-.17-1.02-.25-.18-.04-.35-.08-.53-.12l-.12-.03c-.36-.08-.69-.15-1.02-.21-.19-.04-.37-.07-.56-.1l-.14-.02-.11-.02c-.3-.05-.6-.11-.91-.16-.2-.03-.39-.06-.59-.09l-.15-.02-.17-.03c-.28-.04-.56-.08-.84-.12-.22-.03-.44-.05-.67-.08l-.17-.02-.18-.02c-.26-.03-.52-.06-.79-.08-.59-.06-1.19-.1-1.79-.14-.2-.01-.4-.02-.6-.03h-.12s-.14-.01-.14-.01c-.34-.02-.68-.03-1.02-.04-.21,0-.43,0-.64,0h-.15s-.14,0-.14,0c-.2,0-.4,0-.6,0h0Z"/><path class="cls-16" d="M2872.93,469.31l7.96,7.96,14.12,14.12,7.74,7.74s-8.29,8.1-20.74,15.15c-8.23,4.66-17.25,5.73-23.09,5.73-3.61,0-6.01-.41-6.23-.63,0,0,0,0,0,0,0,0,0,0,0,0-.58-.63-2.43-16.01,5.1-29.31,7.05-12.45,15.15-20.74,15.15-20.74M2872.84,453.67l-7.78,7.95c-.37.38-9.2,9.47-16.86,23.01-4.97,8.78-6.54,17.91-6.99,24.03-.67,9.22.56,13.67,1.81,16.02l.63,1.32,1.39,1.3.09.09.08.07c2.35,2.2,5.61,3.54,13.69,3.54,5.93,0,17.51-.93,28.51-7.15,13.55-7.67,22.63-16.49,23.01-16.86l7.95-7.78-7.86-7.86-7.74-7.74-14.12-14.12-7.96-7.96-7.86-7.86h0Z"/><path class="cls-16" d="M2981.46,436.27l1.47,39.19-51.46,51.46-1.47-39.19,45.03-45.03,6.43-6.43M2981.46,425.27c-2.87,0-5.68,1.12-7.78,3.22l-6.43,6.43-45.03,45.03c-2.16,2.16-3.33,5.13-3.21,8.19l1.47,39.19c.16,4.37,2.9,8.23,6.97,9.83,1.3.51,2.67.76,4.02.76,2.87,0,5.68-1.12,7.78-3.22l51.46-51.46c2.16-2.16,3.33-5.13,3.21-8.19l-1.47-39.19c-.16-4.37-2.9-8.23-6.97-9.83-1.3-.51-2.67-.76-4.02-.76h0Z"/><path class="cls-16" d="M2896.77,388.82l39.19,1.47-6.65,6.65-37.57,37.57-7.24,7.24-39.19-1.47,7.24-7.24,44.22-44.22M2845.31,440.28h0s0,0,0,0M2896.77,377.82c-2.91,0-5.71,1.16-7.78,3.22l-44.22,44.22-7.24,7.24c-3.09,3.09-4.06,7.73-2.46,11.8s5.46,6.81,9.83,6.97l39.19,1.47c.14,0,.27,0,.41,0,2.91,0,5.71-1.16,7.78-3.22l7.24-7.24,37.57-37.57,6.65-6.65c3.09-3.09,4.06-7.73,2.46-11.8-1.6-4.07-5.46-6.81-9.83-6.97l-39.19-1.47c-.14,0-.27,0-.41,0h0Z"/><line class="cls-7" x1="2947.17" y1="385.19" x2="2907.98" y2="383.72"/><line class="cls-7" x1="2988.17" y1="466.83" x2="2986.7" y2="427.64"/><path class="cls-16" d="M2941.12,532.81s-6.22,6.22-9.29,9.29c-4.43,4.43-10.38.98-10.78-6.84-.16-3.18-.64-12.79-.64-12.79l9.07,6.54,11.64,3.81Z"/><path class="cls-16" d="M2839.19,430.88s-6.22,6.22-9.29,9.29c-4.43,4.43-.98,10.25,6.84,10.65,3.18.16,12.79.64,12.79.64l-6.53-8.94-3.81-11.64Z"/><path class="cls-16" d="M2842.27,539.66c-3.17,3.17-7.95,3.53-10.68.8s-1.97-6.25-.08-10.32,8.83-3.89,11.56-1.16,2.37,7.51-.8,10.68Z"/><path class="cls-16" d="M2849.73,522.32l-8.61-12.39s.23,6.18-3.8,11.35c-2.8,3.59-6.02,7.96-6.62,11.4-1.28,2.77-.99,5.89.99,7.88,2.67,2.67,6.17,1.88,10.21-.02.02-.01.04-.03.06-.04,2.88-1.28,6.06-3.64,8.8-5.77,5.17-4.03,11.35-3.8,11.35-3.8l-12.39-8.61Z"/></g></svg>